<?xml version="1.0" encoding="utf-8" standalone="no"?>
<!DOCTYPE svg PUBLIC "-//W3C//DTD SVG 1.1//EN"
  "http://www.w3.org/Graphics/SVG/1.1/DTD/svg11.dtd">
<!-- Created with matplotlib (https://matplotlib.org/) -->
<svg height="1440pt" version="1.1" viewBox="0 0 1140 1440" width="1140pt" xmlns="http://www.w3.org/2000/svg" xmlns:xlink="http://www.w3.org/1999/xlink">
 <metadata>
  <rdf:RDF xmlns:cc="http://creativecommons.org/ns#" xmlns:dc="http://purl.org/dc/elements/1.1/" xmlns:rdf="http://www.w3.org/1999/02/22-rdf-syntax-ns#">
   <cc:Work>
    <dc:type rdf:resource="http://purl.org/dc/dcmitype/StillImage"/>
    <dc:date>2022-02-18T10:48:57.466189</dc:date>
    <dc:format>image/svg+xml</dc:format>
    <dc:creator>
     <cc:Agent>
      <dc:title>Matplotlib v3.3.2, https://matplotlib.org/</dc:title>
     </cc:Agent>
    </dc:creator>
   </cc:Work>
  </rdf:RDF>
 </metadata>
 <defs>
  <style type="text/css">*{stroke-linecap:butt;stroke-linejoin:round;}</style>
 </defs>
 <g id="figure_1">
  <g id="patch_1">
   <path d="M 0 1440 
L 1140 1440 
L 1140 0 
L 0 0 
z
" style="fill:#ffffff;"/>
  </g>
  <g id="axes_1">
   <g id="patch_2">
    <path clip-path="url(#p825ada1951)" d="M 385.59 745.68 
C 390.490953 745.68 395.191836 743.732831 398.657333 740.267333 
C 402.122831 736.801836 404.07 732.100953 404.07 727.2 
C 404.07 722.299047 402.122831 717.598164 398.657333 714.132667 
C 395.191836 710.667169 390.490953 708.72 385.59 708.72 
C 380.689047 708.72 375.988164 710.667169 372.522667 714.132667 
C 369.057169 717.598164 367.11 722.299047 367.11 727.2 
C 367.11 732.100953 369.057169 736.801836 372.522667 740.267333 
C 375.988164 743.732831 380.689047 745.68 385.59 745.68 
z
" style="fill:#ff00ff;opacity:0.5;stroke:#ff00ff;stroke-linejoin:miter;"/>
   </g>
   <g id="patch_3">
    <path clip-path="url(#p825ada1951)" d="M 413.31 907.38 
C 424.337145 907.38 434.914131 902.998869 442.7115 895.2015 
C 450.508869 887.404131 454.89 876.827145 454.89 865.8 
C 454.89 854.772855 450.508869 844.195869 442.7115 836.3985 
C 434.914131 828.601131 424.337145 824.22 413.31 824.22 
C 402.282855 824.22 391.705869 828.601131 383.9085 836.3985 
C 376.111131 844.195869 371.73 854.772855 371.73 865.8 
C 371.73 876.827145 376.111131 887.404131 383.9085 895.2015 
C 391.705869 902.998869 402.282855 907.38 413.31 907.38 
z
" style="opacity:0.75;stroke:#000000;stroke-linejoin:miter;"/>
   </g>
   <g id="patch_4">
    <path clip-path="url(#p825ada1951)" d="M 514.95 801.12 
C 522.30143 801.12 529.352754 798.199246 534.551 793.001 
C 539.749246 787.802754 542.67 780.75143 542.67 773.4 
C 542.67 766.04857 539.749246 758.997246 534.551 753.799 
C 529.352754 748.600754 522.30143 745.68 514.95 745.68 
C 507.59857 745.68 500.547246 748.600754 495.349 753.799 
C 490.150754 758.997246 487.23 766.04857 487.23 773.4 
C 487.23 780.75143 490.150754 787.802754 495.349 793.001 
C 500.547246 798.199246 507.59857 801.12 514.95 801.12 
z
" style="opacity:0.75;stroke:#000000;stroke-linejoin:miter;"/>
   </g>
   <g id="patch_5">
    <path clip-path="url(#p825ada1951)" d="M 390.21 662.52 
C 397.56143 662.52 404.612754 659.599246 409.811 654.401 
C 415.009246 649.202754 417.93 642.15143 417.93 634.8 
C 417.93 627.44857 415.009246 620.397246 409.811 615.199 
C 404.612754 610.000754 397.56143 607.08 390.21 607.08 
C 382.85857 607.08 375.807246 610.000754 370.609 615.199 
C 365.410754 620.397246 362.49 627.44857 362.49 634.8 
C 362.49 642.15143 365.410754 649.202754 370.609 654.401 
C 375.807246 659.599246 382.85857 662.52 390.21 662.52 
z
" style="opacity:0.75;stroke:#000000;stroke-linejoin:miter;"/>
   </g>
   <g id="patch_6">
    <path clip-path="url(#p825ada1951)" d="M 293.19 810.36 
C 298.090953 810.36 302.791836 808.412831 306.257333 804.947333 
C 309.722831 801.481836 311.67 796.780953 311.67 791.88 
C 311.67 786.979047 309.722831 782.278164 306.257333 778.812667 
C 302.791836 775.347169 298.090953 773.4 293.19 773.4 
C 288.289047 773.4 283.588164 775.347169 280.122667 778.812667 
C 276.657169 782.278164 274.71 786.979047 274.71 791.88 
C 274.71 796.780953 276.657169 801.481836 280.122667 804.947333 
C 283.588164 808.412831 288.289047 810.36 293.19 810.36 
z
" style="opacity:0.75;stroke:#000000;stroke-linejoin:miter;"/>
   </g>
   <g id="patch_7">
    <path clip-path="url(#p825ada1951)" d="M 283.95 708.72 
C 288.850953 708.72 293.551836 706.772831 297.017333 703.307333 
C 300.482831 699.841836 302.43 695.140953 302.43 690.24 
C 302.43 685.339047 300.482831 680.638164 297.017333 677.172667 
C 293.551836 673.707169 288.850953 671.76 283.95 671.76 
C 279.049047 671.76 274.348164 673.707169 270.882667 677.172667 
C 267.417169 680.638164 265.47 685.339047 265.47 690.24 
C 265.47 695.140953 267.417169 699.841836 270.882667 703.307333 
C 274.348164 706.772831 279.049047 708.72 283.95 708.72 
z
" style="opacity:0.75;stroke:#000000;stroke-linejoin:miter;"/>
   </g>
   <g id="patch_8">
    <path clip-path="url(#p825ada1951)" d="M 353.25 653.28 
C 358.150953 653.28 362.851836 651.332831 366.317333 647.867333 
C 369.782831 644.401836 371.73 639.700953 371.73 634.8 
C 371.73 629.899047 369.782831 625.198164 366.317333 621.732667 
C 362.851836 618.267169 358.150953 616.32 353.25 616.32 
C 348.349047 616.32 343.648164 618.267169 340.182667 621.732667 
C 336.717169 625.198164 334.77 629.899047 334.77 634.8 
C 334.77 639.700953 336.717169 644.401836 340.182667 647.867333 
C 343.648164 651.332831 348.349047 653.28 353.25 653.28 
z
" style="opacity:0.75;stroke:#000000;stroke-linejoin:miter;"/>
   </g>
   <g id="patch_9">
    <path clip-path="url(#p825ada1951)" d="M 385.59 745.68 
C 390.490953 745.68 395.191836 743.732831 398.657333 740.267333 
C 402.122831 736.801836 404.07 732.100953 404.07 727.2 
C 404.07 722.299047 402.122831 717.598164 398.657333 714.132667 
C 395.191836 710.667169 390.490953 708.72 385.59 708.72 
C 380.689047 708.72 375.988164 710.667169 372.522667 714.132667 
C 369.057169 717.598164 367.11 722.299047 367.11 727.2 
C 367.11 732.100953 369.057169 736.801836 372.522667 740.267333 
C 375.988164 743.732831 380.689047 745.68 385.59 745.68 
z
" style="fill:#ff00ff;opacity:0.5;stroke:#ff00ff;stroke-linejoin:miter;"/>
   </g>
   <g id="patch_10">
    <path clip-path="url(#p825ada1951)" d="M 413.31 907.38 
C 424.337145 907.38 434.914131 902.998869 442.7115 895.2015 
C 450.508869 887.404131 454.89 876.827145 454.89 865.8 
C 454.89 854.772855 450.508869 844.195869 442.7115 836.3985 
C 434.914131 828.601131 424.337145 824.22 413.31 824.22 
C 402.282855 824.22 391.705869 828.601131 383.9085 836.3985 
C 376.111131 844.195869 371.73 854.772855 371.73 865.8 
C 371.73 876.827145 376.111131 887.404131 383.9085 895.2015 
C 391.705869 902.998869 402.282855 907.38 413.31 907.38 
z
" style="opacity:0.75;stroke:#000000;stroke-linejoin:miter;"/>
   </g>
   <g id="patch_11">
    <path clip-path="url(#p825ada1951)" d="M 514.95 801.12 
C 522.30143 801.12 529.352754 798.199246 534.551 793.001 
C 539.749246 787.802754 542.67 780.75143 542.67 773.4 
C 542.67 766.04857 539.749246 758.997246 534.551 753.799 
C 529.352754 748.600754 522.30143 745.68 514.95 745.68 
C 507.59857 745.68 500.547246 748.600754 495.349 753.799 
C 490.150754 758.997246 487.23 766.04857 487.23 773.4 
C 487.23 780.75143 490.150754 787.802754 495.349 793.001 
C 500.547246 798.199246 507.59857 801.12 514.95 801.12 
z
" style="opacity:0.75;stroke:#000000;stroke-linejoin:miter;"/>
   </g>
   <g id="patch_12">
    <path clip-path="url(#p825ada1951)" d="M 390.21 662.52 
C 397.56143 662.52 404.612754 659.599246 409.811 654.401 
C 415.009246 649.202754 417.93 642.15143 417.93 634.8 
C 417.93 627.44857 415.009246 620.397246 409.811 615.199 
C 404.612754 610.000754 397.56143 607.08 390.21 607.08 
C 382.85857 607.08 375.807246 610.000754 370.609 615.199 
C 365.410754 620.397246 362.49 627.44857 362.49 634.8 
C 362.49 642.15143 365.410754 649.202754 370.609 654.401 
C 375.807246 659.599246 382.85857 662.52 390.21 662.52 
z
" style="opacity:0.75;stroke:#000000;stroke-linejoin:miter;"/>
   </g>
   <g id="patch_13">
    <path clip-path="url(#p825ada1951)" d="M 293.19 810.36 
C 298.090953 810.36 302.791836 808.412831 306.257333 804.947333 
C 309.722831 801.481836 311.67 796.780953 311.67 791.88 
C 311.67 786.979047 309.722831 782.278164 306.257333 778.812667 
C 302.791836 775.347169 298.090953 773.4 293.19 773.4 
C 288.289047 773.4 283.588164 775.347169 280.122667 778.812667 
C 276.657169 782.278164 274.71 786.979047 274.71 791.88 
C 274.71 796.780953 276.657169 801.481836 280.122667 804.947333 
C 283.588164 808.412831 288.289047 810.36 293.19 810.36 
z
" style="opacity:0.75;stroke:#000000;stroke-linejoin:miter;"/>
   </g>
   <g id="patch_14">
    <path clip-path="url(#p825ada1951)" d="M 283.95 708.72 
C 288.850953 708.72 293.551836 706.772831 297.017333 703.307333 
C 300.482831 699.841836 302.43 695.140953 302.43 690.24 
C 302.43 685.339047 300.482831 680.638164 297.017333 677.172667 
C 293.551836 673.707169 288.850953 671.76 283.95 671.76 
C 279.049047 671.76 274.348164 673.707169 270.882667 677.172667 
C 267.417169 680.638164 265.47 685.339047 265.47 690.24 
C 265.47 695.140953 267.417169 699.841836 270.882667 703.307333 
C 274.348164 706.772831 279.049047 708.72 283.95 708.72 
z
" style="opacity:0.75;stroke:#000000;stroke-linejoin:miter;"/>
   </g>
   <g id="patch_15">
    <path clip-path="url(#p825ada1951)" d="M 353.25 653.28 
C 358.150953 653.28 362.851836 651.332831 366.317333 647.867333 
C 369.782831 644.401836 371.73 639.700953 371.73 634.8 
C 371.73 629.899047 369.782831 625.198164 366.317333 621.732667 
C 362.851836 618.267169 358.150953 616.32 353.25 616.32 
C 348.349047 616.32 343.648164 618.267169 340.182667 621.732667 
C 336.717169 625.198164 334.77 629.899047 334.77 634.8 
C 334.77 639.700953 336.717169 644.401836 340.182667 647.867333 
C 343.648164 651.332831 348.349047 653.28 353.25 653.28 
z
" style="opacity:0.75;stroke:#000000;stroke-linejoin:miter;"/>
   </g>
   <g id="patch_16">
    <path clip-path="url(#p825ada1951)" d="M 385.59 745.68 
C 390.490953 745.68 395.191836 743.732831 398.657333 740.267333 
C 402.122831 736.801836 404.07 732.100953 404.07 727.2 
C 404.07 722.299047 402.122831 717.598164 398.657333 714.132667 
C 395.191836 710.667169 390.490953 708.72 385.59 708.72 
C 380.689047 708.72 375.988164 710.667169 372.522667 714.132667 
C 369.057169 717.598164 367.11 722.299047 367.11 727.2 
C 367.11 732.100953 369.057169 736.801836 372.522667 740.267333 
C 375.988164 743.732831 380.689047 745.68 385.59 745.68 
z
" style="fill:#ff00ff;opacity:0.5;stroke:#ff00ff;stroke-linejoin:miter;"/>
   </g>
   <g id="patch_17">
    <path clip-path="url(#p825ada1951)" d="M 413.31 907.38 
C 424.337145 907.38 434.914131 902.998869 442.7115 895.2015 
C 450.508869 887.404131 454.89 876.827145 454.89 865.8 
C 454.89 854.772855 450.508869 844.195869 442.7115 836.3985 
C 434.914131 828.601131 424.337145 824.22 413.31 824.22 
C 402.282855 824.22 391.705869 828.601131 383.9085 836.3985 
C 376.111131 844.195869 371.73 854.772855 371.73 865.8 
C 371.73 876.827145 376.111131 887.404131 383.9085 895.2015 
C 391.705869 902.998869 402.282855 907.38 413.31 907.38 
z
" style="opacity:0.75;stroke:#000000;stroke-linejoin:miter;"/>
   </g>
   <g id="patch_18">
    <path clip-path="url(#p825ada1951)" d="M 514.95 801.12 
C 522.30143 801.12 529.352754 798.199246 534.551 793.001 
C 539.749246 787.802754 542.67 780.75143 542.67 773.4 
C 542.67 766.04857 539.749246 758.997246 534.551 753.799 
C 529.352754 748.600754 522.30143 745.68 514.95 745.68 
C 507.59857 745.68 500.547246 748.600754 495.349 753.799 
C 490.150754 758.997246 487.23 766.04857 487.23 773.4 
C 487.23 780.75143 490.150754 787.802754 495.349 793.001 
C 500.547246 798.199246 507.59857 801.12 514.95 801.12 
z
" style="opacity:0.75;stroke:#000000;stroke-linejoin:miter;"/>
   </g>
   <g id="patch_19">
    <path clip-path="url(#p825ada1951)" d="M 390.21 662.52 
C 397.56143 662.52 404.612754 659.599246 409.811 654.401 
C 415.009246 649.202754 417.93 642.15143 417.93 634.8 
C 417.93 627.44857 415.009246 620.397246 409.811 615.199 
C 404.612754 610.000754 397.56143 607.08 390.21 607.08 
C 382.85857 607.08 375.807246 610.000754 370.609 615.199 
C 365.410754 620.397246 362.49 627.44857 362.49 634.8 
C 362.49 642.15143 365.410754 649.202754 370.609 654.401 
C 375.807246 659.599246 382.85857 662.52 390.21 662.52 
z
" style="opacity:0.75;stroke:#000000;stroke-linejoin:miter;"/>
   </g>
   <g id="patch_20">
    <path clip-path="url(#p825ada1951)" d="M 293.19 810.36 
C 298.090953 810.36 302.791836 808.412831 306.257333 804.947333 
C 309.722831 801.481836 311.67 796.780953 311.67 791.88 
C 311.67 786.979047 309.722831 782.278164 306.257333 778.812667 
C 302.791836 775.347169 298.090953 773.4 293.19 773.4 
C 288.289047 773.4 283.588164 775.347169 280.122667 778.812667 
C 276.657169 782.278164 274.71 786.979047 274.71 791.88 
C 274.71 796.780953 276.657169 801.481836 280.122667 804.947333 
C 283.588164 808.412831 288.289047 810.36 293.19 810.36 
z
" style="opacity:0.75;stroke:#000000;stroke-linejoin:miter;"/>
   </g>
   <g id="patch_21">
    <path clip-path="url(#p825ada1951)" d="M 283.95 708.72 
C 288.850953 708.72 293.551836 706.772831 297.017333 703.307333 
C 300.482831 699.841836 302.43 695.140953 302.43 690.24 
C 302.43 685.339047 300.482831 680.638164 297.017333 677.172667 
C 293.551836 673.707169 288.850953 671.76 283.95 671.76 
C 279.049047 671.76 274.348164 673.707169 270.882667 677.172667 
C 267.417169 680.638164 265.47 685.339047 265.47 690.24 
C 265.47 695.140953 267.417169 699.841836 270.882667 703.307333 
C 274.348164 706.772831 279.049047 708.72 283.95 708.72 
z
" style="opacity:0.75;stroke:#000000;stroke-linejoin:miter;"/>
   </g>
   <g id="patch_22">
    <path clip-path="url(#p825ada1951)" d="M 353.25 653.28 
C 358.150953 653.28 362.851836 651.332831 366.317333 647.867333 
C 369.782831 644.401836 371.73 639.700953 371.73 634.8 
C 371.73 629.899047 369.782831 625.198164 366.317333 621.732667 
C 362.851836 618.267169 358.150953 616.32 353.25 616.32 
C 348.349047 616.32 343.648164 618.267169 340.182667 621.732667 
C 336.717169 625.198164 334.77 629.899047 334.77 634.8 
C 334.77 639.700953 336.717169 644.401836 340.182667 647.867333 
C 343.648164 651.332831 348.349047 653.28 353.25 653.28 
z
" style="opacity:0.75;stroke:#000000;stroke-linejoin:miter;"/>
   </g>
   <g id="patch_23">
    <path clip-path="url(#p825ada1951)" d="M 385.59 745.68 
C 390.490953 745.68 395.191836 743.732831 398.657333 740.267333 
C 402.122831 736.801836 404.07 732.100953 404.07 727.2 
C 404.07 722.299047 402.122831 717.598164 398.657333 714.132667 
C 395.191836 710.667169 390.490953 708.72 385.59 708.72 
C 380.689047 708.72 375.988164 710.667169 372.522667 714.132667 
C 369.057169 717.598164 367.11 722.299047 367.11 727.2 
C 367.11 732.100953 369.057169 736.801836 372.522667 740.267333 
C 375.988164 743.732831 380.689047 745.68 385.59 745.68 
z
" style="fill:#ff00ff;opacity:0.5;stroke:#ff00ff;stroke-linejoin:miter;"/>
   </g>
   <g id="patch_24">
    <path clip-path="url(#p825ada1951)" d="M 413.31 907.38 
C 424.337145 907.38 434.914131 902.998869 442.7115 895.2015 
C 450.508869 887.404131 454.89 876.827145 454.89 865.8 
C 454.89 854.772855 450.508869 844.195869 442.7115 836.3985 
C 434.914131 828.601131 424.337145 824.22 413.31 824.22 
C 402.282855 824.22 391.705869 828.601131 383.9085 836.3985 
C 376.111131 844.195869 371.73 854.772855 371.73 865.8 
C 371.73 876.827145 376.111131 887.404131 383.9085 895.2015 
C 391.705869 902.998869 402.282855 907.38 413.31 907.38 
z
" style="opacity:0.75;stroke:#000000;stroke-linejoin:miter;"/>
   </g>
   <g id="patch_25">
    <path clip-path="url(#p825ada1951)" d="M 514.95 801.12 
C 522.30143 801.12 529.352754 798.199246 534.551 793.001 
C 539.749246 787.802754 542.67 780.75143 542.67 773.4 
C 542.67 766.04857 539.749246 758.997246 534.551 753.799 
C 529.352754 748.600754 522.30143 745.68 514.95 745.68 
C 507.59857 745.68 500.547246 748.600754 495.349 753.799 
C 490.150754 758.997246 487.23 766.04857 487.23 773.4 
C 487.23 780.75143 490.150754 787.802754 495.349 793.001 
C 500.547246 798.199246 507.59857 801.12 514.95 801.12 
z
" style="opacity:0.75;stroke:#000000;stroke-linejoin:miter;"/>
   </g>
   <g id="patch_26">
    <path clip-path="url(#p825ada1951)" d="M 390.21 662.52 
C 397.56143 662.52 404.612754 659.599246 409.811 654.401 
C 415.009246 649.202754 417.93 642.15143 417.93 634.8 
C 417.93 627.44857 415.009246 620.397246 409.811 615.199 
C 404.612754 610.000754 397.56143 607.08 390.21 607.08 
C 382.85857 607.08 375.807246 610.000754 370.609 615.199 
C 365.410754 620.397246 362.49 627.44857 362.49 634.8 
C 362.49 642.15143 365.410754 649.202754 370.609 654.401 
C 375.807246 659.599246 382.85857 662.52 390.21 662.52 
z
" style="opacity:0.75;stroke:#000000;stroke-linejoin:miter;"/>
   </g>
   <g id="patch_27">
    <path clip-path="url(#p825ada1951)" d="M 293.19 810.36 
C 298.090953 810.36 302.791836 808.412831 306.257333 804.947333 
C 309.722831 801.481836 311.67 796.780953 311.67 791.88 
C 311.67 786.979047 309.722831 782.278164 306.257333 778.812667 
C 302.791836 775.347169 298.090953 773.4 293.19 773.4 
C 288.289047 773.4 283.588164 775.347169 280.122667 778.812667 
C 276.657169 782.278164 274.71 786.979047 274.71 791.88 
C 274.71 796.780953 276.657169 801.481836 280.122667 804.947333 
C 283.588164 808.412831 288.289047 810.36 293.19 810.36 
z
" style="opacity:0.75;stroke:#000000;stroke-linejoin:miter;"/>
   </g>
   <g id="patch_28">
    <path clip-path="url(#p825ada1951)" d="M 283.95 708.72 
C 288.850953 708.72 293.551836 706.772831 297.017333 703.307333 
C 300.482831 699.841836 302.43 695.140953 302.43 690.24 
C 302.43 685.339047 300.482831 680.638164 297.017333 677.172667 
C 293.551836 673.707169 288.850953 671.76 283.95 671.76 
C 279.049047 671.76 274.348164 673.707169 270.882667 677.172667 
C 267.417169 680.638164 265.47 685.339047 265.47 690.24 
C 265.47 695.140953 267.417169 699.841836 270.882667 703.307333 
C 274.348164 706.772831 279.049047 708.72 283.95 708.72 
z
" style="opacity:0.75;stroke:#000000;stroke-linejoin:miter;"/>
   </g>
   <g id="patch_29">
    <path clip-path="url(#p825ada1951)" d="M 353.25 653.28 
C 358.150953 653.28 362.851836 651.332831 366.317333 647.867333 
C 369.782831 644.401836 371.73 639.700953 371.73 634.8 
C 371.73 629.899047 369.782831 625.198164 366.317333 621.732667 
C 362.851836 618.267169 358.150953 616.32 353.25 616.32 
C 348.349047 616.32 343.648164 618.267169 340.182667 621.732667 
C 336.717169 625.198164 334.77 629.899047 334.77 634.8 
C 334.77 639.700953 336.717169 644.401836 340.182667 647.867333 
C 343.648164 651.332831 348.349047 653.28 353.25 653.28 
z
" style="opacity:0.75;stroke:#000000;stroke-linejoin:miter;"/>
   </g>
   <g id="patch_30">
    <path clip-path="url(#p825ada1951)" d="M 385.59 745.68 
C 390.490953 745.68 395.191836 743.732831 398.657333 740.267333 
C 402.122831 736.801836 404.07 732.100953 404.07 727.2 
C 404.07 722.299047 402.122831 717.598164 398.657333 714.132667 
C 395.191836 710.667169 390.490953 708.72 385.59 708.72 
C 380.689047 708.72 375.988164 710.667169 372.522667 714.132667 
C 369.057169 717.598164 367.11 722.299047 367.11 727.2 
C 367.11 732.100953 369.057169 736.801836 372.522667 740.267333 
C 375.988164 743.732831 380.689047 745.68 385.59 745.68 
z
" style="fill:#ff00ff;opacity:0.5;stroke:#ff00ff;stroke-linejoin:miter;"/>
   </g>
   <g id="patch_31">
    <path clip-path="url(#p825ada1951)" d="M 413.31 907.38 
C 424.337145 907.38 434.914131 902.998869 442.7115 895.2015 
C 450.508869 887.404131 454.89 876.827145 454.89 865.8 
C 454.89 854.772855 450.508869 844.195869 442.7115 836.3985 
C 434.914131 828.601131 424.337145 824.22 413.31 824.22 
C 402.282855 824.22 391.705869 828.601131 383.9085 836.3985 
C 376.111131 844.195869 371.73 854.772855 371.73 865.8 
C 371.73 876.827145 376.111131 887.404131 383.9085 895.2015 
C 391.705869 902.998869 402.282855 907.38 413.31 907.38 
z
" style="opacity:0.75;stroke:#000000;stroke-linejoin:miter;"/>
   </g>
   <g id="patch_32">
    <path clip-path="url(#p825ada1951)" d="M 514.95 801.12 
C 522.30143 801.12 529.352754 798.199246 534.551 793.001 
C 539.749246 787.802754 542.67 780.75143 542.67 773.4 
C 542.67 766.04857 539.749246 758.997246 534.551 753.799 
C 529.352754 748.600754 522.30143 745.68 514.95 745.68 
C 507.59857 745.68 500.547246 748.600754 495.349 753.799 
C 490.150754 758.997246 487.23 766.04857 487.23 773.4 
C 487.23 780.75143 490.150754 787.802754 495.349 793.001 
C 500.547246 798.199246 507.59857 801.12 514.95 801.12 
z
" style="opacity:0.75;stroke:#000000;stroke-linejoin:miter;"/>
   </g>
   <g id="patch_33">
    <path clip-path="url(#p825ada1951)" d="M 390.21 662.52 
C 397.56143 662.52 404.612754 659.599246 409.811 654.401 
C 415.009246 649.202754 417.93 642.15143 417.93 634.8 
C 417.93 627.44857 415.009246 620.397246 409.811 615.199 
C 404.612754 610.000754 397.56143 607.08 390.21 607.08 
C 382.85857 607.08 375.807246 610.000754 370.609 615.199 
C 365.410754 620.397246 362.49 627.44857 362.49 634.8 
C 362.49 642.15143 365.410754 649.202754 370.609 654.401 
C 375.807246 659.599246 382.85857 662.52 390.21 662.52 
z
" style="opacity:0.75;stroke:#000000;stroke-linejoin:miter;"/>
   </g>
   <g id="patch_34">
    <path clip-path="url(#p825ada1951)" d="M 293.19 810.36 
C 298.090953 810.36 302.791836 808.412831 306.257333 804.947333 
C 309.722831 801.481836 311.67 796.780953 311.67 791.88 
C 311.67 786.979047 309.722831 782.278164 306.257333 778.812667 
C 302.791836 775.347169 298.090953 773.4 293.19 773.4 
C 288.289047 773.4 283.588164 775.347169 280.122667 778.812667 
C 276.657169 782.278164 274.71 786.979047 274.71 791.88 
C 274.71 796.780953 276.657169 801.481836 280.122667 804.947333 
C 283.588164 808.412831 288.289047 810.36 293.19 810.36 
z
" style="opacity:0.75;stroke:#000000;stroke-linejoin:miter;"/>
   </g>
   <g id="patch_35">
    <path clip-path="url(#p825ada1951)" d="M 283.95 708.72 
C 288.850953 708.72 293.551836 706.772831 297.017333 703.307333 
C 300.482831 699.841836 302.43 695.140953 302.43 690.24 
C 302.43 685.339047 300.482831 680.638164 297.017333 677.172667 
C 293.551836 673.707169 288.850953 671.76 283.95 671.76 
C 279.049047 671.76 274.348164 673.707169 270.882667 677.172667 
C 267.417169 680.638164 265.47 685.339047 265.47 690.24 
C 265.47 695.140953 267.417169 699.841836 270.882667 703.307333 
C 274.348164 706.772831 279.049047 708.72 283.95 708.72 
z
" style="opacity:0.75;stroke:#000000;stroke-linejoin:miter;"/>
   </g>
   <g id="patch_36">
    <path clip-path="url(#p825ada1951)" d="M 353.25 653.28 
C 358.150953 653.28 362.851836 651.332831 366.317333 647.867333 
C 369.782831 644.401836 371.73 639.700953 371.73 634.8 
C 371.73 629.899047 369.782831 625.198164 366.317333 621.732667 
C 362.851836 618.267169 358.150953 616.32 353.25 616.32 
C 348.349047 616.32 343.648164 618.267169 340.182667 621.732667 
C 336.717169 625.198164 334.77 629.899047 334.77 634.8 
C 334.77 639.700953 336.717169 644.401836 340.182667 647.867333 
C 343.648164 651.332831 348.349047 653.28 353.25 653.28 
z
" style="opacity:0.75;stroke:#000000;stroke-linejoin:miter;"/>
   </g>
   <g id="patch_37">
    <path clip-path="url(#p825ada1951)" d="M 385.59 745.68 
C 390.490953 745.68 395.191836 743.732831 398.657333 740.267333 
C 402.122831 736.801836 404.07 732.100953 404.07 727.2 
C 404.07 722.299047 402.122831 717.598164 398.657333 714.132667 
C 395.191836 710.667169 390.490953 708.72 385.59 708.72 
C 380.689047 708.72 375.988164 710.667169 372.522667 714.132667 
C 369.057169 717.598164 367.11 722.299047 367.11 727.2 
C 367.11 732.100953 369.057169 736.801836 372.522667 740.267333 
C 375.988164 743.732831 380.689047 745.68 385.59 745.68 
z
" style="fill:#ff00ff;opacity:0.5;stroke:#ff00ff;stroke-linejoin:miter;"/>
   </g>
   <g id="patch_38">
    <path clip-path="url(#p825ada1951)" d="M 413.31 907.38 
C 424.337145 907.38 434.914131 902.998869 442.7115 895.2015 
C 450.508869 887.404131 454.89 876.827145 454.89 865.8 
C 454.89 854.772855 450.508869 844.195869 442.7115 836.3985 
C 434.914131 828.601131 424.337145 824.22 413.31 824.22 
C 402.282855 824.22 391.705869 828.601131 383.9085 836.3985 
C 376.111131 844.195869 371.73 854.772855 371.73 865.8 
C 371.73 876.827145 376.111131 887.404131 383.9085 895.2015 
C 391.705869 902.998869 402.282855 907.38 413.31 907.38 
z
" style="opacity:0.75;stroke:#000000;stroke-linejoin:miter;"/>
   </g>
   <g id="patch_39">
    <path clip-path="url(#p825ada1951)" d="M 514.95 801.12 
C 522.30143 801.12 529.352754 798.199246 534.551 793.001 
C 539.749246 787.802754 542.67 780.75143 542.67 773.4 
C 542.67 766.04857 539.749246 758.997246 534.551 753.799 
C 529.352754 748.600754 522.30143 745.68 514.95 745.68 
C 507.59857 745.68 500.547246 748.600754 495.349 753.799 
C 490.150754 758.997246 487.23 766.04857 487.23 773.4 
C 487.23 780.75143 490.150754 787.802754 495.349 793.001 
C 500.547246 798.199246 507.59857 801.12 514.95 801.12 
z
" style="opacity:0.75;stroke:#000000;stroke-linejoin:miter;"/>
   </g>
   <g id="patch_40">
    <path clip-path="url(#p825ada1951)" d="M 390.21 662.52 
C 397.56143 662.52 404.612754 659.599246 409.811 654.401 
C 415.009246 649.202754 417.93 642.15143 417.93 634.8 
C 417.93 627.44857 415.009246 620.397246 409.811 615.199 
C 404.612754 610.000754 397.56143 607.08 390.21 607.08 
C 382.85857 607.08 375.807246 610.000754 370.609 615.199 
C 365.410754 620.397246 362.49 627.44857 362.49 634.8 
C 362.49 642.15143 365.410754 649.202754 370.609 654.401 
C 375.807246 659.599246 382.85857 662.52 390.21 662.52 
z
" style="opacity:0.75;stroke:#000000;stroke-linejoin:miter;"/>
   </g>
   <g id="patch_41">
    <path clip-path="url(#p825ada1951)" d="M 293.19 810.36 
C 298.090953 810.36 302.791836 808.412831 306.257333 804.947333 
C 309.722831 801.481836 311.67 796.780953 311.67 791.88 
C 311.67 786.979047 309.722831 782.278164 306.257333 778.812667 
C 302.791836 775.347169 298.090953 773.4 293.19 773.4 
C 288.289047 773.4 283.588164 775.347169 280.122667 778.812667 
C 276.657169 782.278164 274.71 786.979047 274.71 791.88 
C 274.71 796.780953 276.657169 801.481836 280.122667 804.947333 
C 283.588164 808.412831 288.289047 810.36 293.19 810.36 
z
" style="opacity:0.75;stroke:#000000;stroke-linejoin:miter;"/>
   </g>
   <g id="patch_42">
    <path clip-path="url(#p825ada1951)" d="M 283.95 708.72 
C 288.850953 708.72 293.551836 706.772831 297.017333 703.307333 
C 300.482831 699.841836 302.43 695.140953 302.43 690.24 
C 302.43 685.339047 300.482831 680.638164 297.017333 677.172667 
C 293.551836 673.707169 288.850953 671.76 283.95 671.76 
C 279.049047 671.76 274.348164 673.707169 270.882667 677.172667 
C 267.417169 680.638164 265.47 685.339047 265.47 690.24 
C 265.47 695.140953 267.417169 699.841836 270.882667 703.307333 
C 274.348164 706.772831 279.049047 708.72 283.95 708.72 
z
" style="opacity:0.75;stroke:#000000;stroke-linejoin:miter;"/>
   </g>
   <g id="patch_43">
    <path clip-path="url(#p825ada1951)" d="M 353.25 653.28 
C 358.150953 653.28 362.851836 651.332831 366.317333 647.867333 
C 369.782831 644.401836 371.73 639.700953 371.73 634.8 
C 371.73 629.899047 369.782831 625.198164 366.317333 621.732667 
C 362.851836 618.267169 358.150953 616.32 353.25 616.32 
C 348.349047 616.32 343.648164 618.267169 340.182667 621.732667 
C 336.717169 625.198164 334.77 629.899047 334.77 634.8 
C 334.77 639.700953 336.717169 644.401836 340.182667 647.867333 
C 343.648164 651.332831 348.349047 653.28 353.25 653.28 
z
" style="opacity:0.75;stroke:#000000;stroke-linejoin:miter;"/>
   </g>
   <g id="patch_44">
    <path clip-path="url(#p825ada1951)" d="M 385.59 745.68 
C 390.490953 745.68 395.191836 743.732831 398.657333 740.267333 
C 402.122831 736.801836 404.07 732.100953 404.07 727.2 
C 404.07 722.299047 402.122831 717.598164 398.657333 714.132667 
C 395.191836 710.667169 390.490953 708.72 385.59 708.72 
C 380.689047 708.72 375.988164 710.667169 372.522667 714.132667 
C 369.057169 717.598164 367.11 722.299047 367.11 727.2 
C 367.11 732.100953 369.057169 736.801836 372.522667 740.267333 
C 375.988164 743.732831 380.689047 745.68 385.59 745.68 
z
" style="fill:#ff00ff;opacity:0.5;stroke:#ff00ff;stroke-linejoin:miter;"/>
   </g>
   <g id="patch_45">
    <path clip-path="url(#p825ada1951)" d="M 413.31 907.38 
C 424.337145 907.38 434.914131 902.998869 442.7115 895.2015 
C 450.508869 887.404131 454.89 876.827145 454.89 865.8 
C 454.89 854.772855 450.508869 844.195869 442.7115 836.3985 
C 434.914131 828.601131 424.337145 824.22 413.31 824.22 
C 402.282855 824.22 391.705869 828.601131 383.9085 836.3985 
C 376.111131 844.195869 371.73 854.772855 371.73 865.8 
C 371.73 876.827145 376.111131 887.404131 383.9085 895.2015 
C 391.705869 902.998869 402.282855 907.38 413.31 907.38 
z
" style="opacity:0.75;stroke:#000000;stroke-linejoin:miter;"/>
   </g>
   <g id="patch_46">
    <path clip-path="url(#p825ada1951)" d="M 514.95 801.12 
C 522.30143 801.12 529.352754 798.199246 534.551 793.001 
C 539.749246 787.802754 542.67 780.75143 542.67 773.4 
C 542.67 766.04857 539.749246 758.997246 534.551 753.799 
C 529.352754 748.600754 522.30143 745.68 514.95 745.68 
C 507.59857 745.68 500.547246 748.600754 495.349 753.799 
C 490.150754 758.997246 487.23 766.04857 487.23 773.4 
C 487.23 780.75143 490.150754 787.802754 495.349 793.001 
C 500.547246 798.199246 507.59857 801.12 514.95 801.12 
z
" style="opacity:0.75;stroke:#000000;stroke-linejoin:miter;"/>
   </g>
   <g id="patch_47">
    <path clip-path="url(#p825ada1951)" d="M 390.21 662.52 
C 397.56143 662.52 404.612754 659.599246 409.811 654.401 
C 415.009246 649.202754 417.93 642.15143 417.93 634.8 
C 417.93 627.44857 415.009246 620.397246 409.811 615.199 
C 404.612754 610.000754 397.56143 607.08 390.21 607.08 
C 382.85857 607.08 375.807246 610.000754 370.609 615.199 
C 365.410754 620.397246 362.49 627.44857 362.49 634.8 
C 362.49 642.15143 365.410754 649.202754 370.609 654.401 
C 375.807246 659.599246 382.85857 662.52 390.21 662.52 
z
" style="opacity:0.75;stroke:#000000;stroke-linejoin:miter;"/>
   </g>
   <g id="patch_48">
    <path clip-path="url(#p825ada1951)" d="M 293.19 810.36 
C 298.090953 810.36 302.791836 808.412831 306.257333 804.947333 
C 309.722831 801.481836 311.67 796.780953 311.67 791.88 
C 311.67 786.979047 309.722831 782.278164 306.257333 778.812667 
C 302.791836 775.347169 298.090953 773.4 293.19 773.4 
C 288.289047 773.4 283.588164 775.347169 280.122667 778.812667 
C 276.657169 782.278164 274.71 786.979047 274.71 791.88 
C 274.71 796.780953 276.657169 801.481836 280.122667 804.947333 
C 283.588164 808.412831 288.289047 810.36 293.19 810.36 
z
" style="opacity:0.75;stroke:#000000;stroke-linejoin:miter;"/>
   </g>
   <g id="patch_49">
    <path clip-path="url(#p825ada1951)" d="M 283.95 708.72 
C 288.850953 708.72 293.551836 706.772831 297.017333 703.307333 
C 300.482831 699.841836 302.43 695.140953 302.43 690.24 
C 302.43 685.339047 300.482831 680.638164 297.017333 677.172667 
C 293.551836 673.707169 288.850953 671.76 283.95 671.76 
C 279.049047 671.76 274.348164 673.707169 270.882667 677.172667 
C 267.417169 680.638164 265.47 685.339047 265.47 690.24 
C 265.47 695.140953 267.417169 699.841836 270.882667 703.307333 
C 274.348164 706.772831 279.049047 708.72 283.95 708.72 
z
" style="opacity:0.75;stroke:#000000;stroke-linejoin:miter;"/>
   </g>
   <g id="patch_50">
    <path clip-path="url(#p825ada1951)" d="M 353.25 653.28 
C 358.150953 653.28 362.851836 651.332831 366.317333 647.867333 
C 369.782831 644.401836 371.73 639.700953 371.73 634.8 
C 371.73 629.899047 369.782831 625.198164 366.317333 621.732667 
C 362.851836 618.267169 358.150953 616.32 353.25 616.32 
C 348.349047 616.32 343.648164 618.267169 340.182667 621.732667 
C 336.717169 625.198164 334.77 629.899047 334.77 634.8 
C 334.77 639.700953 336.717169 644.401836 340.182667 647.867333 
C 343.648164 651.332831 348.349047 653.28 353.25 653.28 
z
" style="opacity:0.75;stroke:#000000;stroke-linejoin:miter;"/>
   </g>
   <g id="patch_51">
    <path clip-path="url(#p825ada1951)" d="M 385.59 745.68 
C 390.490953 745.68 395.191836 743.732831 398.657333 740.267333 
C 402.122831 736.801836 404.07 732.100953 404.07 727.2 
C 404.07 722.299047 402.122831 717.598164 398.657333 714.132667 
C 395.191836 710.667169 390.490953 708.72 385.59 708.72 
C 380.689047 708.72 375.988164 710.667169 372.522667 714.132667 
C 369.057169 717.598164 367.11 722.299047 367.11 727.2 
C 367.11 732.100953 369.057169 736.801836 372.522667 740.267333 
C 375.988164 743.732831 380.689047 745.68 385.59 745.68 
z
" style="fill:#ff00ff;opacity:0.5;stroke:#ff00ff;stroke-linejoin:miter;"/>
   </g>
   <g id="patch_52">
    <path clip-path="url(#p825ada1951)" d="M 413.31 907.38 
C 424.337145 907.38 434.914131 902.998869 442.7115 895.2015 
C 450.508869 887.404131 454.89 876.827145 454.89 865.8 
C 454.89 854.772855 450.508869 844.195869 442.7115 836.3985 
C 434.914131 828.601131 424.337145 824.22 413.31 824.22 
C 402.282855 824.22 391.705869 828.601131 383.9085 836.3985 
C 376.111131 844.195869 371.73 854.772855 371.73 865.8 
C 371.73 876.827145 376.111131 887.404131 383.9085 895.2015 
C 391.705869 902.998869 402.282855 907.38 413.31 907.38 
z
" style="opacity:0.75;stroke:#000000;stroke-linejoin:miter;"/>
   </g>
   <g id="patch_53">
    <path clip-path="url(#p825ada1951)" d="M 514.95 801.12 
C 522.30143 801.12 529.352754 798.199246 534.551 793.001 
C 539.749246 787.802754 542.67 780.75143 542.67 773.4 
C 542.67 766.04857 539.749246 758.997246 534.551 753.799 
C 529.352754 748.600754 522.30143 745.68 514.95 745.68 
C 507.59857 745.68 500.547246 748.600754 495.349 753.799 
C 490.150754 758.997246 487.23 766.04857 487.23 773.4 
C 487.23 780.75143 490.150754 787.802754 495.349 793.001 
C 500.547246 798.199246 507.59857 801.12 514.95 801.12 
z
" style="opacity:0.75;stroke:#000000;stroke-linejoin:miter;"/>
   </g>
   <g id="patch_54">
    <path clip-path="url(#p825ada1951)" d="M 390.21 662.52 
C 397.56143 662.52 404.612754 659.599246 409.811 654.401 
C 415.009246 649.202754 417.93 642.15143 417.93 634.8 
C 417.93 627.44857 415.009246 620.397246 409.811 615.199 
C 404.612754 610.000754 397.56143 607.08 390.21 607.08 
C 382.85857 607.08 375.807246 610.000754 370.609 615.199 
C 365.410754 620.397246 362.49 627.44857 362.49 634.8 
C 362.49 642.15143 365.410754 649.202754 370.609 654.401 
C 375.807246 659.599246 382.85857 662.52 390.21 662.52 
z
" style="opacity:0.75;stroke:#000000;stroke-linejoin:miter;"/>
   </g>
   <g id="patch_55">
    <path clip-path="url(#p825ada1951)" d="M 293.19 810.36 
C 298.090953 810.36 302.791836 808.412831 306.257333 804.947333 
C 309.722831 801.481836 311.67 796.780953 311.67 791.88 
C 311.67 786.979047 309.722831 782.278164 306.257333 778.812667 
C 302.791836 775.347169 298.090953 773.4 293.19 773.4 
C 288.289047 773.4 283.588164 775.347169 280.122667 778.812667 
C 276.657169 782.278164 274.71 786.979047 274.71 791.88 
C 274.71 796.780953 276.657169 801.481836 280.122667 804.947333 
C 283.588164 808.412831 288.289047 810.36 293.19 810.36 
z
" style="opacity:0.75;stroke:#000000;stroke-linejoin:miter;"/>
   </g>
   <g id="patch_56">
    <path clip-path="url(#p825ada1951)" d="M 283.95 708.72 
C 288.850953 708.72 293.551836 706.772831 297.017333 703.307333 
C 300.482831 699.841836 302.43 695.140953 302.43 690.24 
C 302.43 685.339047 300.482831 680.638164 297.017333 677.172667 
C 293.551836 673.707169 288.850953 671.76 283.95 671.76 
C 279.049047 671.76 274.348164 673.707169 270.882667 677.172667 
C 267.417169 680.638164 265.47 685.339047 265.47 690.24 
C 265.47 695.140953 267.417169 699.841836 270.882667 703.307333 
C 274.348164 706.772831 279.049047 708.72 283.95 708.72 
z
" style="opacity:0.75;stroke:#000000;stroke-linejoin:miter;"/>
   </g>
   <g id="patch_57">
    <path clip-path="url(#p825ada1951)" d="M 353.25 653.28 
C 358.150953 653.28 362.851836 651.332831 366.317333 647.867333 
C 369.782831 644.401836 371.73 639.700953 371.73 634.8 
C 371.73 629.899047 369.782831 625.198164 366.317333 621.732667 
C 362.851836 618.267169 358.150953 616.32 353.25 616.32 
C 348.349047 616.32 343.648164 618.267169 340.182667 621.732667 
C 336.717169 625.198164 334.77 629.899047 334.77 634.8 
C 334.77 639.700953 336.717169 644.401836 340.182667 647.867333 
C 343.648164 651.332831 348.349047 653.28 353.25 653.28 
z
" style="opacity:0.75;stroke:#000000;stroke-linejoin:miter;"/>
   </g>
   <g id="patch_58">
    <path clip-path="url(#p825ada1951)" d="M 385.59 745.68 
C 390.490953 745.68 395.191836 743.732831 398.657333 740.267333 
C 402.122831 736.801836 404.07 732.100953 404.07 727.2 
C 404.07 722.299047 402.122831 717.598164 398.657333 714.132667 
C 395.191836 710.667169 390.490953 708.72 385.59 708.72 
C 380.689047 708.72 375.988164 710.667169 372.522667 714.132667 
C 369.057169 717.598164 367.11 722.299047 367.11 727.2 
C 367.11 732.100953 369.057169 736.801836 372.522667 740.267333 
C 375.988164 743.732831 380.689047 745.68 385.59 745.68 
z
" style="fill:#ff00ff;opacity:0.5;stroke:#ff00ff;stroke-linejoin:miter;"/>
   </g>
   <g id="patch_59">
    <path clip-path="url(#p825ada1951)" d="M 413.31 907.38 
C 424.337145 907.38 434.914131 902.998869 442.7115 895.2015 
C 450.508869 887.404131 454.89 876.827145 454.89 865.8 
C 454.89 854.772855 450.508869 844.195869 442.7115 836.3985 
C 434.914131 828.601131 424.337145 824.22 413.31 824.22 
C 402.282855 824.22 391.705869 828.601131 383.9085 836.3985 
C 376.111131 844.195869 371.73 854.772855 371.73 865.8 
C 371.73 876.827145 376.111131 887.404131 383.9085 895.2015 
C 391.705869 902.998869 402.282855 907.38 413.31 907.38 
z
" style="opacity:0.75;stroke:#000000;stroke-linejoin:miter;"/>
   </g>
   <g id="patch_60">
    <path clip-path="url(#p825ada1951)" d="M 514.95 801.12 
C 522.30143 801.12 529.352754 798.199246 534.551 793.001 
C 539.749246 787.802754 542.67 780.75143 542.67 773.4 
C 542.67 766.04857 539.749246 758.997246 534.551 753.799 
C 529.352754 748.600754 522.30143 745.68 514.95 745.68 
C 507.59857 745.68 500.547246 748.600754 495.349 753.799 
C 490.150754 758.997246 487.23 766.04857 487.23 773.4 
C 487.23 780.75143 490.150754 787.802754 495.349 793.001 
C 500.547246 798.199246 507.59857 801.12 514.95 801.12 
z
" style="opacity:0.75;stroke:#000000;stroke-linejoin:miter;"/>
   </g>
   <g id="patch_61">
    <path clip-path="url(#p825ada1951)" d="M 390.21 662.52 
C 397.56143 662.52 404.612754 659.599246 409.811 654.401 
C 415.009246 649.202754 417.93 642.15143 417.93 634.8 
C 417.93 627.44857 415.009246 620.397246 409.811 615.199 
C 404.612754 610.000754 397.56143 607.08 390.21 607.08 
C 382.85857 607.08 375.807246 610.000754 370.609 615.199 
C 365.410754 620.397246 362.49 627.44857 362.49 634.8 
C 362.49 642.15143 365.410754 649.202754 370.609 654.401 
C 375.807246 659.599246 382.85857 662.52 390.21 662.52 
z
" style="opacity:0.75;stroke:#000000;stroke-linejoin:miter;"/>
   </g>
   <g id="patch_62">
    <path clip-path="url(#p825ada1951)" d="M 293.19 810.36 
C 298.090953 810.36 302.791836 808.412831 306.257333 804.947333 
C 309.722831 801.481836 311.67 796.780953 311.67 791.88 
C 311.67 786.979047 309.722831 782.278164 306.257333 778.812667 
C 302.791836 775.347169 298.090953 773.4 293.19 773.4 
C 288.289047 773.4 283.588164 775.347169 280.122667 778.812667 
C 276.657169 782.278164 274.71 786.979047 274.71 791.88 
C 274.71 796.780953 276.657169 801.481836 280.122667 804.947333 
C 283.588164 808.412831 288.289047 810.36 293.19 810.36 
z
" style="opacity:0.75;stroke:#000000;stroke-linejoin:miter;"/>
   </g>
   <g id="patch_63">
    <path clip-path="url(#p825ada1951)" d="M 283.95 708.72 
C 288.850953 708.72 293.551836 706.772831 297.017333 703.307333 
C 300.482831 699.841836 302.43 695.140953 302.43 690.24 
C 302.43 685.339047 300.482831 680.638164 297.017333 677.172667 
C 293.551836 673.707169 288.850953 671.76 283.95 671.76 
C 279.049047 671.76 274.348164 673.707169 270.882667 677.172667 
C 267.417169 680.638164 265.47 685.339047 265.47 690.24 
C 265.47 695.140953 267.417169 699.841836 270.882667 703.307333 
C 274.348164 706.772831 279.049047 708.72 283.95 708.72 
z
" style="opacity:0.75;stroke:#000000;stroke-linejoin:miter;"/>
   </g>
   <g id="patch_64">
    <path clip-path="url(#p825ada1951)" d="M 353.25 653.28 
C 358.150953 653.28 362.851836 651.332831 366.317333 647.867333 
C 369.782831 644.401836 371.73 639.700953 371.73 634.8 
C 371.73 629.899047 369.782831 625.198164 366.317333 621.732667 
C 362.851836 618.267169 358.150953 616.32 353.25 616.32 
C 348.349047 616.32 343.648164 618.267169 340.182667 621.732667 
C 336.717169 625.198164 334.77 629.899047 334.77 634.8 
C 334.77 639.700953 336.717169 644.401836 340.182667 647.867333 
C 343.648164 651.332831 348.349047 653.28 353.25 653.28 
z
" style="opacity:0.75;stroke:#000000;stroke-linejoin:miter;"/>
   </g>
   <g id="patch_65">
    <path clip-path="url(#p825ada1951)" d="M 385.59 745.68 
C 390.490953 745.68 395.191836 743.732831 398.657333 740.267333 
C 402.122831 736.801836 404.07 732.100953 404.07 727.2 
C 404.07 722.299047 402.122831 717.598164 398.657333 714.132667 
C 395.191836 710.667169 390.490953 708.72 385.59 708.72 
C 380.689047 708.72 375.988164 710.667169 372.522667 714.132667 
C 369.057169 717.598164 367.11 722.299047 367.11 727.2 
C 367.11 732.100953 369.057169 736.801836 372.522667 740.267333 
C 375.988164 743.732831 380.689047 745.68 385.59 745.68 
z
" style="fill:#ff00ff;opacity:0.5;stroke:#ff00ff;stroke-linejoin:miter;"/>
   </g>
   <g id="patch_66">
    <path clip-path="url(#p825ada1951)" d="M 413.31 907.38 
C 424.337145 907.38 434.914131 902.998869 442.7115 895.2015 
C 450.508869 887.404131 454.89 876.827145 454.89 865.8 
C 454.89 854.772855 450.508869 844.195869 442.7115 836.3985 
C 434.914131 828.601131 424.337145 824.22 413.31 824.22 
C 402.282855 824.22 391.705869 828.601131 383.9085 836.3985 
C 376.111131 844.195869 371.73 854.772855 371.73 865.8 
C 371.73 876.827145 376.111131 887.404131 383.9085 895.2015 
C 391.705869 902.998869 402.282855 907.38 413.31 907.38 
z
" style="opacity:0.75;stroke:#000000;stroke-linejoin:miter;"/>
   </g>
   <g id="patch_67">
    <path clip-path="url(#p825ada1951)" d="M 514.95 801.12 
C 522.30143 801.12 529.352754 798.199246 534.551 793.001 
C 539.749246 787.802754 542.67 780.75143 542.67 773.4 
C 542.67 766.04857 539.749246 758.997246 534.551 753.799 
C 529.352754 748.600754 522.30143 745.68 514.95 745.68 
C 507.59857 745.68 500.547246 748.600754 495.349 753.799 
C 490.150754 758.997246 487.23 766.04857 487.23 773.4 
C 487.23 780.75143 490.150754 787.802754 495.349 793.001 
C 500.547246 798.199246 507.59857 801.12 514.95 801.12 
z
" style="opacity:0.75;stroke:#000000;stroke-linejoin:miter;"/>
   </g>
   <g id="patch_68">
    <path clip-path="url(#p825ada1951)" d="M 390.21 662.52 
C 397.56143 662.52 404.612754 659.599246 409.811 654.401 
C 415.009246 649.202754 417.93 642.15143 417.93 634.8 
C 417.93 627.44857 415.009246 620.397246 409.811 615.199 
C 404.612754 610.000754 397.56143 607.08 390.21 607.08 
C 382.85857 607.08 375.807246 610.000754 370.609 615.199 
C 365.410754 620.397246 362.49 627.44857 362.49 634.8 
C 362.49 642.15143 365.410754 649.202754 370.609 654.401 
C 375.807246 659.599246 382.85857 662.52 390.21 662.52 
z
" style="opacity:0.75;stroke:#000000;stroke-linejoin:miter;"/>
   </g>
   <g id="patch_69">
    <path clip-path="url(#p825ada1951)" d="M 293.19 810.36 
C 298.090953 810.36 302.791836 808.412831 306.257333 804.947333 
C 309.722831 801.481836 311.67 796.780953 311.67 791.88 
C 311.67 786.979047 309.722831 782.278164 306.257333 778.812667 
C 302.791836 775.347169 298.090953 773.4 293.19 773.4 
C 288.289047 773.4 283.588164 775.347169 280.122667 778.812667 
C 276.657169 782.278164 274.71 786.979047 274.71 791.88 
C 274.71 796.780953 276.657169 801.481836 280.122667 804.947333 
C 283.588164 808.412831 288.289047 810.36 293.19 810.36 
z
" style="opacity:0.75;stroke:#000000;stroke-linejoin:miter;"/>
   </g>
   <g id="patch_70">
    <path clip-path="url(#p825ada1951)" d="M 283.95 708.72 
C 288.850953 708.72 293.551836 706.772831 297.017333 703.307333 
C 300.482831 699.841836 302.43 695.140953 302.43 690.24 
C 302.43 685.339047 300.482831 680.638164 297.017333 677.172667 
C 293.551836 673.707169 288.850953 671.76 283.95 671.76 
C 279.049047 671.76 274.348164 673.707169 270.882667 677.172667 
C 267.417169 680.638164 265.47 685.339047 265.47 690.24 
C 265.47 695.140953 267.417169 699.841836 270.882667 703.307333 
C 274.348164 706.772831 279.049047 708.72 283.95 708.72 
z
" style="opacity:0.75;stroke:#000000;stroke-linejoin:miter;"/>
   </g>
   <g id="patch_71">
    <path clip-path="url(#p825ada1951)" d="M 353.25 653.28 
C 358.150953 653.28 362.851836 651.332831 366.317333 647.867333 
C 369.782831 644.401836 371.73 639.700953 371.73 634.8 
C 371.73 629.899047 369.782831 625.198164 366.317333 621.732667 
C 362.851836 618.267169 358.150953 616.32 353.25 616.32 
C 348.349047 616.32 343.648164 618.267169 340.182667 621.732667 
C 336.717169 625.198164 334.77 629.899047 334.77 634.8 
C 334.77 639.700953 336.717169 644.401836 340.182667 647.867333 
C 343.648164 651.332831 348.349047 653.28 353.25 653.28 
z
" style="opacity:0.75;stroke:#000000;stroke-linejoin:miter;"/>
   </g>
   <g id="patch_72">
    <path clip-path="url(#p825ada1951)" d="M 385.59 745.68 
C 390.490953 745.68 395.191836 743.732831 398.657333 740.267333 
C 402.122831 736.801836 404.07 732.100953 404.07 727.2 
C 404.07 722.299047 402.122831 717.598164 398.657333 714.132667 
C 395.191836 710.667169 390.490953 708.72 385.59 708.72 
C 380.689047 708.72 375.988164 710.667169 372.522667 714.132667 
C 369.057169 717.598164 367.11 722.299047 367.11 727.2 
C 367.11 732.100953 369.057169 736.801836 372.522667 740.267333 
C 375.988164 743.732831 380.689047 745.68 385.59 745.68 
z
" style="fill:#ff00ff;opacity:0.5;stroke:#ff00ff;stroke-linejoin:miter;"/>
   </g>
   <g id="patch_73">
    <path clip-path="url(#p825ada1951)" d="M 413.31 907.38 
C 424.337145 907.38 434.914131 902.998869 442.7115 895.2015 
C 450.508869 887.404131 454.89 876.827145 454.89 865.8 
C 454.89 854.772855 450.508869 844.195869 442.7115 836.3985 
C 434.914131 828.601131 424.337145 824.22 413.31 824.22 
C 402.282855 824.22 391.705869 828.601131 383.9085 836.3985 
C 376.111131 844.195869 371.73 854.772855 371.73 865.8 
C 371.73 876.827145 376.111131 887.404131 383.9085 895.2015 
C 391.705869 902.998869 402.282855 907.38 413.31 907.38 
z
" style="opacity:0.75;stroke:#000000;stroke-linejoin:miter;"/>
   </g>
   <g id="patch_74">
    <path clip-path="url(#p825ada1951)" d="M 514.95 801.12 
C 522.30143 801.12 529.352754 798.199246 534.551 793.001 
C 539.749246 787.802754 542.67 780.75143 542.67 773.4 
C 542.67 766.04857 539.749246 758.997246 534.551 753.799 
C 529.352754 748.600754 522.30143 745.68 514.95 745.68 
C 507.59857 745.68 500.547246 748.600754 495.349 753.799 
C 490.150754 758.997246 487.23 766.04857 487.23 773.4 
C 487.23 780.75143 490.150754 787.802754 495.349 793.001 
C 500.547246 798.199246 507.59857 801.12 514.95 801.12 
z
" style="opacity:0.75;stroke:#000000;stroke-linejoin:miter;"/>
   </g>
   <g id="patch_75">
    <path clip-path="url(#p825ada1951)" d="M 390.21 662.52 
C 397.56143 662.52 404.612754 659.599246 409.811 654.401 
C 415.009246 649.202754 417.93 642.15143 417.93 634.8 
C 417.93 627.44857 415.009246 620.397246 409.811 615.199 
C 404.612754 610.000754 397.56143 607.08 390.21 607.08 
C 382.85857 607.08 375.807246 610.000754 370.609 615.199 
C 365.410754 620.397246 362.49 627.44857 362.49 634.8 
C 362.49 642.15143 365.410754 649.202754 370.609 654.401 
C 375.807246 659.599246 382.85857 662.52 390.21 662.52 
z
" style="opacity:0.75;stroke:#000000;stroke-linejoin:miter;"/>
   </g>
   <g id="patch_76">
    <path clip-path="url(#p825ada1951)" d="M 293.19 810.36 
C 298.090953 810.36 302.791836 808.412831 306.257333 804.947333 
C 309.722831 801.481836 311.67 796.780953 311.67 791.88 
C 311.67 786.979047 309.722831 782.278164 306.257333 778.812667 
C 302.791836 775.347169 298.090953 773.4 293.19 773.4 
C 288.289047 773.4 283.588164 775.347169 280.122667 778.812667 
C 276.657169 782.278164 274.71 786.979047 274.71 791.88 
C 274.71 796.780953 276.657169 801.481836 280.122667 804.947333 
C 283.588164 808.412831 288.289047 810.36 293.19 810.36 
z
" style="opacity:0.75;stroke:#000000;stroke-linejoin:miter;"/>
   </g>
   <g id="patch_77">
    <path clip-path="url(#p825ada1951)" d="M 283.95 708.72 
C 288.850953 708.72 293.551836 706.772831 297.017333 703.307333 
C 300.482831 699.841836 302.43 695.140953 302.43 690.24 
C 302.43 685.339047 300.482831 680.638164 297.017333 677.172667 
C 293.551836 673.707169 288.850953 671.76 283.95 671.76 
C 279.049047 671.76 274.348164 673.707169 270.882667 677.172667 
C 267.417169 680.638164 265.47 685.339047 265.47 690.24 
C 265.47 695.140953 267.417169 699.841836 270.882667 703.307333 
C 274.348164 706.772831 279.049047 708.72 283.95 708.72 
z
" style="opacity:0.75;stroke:#000000;stroke-linejoin:miter;"/>
   </g>
   <g id="patch_78">
    <path clip-path="url(#p825ada1951)" d="M 353.25 653.28 
C 358.150953 653.28 362.851836 651.332831 366.317333 647.867333 
C 369.782831 644.401836 371.73 639.700953 371.73 634.8 
C 371.73 629.899047 369.782831 625.198164 366.317333 621.732667 
C 362.851836 618.267169 358.150953 616.32 353.25 616.32 
C 348.349047 616.32 343.648164 618.267169 340.182667 621.732667 
C 336.717169 625.198164 334.77 629.899047 334.77 634.8 
C 334.77 639.700953 336.717169 644.401836 340.182667 647.867333 
C 343.648164 651.332831 348.349047 653.28 353.25 653.28 
z
" style="opacity:0.75;stroke:#000000;stroke-linejoin:miter;"/>
   </g>
   <g id="line2d_1">
    <path clip-path="url(#p825ada1951)" d="M 531.0215 660.139132 
L 527.302426 668.047062 
L 522.091571 675.96079 
L 515.64065 683.00853 
L 508.313977 689.01154 
L 500.358242 693.990016 
L 491.963171 698.039841 
L 483.282173 701.292162 
L 474.438409 703.904874 
L 465.526849 706.063414 
L 456.618055 707.981366 
L 447.767452 709.898384 
L 439.031815 712.07478 
L 430.49244 714.780771 
L 422.28061 718.275454 
L 414.593377 722.768769 
L 407.676399 728.364108 
L 401.743438 735.001177 
L 396.876757 742.472838 
L 393.082396 750.559674 
L 390.340538 759.073766 
L 388.618858 767.857545 
L 387.875807 776.77806 
L 388.062335 785.72304 
L 389.123219 794.598378 
L 390.996981 803.326801 
L 393.614135 811.848218 
L 396.896957 820.121095 
L 400.767279 828.120717 
L 405.160687 835.831103 
L 410.034602 843.235722 
" style="fill:none;stroke:#0000ff;stroke-linecap:square;stroke-opacity:0.4;stroke-width:2;"/>
   </g>
   <g id="line2d_2">
    <path clip-path="url(#p825ada1951)" d="M 306.569248 891.644617 
L 304.356145 884.040146 
L 302.895503 875.487458 
L 302.552473 866.746321 
L 303.251017 858.045418 
L 304.892463 849.474443 
L 307.377412 841.105219 
L 310.605933 833.001316 
L 314.476677 825.206846 
L 318.887336 817.739518 
L 323.735267 810.590037 
L 328.916758 803.724264 
L 334.3245 797.085309 
L 339.84361 790.594913 
L 345.346661 784.155371 
L 350.687977 777.654229 
L 355.697918 770.97436 
L 360.179432 764.011608 
L 363.912029 756.700143 
L 366.671769 749.040853 
L 368.276834 741.119494 
L 368.660277 733.091723 
L 367.908068 725.118067 
L 366.147652 717.318261 
L 363.508649 709.776287 
L 360.116787 702.544107 
L 356.088855 695.647572 
L 351.529828 689.092624 
L 346.532206 682.870475 
L 341.176516 676.96161 
L 335.532235 671.33893 
L 329.658834 665.970331 
L 323.606885 660.820845 
L 317.41923 655.854342 
L 311.132151 651.034849 
L 304.776471 646.327551 
L 298.378521 641.699537 
L 291.960931 637.120399 
L 285.543237 632.562703 
L 279.142319 628.002337 
L 272.772737 623.418682 
L 266.447037 618.794546 
L 260.176097 614.115826 
L 253.96957 609.370908 
L 247.836446 604.549856 
L 241.785694 599.643543 
L 235.826672 594.643126 
L 229.968666 589.54058 
L 224.219363 584.330235 
L 218.583368 579.009805 
L 213.061887 573.579635 
" style="fill:none;stroke:#0000ff;stroke-linecap:square;stroke-opacity:0.4;stroke-width:2;"/>
   </g>
   <g id="line2d_3">
    <path clip-path="url(#p825ada1951)" d="M 484.663154 575.742793 
L 477.115144 580.036034 
L 469.704823 585.361627 
L 462.878293 591.59558 
L 456.723778 598.46306 
L 451.213742 605.770484 
L 446.267432 613.385542 
L 441.782082 621.216161 
L 437.652162 629.197215 
L 433.777922 637.280466 
L 430.066834 645.427268 
L 426.431722 653.603749 
L 422.782433 661.773895 
L 419.000953 669.884733 
L 414.943123 677.861068 
L 410.452374 685.600794 
L 405.377628 692.968387 
L 399.598029 699.793026 
L 393.054778 705.882649 
L 385.781595 711.067316 
L 377.90803 715.268006 
L 369.611205 718.526943 
L 361.051236 720.96393 
L 352.344029 722.72649 
L 343.563701 723.959997 
L 334.753628 724.794907 
L 325.937159 725.343282 
L 317.125657 725.699434 
L 308.323916 725.942129 
L 299.53359 726.137141 
L 290.75526 726.33961 
L 281.989633 726.596011 
L 273.238182 726.945682 
L 264.503464 727.421932 
L 255.78921 728.052802 
L 247.100274 728.861537 
L 238.44247 729.866878 
L 229.822331 731.083252 
L 221.246807 732.520924 
L 212.722933 734.18618 
L 204.2575 736.081571 
L 195.856742 738.206219 
L 187.526074 740.556206 
L 179.269892 743.125009 
L 171.091452 745.903973 
L 162.992823 748.882795 
L 154.974905 752.05001 
L 147.037537 755.393464 
L 139.17965 758.900783 
L 131.399484 762.559821 
L 123.694833 766.359064 
L 116.063284 770.287929 
L 108.502376 774.336898 
L 101.009665 778.497446 
L 93.582627 782.761734 
L 86.21842 787.122138 
L 78.913639 791.570836 
L 71.664395 796.099992 
L 64.46691 800.702742 
L 57.318213 805.37428 
L 50.216383 810.112226 
" style="fill:none;stroke:#0000ff;stroke-linecap:square;stroke-opacity:0.4;stroke-width:2;"/>
   </g>
   <g id="line2d_4">
    <path clip-path="url(#p825ada1951)" d="M 270.426909 1030.371447 
L 270.246639 1021.323382 
L 270.100449 1011.663677 
L 270.013633 1001.873239 
L 269.999758 992.098048 
L 270.07843 982.356805 
L 270.271715 972.634114 
L 270.60159 962.915996 
L 271.090586 953.199054 
L 271.763195 943.489445 
L 272.646746 933.799296 
L 273.771376 924.143626 
L 275.169199 914.538613 
L 276.872954 905.001073 
L 278.914467 895.548719 
L 281.323164 886.200742 
L 284.124732 876.978365 
L 287.339887 867.905124 
L 290.983128 859.006659 
L 295.061294 850.309812 
L 299.571838 841.840812 
L 304.500834 833.622352 
L 309.820919 825.669525 
L 315.48947 817.984819 
L 321.447182 810.552676 
L 327.616907 803.334374 
L 333.902164 796.264163 
L 340.184455 789.247901 
L 346.318617 782.165934 
L 352.126331 774.882822 
L 357.390196 767.267127 
L 361.855216 759.223261 
L 365.25077 750.731466 
L 367.349848 741.878666 
L 368.071878 732.845978 
L 367.541597 723.821928 
L 365.9339 714.93724 
L 363.419934 706.273873 
L 360.158537 697.872037 
L 356.291864 689.740493 
L 351.944421 681.866041 
L 347.224002 674.22109 
L 342.22351 666.769297 
L 337.023015 659.469686 
L 331.691755 652.279651 
L 326.289947 645.15715 
L 320.870363 638.062322 
L 315.479651 630.958658 
L 310.1594 623.813823 
L 304.946979 616.600187 
L 299.876137 609.295103 
L 294.977416 601.880984 
L 290.2784 594.345191 
L 285.803832 586.679777 
L 281.575654 578.881115 
L 277.613002 570.949433 
L 273.932186 562.888302 
L 270.546699 554.704081 
L 267.467255 546.405377 
L 264.701907 538.002498 
L 262.256241 529.506954 
L 260.133654 520.930995 
L 258.335674 512.287236 
L 256.862239 503.58836 
L 255.711807 494.846918 
L 254.881097 486.075185 
L 254.364292 477.285001 
L 254.152203 468.487469 
L 254.233129 459.692529 
L 254.595897 450.908743 
L 255.232734 442.143484 
" style="fill:none;stroke:#0000ff;stroke-linecap:square;stroke-opacity:0.4;stroke-width:2;"/>
   </g>
   <g id="line2d_5">
    <path clip-path="url(#p825ada1951)" d="M 293.379262 945.127063 
L 296.87279 941.191685 
L 300.463714 937.116632 
L 304.05474 932.973318 
L 307.59748 928.79188 
L 311.072169 924.581202 
L 314.471877 920.338316 
L 317.794375 916.054923 
L 321.038664 911.721747 
L 324.203697 907.330966 
L 327.288133 902.877255 
L 330.290565 898.358024 
L 333.209979 893.77323 
L 336.046231 889.12499 
L 338.800399 884.417092 
L 341.47491 879.654467 
L 344.073391 874.842647 
L 346.600213 869.987234 
L 349.059744 865.093382 
L 351.455304 860.165267 
L 353.787826 855.205548 
L 356.054221 850.214785 
L 358.245444 845.190847 
L 360.345904 840.129383 
L 362.339677 835.02689 
L 364.216398 829.882713 
L 365.972238 824.698902 
L 367.609229 819.479484 
L 369.134965 814.229906 
L 370.562787 808.956701 
L 371.912121 803.667274 
L 373.208606 798.369782 
L 374.483873 793.073147 
L 375.774941 787.787293 
L 377.123276 782.523645 
L 378.573539 777.295881 
L 380.171976 772.120863 
L 381.964402 767.019566 
L 383.993671 762.017708 
L 386.296617 757.145682 
L 388.900512 752.437243 
L 391.819312 747.926418 
L 395.050173 743.642174 
L 398.570974 739.600824 
L 402.344409 735.800941 
L 406.334147 732.234793 
L 410.507388 728.892017 
L 414.835288 725.759403 
L 419.292894 722.821758 
L 423.858572 720.062415 
L 428.513358 717.46347 
L 433.240487 715.006064 
L 438.025091 712.670747 
L 442.853983 710.437867 
L 447.715494 708.287932 
L 452.599326 706.201964 
L 457.496441 704.161812 
L 462.398929 702.150428 
L 467.299888 700.152046 
L 472.193281 698.152275 
L 477.073787 696.138092 
L 481.936646 694.097769 
L 486.777521 692.020775 
L 491.59237 689.897672 
L 496.377341 687.720033 
L 501.128694 685.480378 
L 505.842756 683.172139 
L 510.515893 680.789637 
L 515.144506 678.32807 
L 519.725051 675.783501 
L 524.254064 673.152837 
L 528.728201 670.433811 
L 533.144281 667.624945 
L 537.49933 664.725508 
L 541.790616 661.735453 
L 546.015687 658.655356 
L 550.172383 655.486336 
L 554.258856 652.229971 
L 558.273562 648.888223 
L 562.215263 645.463355 
L 566.083026 641.957885 
L 569.876238 638.374544 
L 573.594647 634.716277 
L 577.238443 630.986282 
L 580.808361 627.188047 
L 584.305744 623.325357 
L 587.732477 619.402166 
L 591.090728 615.422337 
L 594.382577 611.389313 
L 597.609652 607.305841 
L 600.772905 603.173827 
" style="fill:none;stroke:#0000ff;stroke-linecap:square;stroke-opacity:0.4;stroke-width:2;"/>
   </g>
   <g id="line2d_6">
    <path clip-path="url(#p825ada1951)" d="M 370.008725 1035.07684 
L 368.011779 1030.4117 
L 365.844064 1025.351191 
L 363.649397 1020.226963 
L 361.456956 1015.101746 
L 359.269184 1009.975251 
L 357.08665 1004.841925 
L 354.911979 999.700163 
L 352.749018 994.550088 
L 350.601896 989.39123 
L 348.474773 984.221943 
L 346.37201 979.039847 
L 344.298429 973.842445 
L 342.259476 968.627492 
L 340.261275 963.393062 
L 338.310587 958.137428 
L 336.414756 952.858903 
L 334.581647 947.555739 
L 332.819627 942.226116 
L 331.13756 936.868228 
L 329.54482 931.480427 
L 328.051305 926.061387 
L 326.667437 920.610276 
L 325.404145 915.12689 
L 324.272812 909.61178 
L 323.285201 904.066337 
L 322.453347 898.492874 
L 321.789418 892.894682 
L 321.305543 887.27609 
L 321.013615 881.642511 
L 320.925044 876.000472 
L 321.050487 870.357626 
L 321.399531 864.722729 
L 321.98034 859.105554 
L 322.799266 853.516744 
L 323.860434 847.967564 
L 325.165318 842.469556 
L 326.712319 837.034068 
L 328.496385 831.671676 
L 330.508681 826.391497 
L 332.736343 821.200435 
L 335.16232 816.102395 
L 337.765298 811.097526 
L 340.519675 806.181546 
L 343.395543 801.345236 
L 346.358624 796.574151 
L 349.37008 791.848627 
L 352.386174 787.144188 
L 355.357748 782.432429 
L 358.229568 777.682539 
L 360.939649 772.863588 
L 363.41881 767.947721 
L 365.59088 762.914294 
L 367.374201 757.754766 
L 368.685335 752.477764 
L 369.445959 747.113058 
L 369.59366 741.712312 
L 369.096136 736.343741 
L 367.965904 731.07822 
L 366.260061 725.971745 
L 364.044489 721.065548 
L 361.383222 716.388971 
L 358.336054 711.959281 
L 354.957474 707.783926 
L 351.296316 703.862834 
L 347.395804 700.190332 
L 343.293805 696.756672 
L 339.023197 693.549243 
L 334.612319 690.553526 
L 330.08544 687.753854 
L 325.463229 685.134006 
L 320.763209 682.677674 
L 316.00017 680.368825 
L 311.186547 678.191991 
L 306.332755 676.132488 
L 301.447483 674.176582 
L 296.537956 672.311597 
L 291.610168 670.525961 
L 286.669088 668.809191 
L 281.718854 667.151797 
L 276.762947 665.545126 
L 271.804355 663.981123 
L 266.845728 662.452037 
L 261.889521 660.950082 
L 256.938106 659.467144 
L 251.993813 657.99469 
L 247.058846 656.524098 
L 242.135043 655.047433 
L 237.223553 653.558365 
L 232.3245 652.052751 
L 227.436665 650.528548 
" style="fill:none;stroke:#0000ff;stroke-linecap:square;stroke-opacity:0.4;stroke-width:2;"/>
   </g>
   <g id="line2d_7">
    <path clip-path="url(#p825ada1951)" d="M 185.583315 601.896316 
L 193.268419 600.413028 
L 201.936696 599.442493 
L 210.690602 599.270943 
L 219.401249 599.861818 
L 228.022712 601.170143 
L 236.503809 603.147059 
L 244.800506 605.743429 
L 252.88097 608.912308 
L 260.721634 612.60906 
L 268.30336 616.790698 
L 275.610498 621.415376 
L 282.631811 626.442051 
L 289.361861 631.829981 
L 295.802311 637.537882 
L 301.963344 643.52272 
L 307.865535 649.73822 
L 313.542324 656.133197 
L 319.042843 662.649709 
L 324.434553 669.220813 
L 329.804836 675.767471 
L 335.260399 682.194008 
L 340.922869 688.381759 
L 346.918421 694.181409 
L 353.359113 699.406622 
L 360.315017 703.835188 
L 367.781094 707.228691 
L 375.653107 709.383765 
L 383.740104 710.217619 
L 391.834793 709.817808 
L 399.777455 708.326539 
L 407.457398 705.889015 
L 414.805704 702.645381 
L 421.787923 698.72649 
L 428.396371 694.250016 
L 434.642558 689.318266 
L 440.550694 684.018004 
L 446.15271 678.42173 
L 451.484711 672.589642 
L 456.584561 666.571723 
L 461.490262 660.409696 
L 466.238887 654.138699 
L 470.865908 647.788697 
L 475.404776 641.385638 
L 479.886696 634.952378 
L 484.340525 628.509426 
L 488.792738 622.075517 
L 493.267443 615.66805 
L 497.786404 609.303417 
L 502.369079 602.997228 
L 507.032648 596.76446 
L 511.79204 590.619538 
L 516.659953 584.576362 
L 521.64689 578.648289 
L 526.761192 572.848079 
L 532.009088 567.187817 
L 537.394774 561.678809 
L 542.920507 556.331474 
L 548.586722 551.155225 
L 554.392185 546.158357 
L 560.334155 541.347947 
L 566.408573 536.729766 
L 572.610257 532.308219 
L 578.933114 528.086312 
L 585.370334 524.065647 
L 591.914592 520.246457 
L 598.55823 516.627659 
L 605.293425 513.206944 
L 612.112329 509.980887 
L 619.007201 506.94507 
L 625.970502 504.094224 
L 632.994984 501.422369 
L 640.073747 498.922957 
L 647.200287 496.589012 
L 654.368528 494.413265 
L 661.572847 492.388289 
L 668.808084 490.506643 
L 676.06955 488.761012 
L 683.35303 487.144356 
L 690.654767 485.650051 
L 697.971444 484.271989 
L 705.300148 483.004614 
L 712.63832 481.842875 
L 719.983701 480.782068 
L 727.334284 479.817557 
L 734.688267 478.944398 
L 742.044051 478.156996 
L 749.400305 477.449187 
L 756.756119 476.81503 
L 764.111212 476.249907 
L 771.46624 475.751111 
" style="fill:none;stroke:#0000ff;stroke-linecap:square;stroke-opacity:0.4;stroke-width:2;"/>
   </g>
   <g id="line2d_8">
    <path clip-path="url(#p825ada1951)" d="M 469.538806 1009.376459 
L 469.379721 1004.067078 
L 469.22044 998.616208 
L 469.066175 993.088981 
L 468.922016 987.524155 
L 468.795008 981.943301 
L 468.694021 976.357229 
L 468.628476 970.770398 
L 468.607191 965.183832 
L 468.63764 959.59697 
L 468.725483 954.008748 
L 468.874152 948.418178 
L 469.084419 942.824562 
L 469.353922 937.227495 
L 469.676728 931.626734 
L 470.042949 926.02202 
L 470.4385 920.412923 
L 470.845011 914.798788 
L 471.239937 909.1788 
L 471.596878 903.552245 
L 471.886151 897.918922 
L 472.075655 892.279727 
L 472.13209 886.63729 
L 472.02256 880.996565 
L 471.716595 875.365191 
L 471.188478 869.753407 
L 470.419736 864.173362 
L 469.401499 858.637719 
L 468.136499 853.157614 
L 466.638388 847.740648 
L 464.923467 842.391806 
L 463.005595 837.115266 
L 460.895075 831.915367 
L 458.599553 826.796872 
L 456.125719 821.764661 
L 453.481077 816.823016 
L 450.67538 811.974702 
L 447.721587 807.220018 
L 444.636326 802.555958 
L 441.43997 797.975584 
L 438.156478 793.467675 
L 434.813153 789.016658 
L 431.440435 784.602833 
L 428.071803 780.202887 
L 424.743807 775.790699 
L 421.496195 771.338477 
L 418.372067 766.818245 
L 415.417916 762.203717 
L 412.683388 757.472515 
L 410.220447 752.608659 
L 408.081576 747.605085 
L 406.316501 742.465817 
L 404.966941 737.207114 
L 404.059176 731.856647 
L 403.594946 726.449638 
L 403.549351 721.021909 
L 403.891401 715.604312 
L 404.587071 710.221465 
L 405.59875 704.890646 
L 406.886818 699.621894 
L 408.411493 694.418895 
L 410.134339 689.280277 
L 412.0194 684.201069 
L 414.033899 679.17406 
L 416.148502 674.19092 
L 418.337245 669.242999 
L 420.577249 664.321836 
L 422.848356 659.419449 
L 425.132767 654.528478 
L 427.414694 649.64224 
L 429.680045 644.754721 
L 431.916143 639.860549 
L 434.111482 634.954952 
L 436.255521 630.033736 
L 438.338536 625.093264 
L 440.351523 620.130469 
L 442.286148 615.142868 
L 444.134746 610.128588 
L 445.890338 605.086381 
L 447.546675 600.015631 
L 449.098279 594.916342 
L 450.540474 589.789104 
L 451.869417 584.635046 
L 453.082096 579.455766 
L 454.17632 574.253258 
L 455.150675 569.029827 
L 456.004475 563.788001 
L 456.737687 558.530459 
L 457.350858 553.259951 
L 457.845049 547.97924 
L 458.221786 542.691053 
L 458.483044 537.398038 
L 458.63128 532.102723 
L 458.669505 526.807482 
L 458.601373 521.51449 
L 458.431185 516.22567 
L 458.163694 510.942655 
L 457.803686 505.666788 
L 457.355441 500.399157 
L 456.822282 495.140662 
L 456.206347 489.892075 
" style="fill:none;stroke:#0000ff;stroke-linecap:square;stroke-opacity:0.4;stroke-width:2;"/>
   </g>
   <g id="line2d_9">
    <path clip-path="url(#p825ada1951)" d="M 588.059133 649.051604 
L 581.243102 647.417139 
L 573.638109 646.052302 
L 565.832174 645.184497 
L 557.99113 644.818278 
L 550.149957 644.939389 
L 542.324709 645.532473 
L 534.539883 646.583223 
L 526.827497 648.077985 
L 519.220674 650.002642 
L 511.748918 652.341314 
L 504.435991 655.075078 
L 497.299356 658.180861 
L 490.350068 661.630534 
L 483.592369 665.390141 
L 477.022747 669.419194 
L 470.62854 673.670017 
L 464.386431 678.087049 
L 458.261243 682.606017 
L 452.205528 687.152748 
L 446.160506 691.641439 
L 440.05903 695.972362 
L 433.831367 700.029336 
L 427.414568 703.678047 
L 420.765615 706.767353 
L 413.877 709.137104 
L 406.790367 710.637074 
L 399.599352 711.160653 
L 392.429193 710.690548 
L 385.39036 709.313841 
L 378.560605 707.13894 
L 371.99343 704.270335 
L 365.720726 700.80639 
L 359.756858 696.836932 
L 354.103041 692.441787 
L 348.751054 687.690614 
L 343.686201 682.643429 
L 338.889749 677.351312 
L 334.34097 671.857176 
L 330.018792 666.196587 
L 325.902956 660.398699 
L 321.974625 654.487276 
L 318.216414 648.481791 
L 314.611882 642.398543 
L 311.144566 636.251752 
L 307.796767 630.054529 
L 304.548793 623.819414 
L 301.379916 617.557972 
L 298.271406 611.27939 
L 295.209775 604.988995 
L 292.187824 598.687619 
" style="fill:none;stroke:#0000ff;stroke-linecap:square;stroke-opacity:0.4;stroke-width:2;"/>
   </g>
   <g id="line2d_10">
    <path clip-path="url(#p825ada1951)" d="M 456.45529 975.395448 
L 456.246395 971.218897 
L 456.05096 966.144646 
L 455.953961 960.495617 
L 456.021821 954.490627 
L 456.29669 948.27641 
L 456.79777 941.949394 
L 457.525316 935.57052 
L 458.464666 929.175446 
L 459.588984 922.781616 
L 460.860467 916.393133 
L 462.230357 910.004226 
L 463.638267 903.602056 
L 465.011334 897.169568 
L 466.263727 890.68906 
L 467.297186 884.146928 
L 468.003635 877.539669 
L 468.271248 870.880434 
L 467.995448 864.204168 
L 467.09557 857.567783 
L 465.535837 851.040861 
L 463.346198 844.683836 
L 460.625076 838.520278 
L 457.494307 832.535296 
L 454.060994 826.694638 
L 450.403792 820.962868 
L 446.57707 815.310704 
L 442.61932 809.714714 
L 438.5602 804.155087 
L 434.424906 798.613774 
L 430.236283 793.07366 
L 426.015441 787.518635 
L 421.781655 781.934141 
L 417.552129 776.307795 
L 413.341964 770.629835 
L 409.164435 764.893352 
L 405.031473 759.094491 
L 400.954115 753.23291 
L 396.942885 747.312693 
L 393.008374 741.343769 
L 389.162551 735.34391 
" style="fill:none;stroke:#0000ff;stroke-linecap:square;stroke-opacity:0.4;stroke-width:2;"/>
   </g>
   <g id="line2d_11">
    <path clip-path="url(#p825ada1951)" d="M 162.274018 937.508634 
L 168.864077 934.80475 
L 175.883123 931.940362 
L 183.019637 929.0411 
L 190.162422 926.144386 
L 197.284959 923.249934 
L 204.388747 920.343536 
L 211.47917 917.408343 
L 218.55714 914.428566 
L 225.617746 911.389548 
L 232.651494 908.276737 
L 239.646052 905.074731 
L 246.587623 901.766778 
L 253.461741 898.334768 
L 260.253544 894.759601 
L 266.947678 891.021788 
L 273.528036 887.102152 
L 279.977431 882.982542 
L 286.277353 878.646525 
L 292.407863 874.080039 
L 298.347705 869.272031 
L 304.074685 864.215092 
L 309.566391 858.906086 
L 314.801284 853.346771 
L 319.760211 847.544311 
L 324.42832 841.511632 
L 328.797295 835.267467 
L 332.867783 828.836052 
L 336.651807 822.24646 
L 340.174975 815.531706 
L 343.478293 808.727877 
L 346.619447 801.873654 
L 349.673384 795.010636 
L 352.731941 788.18491 
L 355.90201 781.450161 
L 359.301421 774.872405 
L 363.051402 768.535743 
L 367.26443 762.547316 
L 372.026965 757.037695 
L 377.378697 752.150624 
L 383.294157 748.015068 
L 389.678064 744.696877 
L 396.398349 742.164511 
L 403.341595 740.352752 
L 410.417014 739.188984 
L 417.556711 738.59695 
L 424.712715 738.500525 
L 431.853209 738.82626 
L 438.95898 739.504885 
L 446.020403 740.472039 
L 453.034988 741.668483 
L 460.005378 743.040056 
L 466.937708 744.537477 
L 473.840256 746.116045 
L 480.722333 747.735283 
L 487.593389 749.358556 
L 494.462298 750.952716 
L 501.33683 752.487784 
L 508.223264 753.936675 
L 515.126152 755.274986 
L 522.048208 756.480813 
L 528.990298 757.534634 
L 535.951509 758.419218 
L 542.929298 759.119563 
L 549.919667 759.622856 
L 556.917389 759.918439 
L 563.916242 759.997757 
L 570.909247 759.854297 
L 577.888906 759.483484 
L 584.847421 758.882538 
L 591.776886 758.050287 
L 598.669445 756.98696 
L 605.517417 755.693993 
L 612.313414 754.173909 
L 619.050475 752.430351 
L 625.722281 750.468337 
L 632.323464 748.294621 
L 638.849831 745.917643 
L 645.298251 743.346565 
L 651.666147 740.589733 
L 657.950913 737.653422 
" style="fill:none;stroke:#0000ff;stroke-linecap:square;stroke-opacity:0.4;stroke-width:2;"/>
   </g>
   <g id="text_1">
    <!-- Iteration: None -->
    <g transform="translate(539.217188 166.8)scale(0.12 -0.12)">
     <defs>
      <path d="M 9.8125 72.90625 
L 19.671875 72.90625 
L 19.671875 0 
L 9.8125 0 
z
" id="DejaVuSans-73"/>
      <path d="M 18.3125 70.21875 
L 18.3125 54.6875 
L 36.8125 54.6875 
L 36.8125 47.703125 
L 18.3125 47.703125 
L 18.3125 18.015625 
Q 18.3125 11.328125 20.140625 9.421875 
Q 21.96875 7.515625 27.59375 7.515625 
L 36.8125 7.515625 
L 36.8125 0 
L 27.59375 0 
Q 17.1875 0 13.234375 3.875 
Q 9.28125 7.765625 9.28125 18.015625 
L 9.28125 47.703125 
L 2.6875 47.703125 
L 2.6875 54.6875 
L 9.28125 54.6875 
L 9.28125 70.21875 
z
" id="DejaVuSans-116"/>
      <path d="M 56.203125 29.59375 
L 56.203125 25.203125 
L 14.890625 25.203125 
Q 15.484375 15.921875 20.484375 11.0625 
Q 25.484375 6.203125 34.421875 6.203125 
Q 39.59375 6.203125 44.453125 7.46875 
Q 49.3125 8.734375 54.109375 11.28125 
L 54.109375 2.78125 
Q 49.265625 0.734375 44.1875 -0.34375 
Q 39.109375 -1.421875 33.890625 -1.421875 
Q 20.796875 -1.421875 13.15625 6.1875 
Q 5.515625 13.8125 5.515625 26.8125 
Q 5.515625 40.234375 12.765625 48.109375 
Q 20.015625 56 32.328125 56 
Q 43.359375 56 49.78125 48.890625 
Q 56.203125 41.796875 56.203125 29.59375 
z
M 47.21875 32.234375 
Q 47.125 39.59375 43.09375 43.984375 
Q 39.0625 48.390625 32.421875 48.390625 
Q 24.90625 48.390625 20.390625 44.140625 
Q 15.875 39.890625 15.1875 32.171875 
z
" id="DejaVuSans-101"/>
      <path d="M 41.109375 46.296875 
Q 39.59375 47.171875 37.8125 47.578125 
Q 36.03125 48 33.890625 48 
Q 26.265625 48 22.1875 43.046875 
Q 18.109375 38.09375 18.109375 28.8125 
L 18.109375 0 
L 9.078125 0 
L 9.078125 54.6875 
L 18.109375 54.6875 
L 18.109375 46.1875 
Q 20.953125 51.171875 25.484375 53.578125 
Q 30.03125 56 36.53125 56 
Q 37.453125 56 38.578125 55.875 
Q 39.703125 55.765625 41.0625 55.515625 
z
" id="DejaVuSans-114"/>
      <path d="M 34.28125 27.484375 
Q 23.390625 27.484375 19.1875 25 
Q 14.984375 22.515625 14.984375 16.5 
Q 14.984375 11.71875 18.140625 8.90625 
Q 21.296875 6.109375 26.703125 6.109375 
Q 34.1875 6.109375 38.703125 11.40625 
Q 43.21875 16.703125 43.21875 25.484375 
L 43.21875 27.484375 
z
M 52.203125 31.203125 
L 52.203125 0 
L 43.21875 0 
L 43.21875 8.296875 
Q 40.140625 3.328125 35.546875 0.953125 
Q 30.953125 -1.421875 24.3125 -1.421875 
Q 15.921875 -1.421875 10.953125 3.296875 
Q 6 8.015625 6 15.921875 
Q 6 25.140625 12.171875 29.828125 
Q 18.359375 34.515625 30.609375 34.515625 
L 43.21875 34.515625 
L 43.21875 35.40625 
Q 43.21875 41.609375 39.140625 45 
Q 35.0625 48.390625 27.6875 48.390625 
Q 23 48.390625 18.546875 47.265625 
Q 14.109375 46.140625 10.015625 43.890625 
L 10.015625 52.203125 
Q 14.9375 54.109375 19.578125 55.046875 
Q 24.21875 56 28.609375 56 
Q 40.484375 56 46.34375 49.84375 
Q 52.203125 43.703125 52.203125 31.203125 
z
" id="DejaVuSans-97"/>
      <path d="M 9.421875 54.6875 
L 18.40625 54.6875 
L 18.40625 0 
L 9.421875 0 
z
M 9.421875 75.984375 
L 18.40625 75.984375 
L 18.40625 64.59375 
L 9.421875 64.59375 
z
" id="DejaVuSans-105"/>
      <path d="M 30.609375 48.390625 
Q 23.390625 48.390625 19.1875 42.75 
Q 14.984375 37.109375 14.984375 27.296875 
Q 14.984375 17.484375 19.15625 11.84375 
Q 23.34375 6.203125 30.609375 6.203125 
Q 37.796875 6.203125 41.984375 11.859375 
Q 46.1875 17.53125 46.1875 27.296875 
Q 46.1875 37.015625 41.984375 42.703125 
Q 37.796875 48.390625 30.609375 48.390625 
z
M 30.609375 56 
Q 42.328125 56 49.015625 48.375 
Q 55.71875 40.765625 55.71875 27.296875 
Q 55.71875 13.875 49.015625 6.21875 
Q 42.328125 -1.421875 30.609375 -1.421875 
Q 18.84375 -1.421875 12.171875 6.21875 
Q 5.515625 13.875 5.515625 27.296875 
Q 5.515625 40.765625 12.171875 48.375 
Q 18.84375 56 30.609375 56 
z
" id="DejaVuSans-111"/>
      <path d="M 54.890625 33.015625 
L 54.890625 0 
L 45.90625 0 
L 45.90625 32.71875 
Q 45.90625 40.484375 42.875 44.328125 
Q 39.84375 48.1875 33.796875 48.1875 
Q 26.515625 48.1875 22.3125 43.546875 
Q 18.109375 38.921875 18.109375 30.90625 
L 18.109375 0 
L 9.078125 0 
L 9.078125 54.6875 
L 18.109375 54.6875 
L 18.109375 46.1875 
Q 21.34375 51.125 25.703125 53.5625 
Q 30.078125 56 35.796875 56 
Q 45.21875 56 50.046875 50.171875 
Q 54.890625 44.34375 54.890625 33.015625 
z
" id="DejaVuSans-110"/>
      <path d="M 11.71875 12.40625 
L 22.015625 12.40625 
L 22.015625 0 
L 11.71875 0 
z
M 11.71875 51.703125 
L 22.015625 51.703125 
L 22.015625 39.3125 
L 11.71875 39.3125 
z
" id="DejaVuSans-58"/>
      <path id="DejaVuSans-32"/>
      <path d="M 9.8125 72.90625 
L 23.09375 72.90625 
L 55.421875 11.921875 
L 55.421875 72.90625 
L 64.984375 72.90625 
L 64.984375 0 
L 51.703125 0 
L 19.390625 60.984375 
L 19.390625 0 
L 9.8125 0 
z
" id="DejaVuSans-78"/>
     </defs>
     <use xlink:href="#DejaVuSans-73"/>
     <use x="29.492188" xlink:href="#DejaVuSans-116"/>
     <use x="68.701172" xlink:href="#DejaVuSans-101"/>
     <use x="130.224609" xlink:href="#DejaVuSans-114"/>
     <use x="171.337891" xlink:href="#DejaVuSans-97"/>
     <use x="232.617188" xlink:href="#DejaVuSans-116"/>
     <use x="271.826172" xlink:href="#DejaVuSans-105"/>
     <use x="299.609375" xlink:href="#DejaVuSans-111"/>
     <use x="360.791016" xlink:href="#DejaVuSans-110"/>
     <use x="424.169922" xlink:href="#DejaVuSans-58"/>
     <use x="457.861328" xlink:href="#DejaVuSans-32"/>
     <use x="489.648438" xlink:href="#DejaVuSans-78"/>
     <use x="564.453125" xlink:href="#DejaVuSans-111"/>
     <use x="625.634766" xlink:href="#DejaVuSans-110"/>
     <use x="689.013672" xlink:href="#DejaVuSans-101"/>
    </g>
   </g>
   <g id="PathCollection_1">
    <defs>
     <path d="M 0 3 
C 0.795609 3 1.55874 2.683901 2.12132 2.12132 
C 2.683901 1.55874 3 0.795609 3 0 
C 3 -0.795609 2.683901 -1.55874 2.12132 -2.12132 
C 1.55874 -2.683901 0.795609 -3 0 -3 
C -0.795609 -3 -1.55874 -2.683901 -2.12132 -2.12132 
C -2.683901 -1.55874 -3 -0.795609 -3 0 
C -3 0.795609 -2.683901 1.55874 -2.12132 2.12132 
C -1.55874 2.683901 -0.795609 3 0 3 
z
" id="m7afeb1035a" style="stroke:#b22222;"/>
    </defs>
    <g clip-path="url(#p825ada1951)">
     <use style="fill:#b22222;stroke:#b22222;" x="531.0215" xlink:href="#m7afeb1035a" y="660.139132"/>
    </g>
   </g>
   <g id="PathCollection_2">
    <defs>
     <path d="M 0 3 
C 0.795609 3 1.55874 2.683901 2.12132 2.12132 
C 2.683901 1.55874 3 0.795609 3 0 
C 3 -0.795609 2.683901 -1.55874 2.12132 -2.12132 
C 1.55874 -2.683901 0.795609 -3 0 -3 
C -0.795609 -3 -1.55874 -2.683901 -2.12132 -2.12132 
C -2.683901 -1.55874 -3 -0.795609 -3 0 
C -3 0.795609 -2.683901 1.55874 -2.12132 2.12132 
C -1.55874 2.683901 -0.795609 3 0 3 
z
" id="m3e1b89eb27" style="stroke:#00ffff;stroke-opacity:0.4;"/>
    </defs>
    <g clip-path="url(#p825ada1951)">
     <use style="fill:#00ffff;fill-opacity:0.4;stroke:#00ffff;stroke-opacity:0.4;" x="410.034602" xlink:href="#m3e1b89eb27" y="843.235722"/>
    </g>
   </g>
   <g id="PathCollection_3">
    <g clip-path="url(#p825ada1951)">
     <use style="fill:#b22222;stroke:#b22222;" x="306.569248" xlink:href="#m7afeb1035a" y="891.644617"/>
    </g>
   </g>
   <g id="PathCollection_4">
    <g clip-path="url(#p825ada1951)">
     <use style="fill:#00ffff;fill-opacity:0.4;stroke:#00ffff;stroke-opacity:0.4;" x="213.061887" xlink:href="#m3e1b89eb27" y="573.579635"/>
    </g>
   </g>
   <g id="PathCollection_5">
    <g clip-path="url(#p825ada1951)">
     <use style="fill:#b22222;stroke:#b22222;" x="484.663154" xlink:href="#m7afeb1035a" y="575.742793"/>
    </g>
   </g>
   <g id="PathCollection_6">
    <g clip-path="url(#p825ada1951)">
     <use style="fill:#00ffff;fill-opacity:0.4;stroke:#00ffff;stroke-opacity:0.4;" x="50.216383" xlink:href="#m3e1b89eb27" y="810.112226"/>
    </g>
   </g>
   <g id="PathCollection_7">
    <g clip-path="url(#p825ada1951)">
     <use style="fill:#b22222;stroke:#b22222;" x="270.426909" xlink:href="#m7afeb1035a" y="1030.371447"/>
    </g>
   </g>
   <g id="PathCollection_8">
    <g clip-path="url(#p825ada1951)">
     <use style="fill:#00ffff;fill-opacity:0.4;stroke:#00ffff;stroke-opacity:0.4;" x="255.232734" xlink:href="#m3e1b89eb27" y="442.143484"/>
    </g>
   </g>
   <g id="PathCollection_9">
    <g clip-path="url(#p825ada1951)">
     <use style="fill:#b22222;stroke:#b22222;" x="293.379262" xlink:href="#m7afeb1035a" y="945.127063"/>
    </g>
   </g>
   <g id="PathCollection_10">
    <g clip-path="url(#p825ada1951)">
     <use style="fill:#00ffff;fill-opacity:0.4;stroke:#00ffff;stroke-opacity:0.4;" x="600.772905" xlink:href="#m3e1b89eb27" y="603.173827"/>
    </g>
   </g>
   <g id="PathCollection_11">
    <g clip-path="url(#p825ada1951)">
     <use style="fill:#b22222;stroke:#b22222;" x="370.008725" xlink:href="#m7afeb1035a" y="1035.07684"/>
    </g>
   </g>
   <g id="PathCollection_12">
    <g clip-path="url(#p825ada1951)">
     <use style="fill:#00ffff;fill-opacity:0.4;stroke:#00ffff;stroke-opacity:0.4;" x="227.436665" xlink:href="#m3e1b89eb27" y="650.528548"/>
    </g>
   </g>
   <g id="PathCollection_13">
    <g clip-path="url(#p825ada1951)">
     <use style="fill:#b22222;stroke:#b22222;" x="185.583315" xlink:href="#m7afeb1035a" y="601.896316"/>
    </g>
   </g>
   <g id="PathCollection_14">
    <g clip-path="url(#p825ada1951)">
     <use style="fill:#00ffff;fill-opacity:0.4;stroke:#00ffff;stroke-opacity:0.4;" x="771.46624" xlink:href="#m3e1b89eb27" y="475.751111"/>
    </g>
   </g>
   <g id="PathCollection_15">
    <g clip-path="url(#p825ada1951)">
     <use style="fill:#b22222;stroke:#b22222;" x="469.538806" xlink:href="#m7afeb1035a" y="1009.376459"/>
    </g>
   </g>
   <g id="PathCollection_16">
    <g clip-path="url(#p825ada1951)">
     <use style="fill:#00ffff;fill-opacity:0.4;stroke:#00ffff;stroke-opacity:0.4;" x="456.206347" xlink:href="#m3e1b89eb27" y="489.892075"/>
    </g>
   </g>
   <g id="PathCollection_17">
    <g clip-path="url(#p825ada1951)">
     <use style="fill:#b22222;stroke:#b22222;" x="588.059133" xlink:href="#m7afeb1035a" y="649.051604"/>
    </g>
   </g>
   <g id="PathCollection_18">
    <g clip-path="url(#p825ada1951)">
     <use style="fill:#00ffff;fill-opacity:0.4;stroke:#00ffff;stroke-opacity:0.4;" x="292.187824" xlink:href="#m3e1b89eb27" y="598.687619"/>
    </g>
   </g>
   <g id="PathCollection_19">
    <g clip-path="url(#p825ada1951)">
     <use style="fill:#b22222;stroke:#b22222;" x="456.45529" xlink:href="#m7afeb1035a" y="975.395448"/>
    </g>
   </g>
   <g id="PathCollection_20">
    <g clip-path="url(#p825ada1951)">
     <use style="fill:#00ffff;fill-opacity:0.4;stroke:#00ffff;stroke-opacity:0.4;" x="389.162551" xlink:href="#m3e1b89eb27" y="735.34391"/>
    </g>
   </g>
   <g id="PathCollection_21">
    <g clip-path="url(#p825ada1951)">
     <use style="fill:#b22222;stroke:#b22222;" x="162.274018" xlink:href="#m7afeb1035a" y="937.508634"/>
    </g>
   </g>
   <g id="PathCollection_22">
    <g clip-path="url(#p825ada1951)">
     <use style="fill:#00ffff;fill-opacity:0.4;stroke:#00ffff;stroke-opacity:0.4;" x="657.950913" xlink:href="#m3e1b89eb27" y="737.653422"/>
    </g>
   </g>
  </g>
 </g>
 <defs>
  <clipPath id="p825ada1951">
   <rect height="1108.8" width="877.8" x="145.35" y="172.8"/>
  </clipPath>
 </defs>
</svg>
