<?xml version="1.0" encoding="utf-8" standalone="no"?>
<!DOCTYPE svg PUBLIC "-//W3C//DTD SVG 1.1//EN"
  "http://www.w3.org/Graphics/SVG/1.1/DTD/svg11.dtd">
<!-- Created with matplotlib (https://matplotlib.org/) -->
<svg height="1440pt" version="1.1" viewBox="0 0 1140 1440" width="1140pt" xmlns="http://www.w3.org/2000/svg" xmlns:xlink="http://www.w3.org/1999/xlink">
 <metadata>
  <rdf:RDF xmlns:cc="http://creativecommons.org/ns#" xmlns:dc="http://purl.org/dc/elements/1.1/" xmlns:rdf="http://www.w3.org/1999/02/22-rdf-syntax-ns#">
   <cc:Work>
    <dc:type rdf:resource="http://purl.org/dc/dcmitype/StillImage"/>
    <dc:date>2022-02-18T11:04:51.485909</dc:date>
    <dc:format>image/svg+xml</dc:format>
    <dc:creator>
     <cc:Agent>
      <dc:title>Matplotlib v3.3.2, https://matplotlib.org/</dc:title>
     </cc:Agent>
    </dc:creator>
   </cc:Work>
  </rdf:RDF>
 </metadata>
 <defs>
  <style type="text/css">*{stroke-linecap:butt;stroke-linejoin:round;}</style>
 </defs>
 <g id="figure_1">
  <g id="patch_1">
   <path d="M 0 1440 
L 1140 1440 
L 1140 0 
L 0 0 
z
" style="fill:#ffffff;"/>
  </g>
  <g id="axes_1">
   <g id="patch_2">
    <path clip-path="url(#p745283736f)" d="M 385.59 745.68 
C 390.490953 745.68 395.191836 743.732831 398.657333 740.267333 
C 402.122831 736.801836 404.07 732.100953 404.07 727.2 
C 404.07 722.299047 402.122831 717.598164 398.657333 714.132667 
C 395.191836 710.667169 390.490953 708.72 385.59 708.72 
C 380.689047 708.72 375.988164 710.667169 372.522667 714.132667 
C 369.057169 717.598164 367.11 722.299047 367.11 727.2 
C 367.11 732.100953 369.057169 736.801836 372.522667 740.267333 
C 375.988164 743.732831 380.689047 745.68 385.59 745.68 
z
" style="fill:#ff00ff;opacity:0.5;stroke:#ff00ff;stroke-linejoin:miter;"/>
   </g>
   <g id="patch_3">
    <path clip-path="url(#p745283736f)" d="M 413.31 907.38 
C 424.337145 907.38 434.914131 902.998869 442.7115 895.2015 
C 450.508869 887.404131 454.89 876.827145 454.89 865.8 
C 454.89 854.772855 450.508869 844.195869 442.7115 836.3985 
C 434.914131 828.601131 424.337145 824.22 413.31 824.22 
C 402.282855 824.22 391.705869 828.601131 383.9085 836.3985 
C 376.111131 844.195869 371.73 854.772855 371.73 865.8 
C 371.73 876.827145 376.111131 887.404131 383.9085 895.2015 
C 391.705869 902.998869 402.282855 907.38 413.31 907.38 
z
" style="opacity:0.75;stroke:#000000;stroke-linejoin:miter;"/>
   </g>
   <g id="patch_4">
    <path clip-path="url(#p745283736f)" d="M 514.95 801.12 
C 522.30143 801.12 529.352754 798.199246 534.551 793.001 
C 539.749246 787.802754 542.67 780.75143 542.67 773.4 
C 542.67 766.04857 539.749246 758.997246 534.551 753.799 
C 529.352754 748.600754 522.30143 745.68 514.95 745.68 
C 507.59857 745.68 500.547246 748.600754 495.349 753.799 
C 490.150754 758.997246 487.23 766.04857 487.23 773.4 
C 487.23 780.75143 490.150754 787.802754 495.349 793.001 
C 500.547246 798.199246 507.59857 801.12 514.95 801.12 
z
" style="opacity:0.75;stroke:#000000;stroke-linejoin:miter;"/>
   </g>
   <g id="patch_5">
    <path clip-path="url(#p745283736f)" d="M 390.21 662.52 
C 397.56143 662.52 404.612754 659.599246 409.811 654.401 
C 415.009246 649.202754 417.93 642.15143 417.93 634.8 
C 417.93 627.44857 415.009246 620.397246 409.811 615.199 
C 404.612754 610.000754 397.56143 607.08 390.21 607.08 
C 382.85857 607.08 375.807246 610.000754 370.609 615.199 
C 365.410754 620.397246 362.49 627.44857 362.49 634.8 
C 362.49 642.15143 365.410754 649.202754 370.609 654.401 
C 375.807246 659.599246 382.85857 662.52 390.21 662.52 
z
" style="opacity:0.75;stroke:#000000;stroke-linejoin:miter;"/>
   </g>
   <g id="patch_6">
    <path clip-path="url(#p745283736f)" d="M 293.19 810.36 
C 298.090953 810.36 302.791836 808.412831 306.257333 804.947333 
C 309.722831 801.481836 311.67 796.780953 311.67 791.88 
C 311.67 786.979047 309.722831 782.278164 306.257333 778.812667 
C 302.791836 775.347169 298.090953 773.4 293.19 773.4 
C 288.289047 773.4 283.588164 775.347169 280.122667 778.812667 
C 276.657169 782.278164 274.71 786.979047 274.71 791.88 
C 274.71 796.780953 276.657169 801.481836 280.122667 804.947333 
C 283.588164 808.412831 288.289047 810.36 293.19 810.36 
z
" style="opacity:0.75;stroke:#000000;stroke-linejoin:miter;"/>
   </g>
   <g id="patch_7">
    <path clip-path="url(#p745283736f)" d="M 283.95 708.72 
C 288.850953 708.72 293.551836 706.772831 297.017333 703.307333 
C 300.482831 699.841836 302.43 695.140953 302.43 690.24 
C 302.43 685.339047 300.482831 680.638164 297.017333 677.172667 
C 293.551836 673.707169 288.850953 671.76 283.95 671.76 
C 279.049047 671.76 274.348164 673.707169 270.882667 677.172667 
C 267.417169 680.638164 265.47 685.339047 265.47 690.24 
C 265.47 695.140953 267.417169 699.841836 270.882667 703.307333 
C 274.348164 706.772831 279.049047 708.72 283.95 708.72 
z
" style="opacity:0.75;stroke:#000000;stroke-linejoin:miter;"/>
   </g>
   <g id="patch_8">
    <path clip-path="url(#p745283736f)" d="M 353.25 653.28 
C 358.150953 653.28 362.851836 651.332831 366.317333 647.867333 
C 369.782831 644.401836 371.73 639.700953 371.73 634.8 
C 371.73 629.899047 369.782831 625.198164 366.317333 621.732667 
C 362.851836 618.267169 358.150953 616.32 353.25 616.32 
C 348.349047 616.32 343.648164 618.267169 340.182667 621.732667 
C 336.717169 625.198164 334.77 629.899047 334.77 634.8 
C 334.77 639.700953 336.717169 644.401836 340.182667 647.867333 
C 343.648164 651.332831 348.349047 653.28 353.25 653.28 
z
" style="opacity:0.75;stroke:#000000;stroke-linejoin:miter;"/>
   </g>
   <g id="patch_9">
    <path clip-path="url(#p745283736f)" d="M 385.59 745.68 
C 390.490953 745.68 395.191836 743.732831 398.657333 740.267333 
C 402.122831 736.801836 404.07 732.100953 404.07 727.2 
C 404.07 722.299047 402.122831 717.598164 398.657333 714.132667 
C 395.191836 710.667169 390.490953 708.72 385.59 708.72 
C 380.689047 708.72 375.988164 710.667169 372.522667 714.132667 
C 369.057169 717.598164 367.11 722.299047 367.11 727.2 
C 367.11 732.100953 369.057169 736.801836 372.522667 740.267333 
C 375.988164 743.732831 380.689047 745.68 385.59 745.68 
z
" style="fill:#ff00ff;opacity:0.5;stroke:#ff00ff;stroke-linejoin:miter;"/>
   </g>
   <g id="patch_10">
    <path clip-path="url(#p745283736f)" d="M 413.31 907.38 
C 424.337145 907.38 434.914131 902.998869 442.7115 895.2015 
C 450.508869 887.404131 454.89 876.827145 454.89 865.8 
C 454.89 854.772855 450.508869 844.195869 442.7115 836.3985 
C 434.914131 828.601131 424.337145 824.22 413.31 824.22 
C 402.282855 824.22 391.705869 828.601131 383.9085 836.3985 
C 376.111131 844.195869 371.73 854.772855 371.73 865.8 
C 371.73 876.827145 376.111131 887.404131 383.9085 895.2015 
C 391.705869 902.998869 402.282855 907.38 413.31 907.38 
z
" style="opacity:0.75;stroke:#000000;stroke-linejoin:miter;"/>
   </g>
   <g id="patch_11">
    <path clip-path="url(#p745283736f)" d="M 514.95 801.12 
C 522.30143 801.12 529.352754 798.199246 534.551 793.001 
C 539.749246 787.802754 542.67 780.75143 542.67 773.4 
C 542.67 766.04857 539.749246 758.997246 534.551 753.799 
C 529.352754 748.600754 522.30143 745.68 514.95 745.68 
C 507.59857 745.68 500.547246 748.600754 495.349 753.799 
C 490.150754 758.997246 487.23 766.04857 487.23 773.4 
C 487.23 780.75143 490.150754 787.802754 495.349 793.001 
C 500.547246 798.199246 507.59857 801.12 514.95 801.12 
z
" style="opacity:0.75;stroke:#000000;stroke-linejoin:miter;"/>
   </g>
   <g id="patch_12">
    <path clip-path="url(#p745283736f)" d="M 390.21 662.52 
C 397.56143 662.52 404.612754 659.599246 409.811 654.401 
C 415.009246 649.202754 417.93 642.15143 417.93 634.8 
C 417.93 627.44857 415.009246 620.397246 409.811 615.199 
C 404.612754 610.000754 397.56143 607.08 390.21 607.08 
C 382.85857 607.08 375.807246 610.000754 370.609 615.199 
C 365.410754 620.397246 362.49 627.44857 362.49 634.8 
C 362.49 642.15143 365.410754 649.202754 370.609 654.401 
C 375.807246 659.599246 382.85857 662.52 390.21 662.52 
z
" style="opacity:0.75;stroke:#000000;stroke-linejoin:miter;"/>
   </g>
   <g id="patch_13">
    <path clip-path="url(#p745283736f)" d="M 293.19 810.36 
C 298.090953 810.36 302.791836 808.412831 306.257333 804.947333 
C 309.722831 801.481836 311.67 796.780953 311.67 791.88 
C 311.67 786.979047 309.722831 782.278164 306.257333 778.812667 
C 302.791836 775.347169 298.090953 773.4 293.19 773.4 
C 288.289047 773.4 283.588164 775.347169 280.122667 778.812667 
C 276.657169 782.278164 274.71 786.979047 274.71 791.88 
C 274.71 796.780953 276.657169 801.481836 280.122667 804.947333 
C 283.588164 808.412831 288.289047 810.36 293.19 810.36 
z
" style="opacity:0.75;stroke:#000000;stroke-linejoin:miter;"/>
   </g>
   <g id="patch_14">
    <path clip-path="url(#p745283736f)" d="M 283.95 708.72 
C 288.850953 708.72 293.551836 706.772831 297.017333 703.307333 
C 300.482831 699.841836 302.43 695.140953 302.43 690.24 
C 302.43 685.339047 300.482831 680.638164 297.017333 677.172667 
C 293.551836 673.707169 288.850953 671.76 283.95 671.76 
C 279.049047 671.76 274.348164 673.707169 270.882667 677.172667 
C 267.417169 680.638164 265.47 685.339047 265.47 690.24 
C 265.47 695.140953 267.417169 699.841836 270.882667 703.307333 
C 274.348164 706.772831 279.049047 708.72 283.95 708.72 
z
" style="opacity:0.75;stroke:#000000;stroke-linejoin:miter;"/>
   </g>
   <g id="patch_15">
    <path clip-path="url(#p745283736f)" d="M 353.25 653.28 
C 358.150953 653.28 362.851836 651.332831 366.317333 647.867333 
C 369.782831 644.401836 371.73 639.700953 371.73 634.8 
C 371.73 629.899047 369.782831 625.198164 366.317333 621.732667 
C 362.851836 618.267169 358.150953 616.32 353.25 616.32 
C 348.349047 616.32 343.648164 618.267169 340.182667 621.732667 
C 336.717169 625.198164 334.77 629.899047 334.77 634.8 
C 334.77 639.700953 336.717169 644.401836 340.182667 647.867333 
C 343.648164 651.332831 348.349047 653.28 353.25 653.28 
z
" style="opacity:0.75;stroke:#000000;stroke-linejoin:miter;"/>
   </g>
   <g id="patch_16">
    <path clip-path="url(#p745283736f)" d="M 385.59 745.68 
C 390.490953 745.68 395.191836 743.732831 398.657333 740.267333 
C 402.122831 736.801836 404.07 732.100953 404.07 727.2 
C 404.07 722.299047 402.122831 717.598164 398.657333 714.132667 
C 395.191836 710.667169 390.490953 708.72 385.59 708.72 
C 380.689047 708.72 375.988164 710.667169 372.522667 714.132667 
C 369.057169 717.598164 367.11 722.299047 367.11 727.2 
C 367.11 732.100953 369.057169 736.801836 372.522667 740.267333 
C 375.988164 743.732831 380.689047 745.68 385.59 745.68 
z
" style="fill:#ff00ff;opacity:0.5;stroke:#ff00ff;stroke-linejoin:miter;"/>
   </g>
   <g id="patch_17">
    <path clip-path="url(#p745283736f)" d="M 413.31 907.38 
C 424.337145 907.38 434.914131 902.998869 442.7115 895.2015 
C 450.508869 887.404131 454.89 876.827145 454.89 865.8 
C 454.89 854.772855 450.508869 844.195869 442.7115 836.3985 
C 434.914131 828.601131 424.337145 824.22 413.31 824.22 
C 402.282855 824.22 391.705869 828.601131 383.9085 836.3985 
C 376.111131 844.195869 371.73 854.772855 371.73 865.8 
C 371.73 876.827145 376.111131 887.404131 383.9085 895.2015 
C 391.705869 902.998869 402.282855 907.38 413.31 907.38 
z
" style="opacity:0.75;stroke:#000000;stroke-linejoin:miter;"/>
   </g>
   <g id="patch_18">
    <path clip-path="url(#p745283736f)" d="M 514.95 801.12 
C 522.30143 801.12 529.352754 798.199246 534.551 793.001 
C 539.749246 787.802754 542.67 780.75143 542.67 773.4 
C 542.67 766.04857 539.749246 758.997246 534.551 753.799 
C 529.352754 748.600754 522.30143 745.68 514.95 745.68 
C 507.59857 745.68 500.547246 748.600754 495.349 753.799 
C 490.150754 758.997246 487.23 766.04857 487.23 773.4 
C 487.23 780.75143 490.150754 787.802754 495.349 793.001 
C 500.547246 798.199246 507.59857 801.12 514.95 801.12 
z
" style="opacity:0.75;stroke:#000000;stroke-linejoin:miter;"/>
   </g>
   <g id="patch_19">
    <path clip-path="url(#p745283736f)" d="M 390.21 662.52 
C 397.56143 662.52 404.612754 659.599246 409.811 654.401 
C 415.009246 649.202754 417.93 642.15143 417.93 634.8 
C 417.93 627.44857 415.009246 620.397246 409.811 615.199 
C 404.612754 610.000754 397.56143 607.08 390.21 607.08 
C 382.85857 607.08 375.807246 610.000754 370.609 615.199 
C 365.410754 620.397246 362.49 627.44857 362.49 634.8 
C 362.49 642.15143 365.410754 649.202754 370.609 654.401 
C 375.807246 659.599246 382.85857 662.52 390.21 662.52 
z
" style="opacity:0.75;stroke:#000000;stroke-linejoin:miter;"/>
   </g>
   <g id="patch_20">
    <path clip-path="url(#p745283736f)" d="M 293.19 810.36 
C 298.090953 810.36 302.791836 808.412831 306.257333 804.947333 
C 309.722831 801.481836 311.67 796.780953 311.67 791.88 
C 311.67 786.979047 309.722831 782.278164 306.257333 778.812667 
C 302.791836 775.347169 298.090953 773.4 293.19 773.4 
C 288.289047 773.4 283.588164 775.347169 280.122667 778.812667 
C 276.657169 782.278164 274.71 786.979047 274.71 791.88 
C 274.71 796.780953 276.657169 801.481836 280.122667 804.947333 
C 283.588164 808.412831 288.289047 810.36 293.19 810.36 
z
" style="opacity:0.75;stroke:#000000;stroke-linejoin:miter;"/>
   </g>
   <g id="patch_21">
    <path clip-path="url(#p745283736f)" d="M 283.95 708.72 
C 288.850953 708.72 293.551836 706.772831 297.017333 703.307333 
C 300.482831 699.841836 302.43 695.140953 302.43 690.24 
C 302.43 685.339047 300.482831 680.638164 297.017333 677.172667 
C 293.551836 673.707169 288.850953 671.76 283.95 671.76 
C 279.049047 671.76 274.348164 673.707169 270.882667 677.172667 
C 267.417169 680.638164 265.47 685.339047 265.47 690.24 
C 265.47 695.140953 267.417169 699.841836 270.882667 703.307333 
C 274.348164 706.772831 279.049047 708.72 283.95 708.72 
z
" style="opacity:0.75;stroke:#000000;stroke-linejoin:miter;"/>
   </g>
   <g id="patch_22">
    <path clip-path="url(#p745283736f)" d="M 353.25 653.28 
C 358.150953 653.28 362.851836 651.332831 366.317333 647.867333 
C 369.782831 644.401836 371.73 639.700953 371.73 634.8 
C 371.73 629.899047 369.782831 625.198164 366.317333 621.732667 
C 362.851836 618.267169 358.150953 616.32 353.25 616.32 
C 348.349047 616.32 343.648164 618.267169 340.182667 621.732667 
C 336.717169 625.198164 334.77 629.899047 334.77 634.8 
C 334.77 639.700953 336.717169 644.401836 340.182667 647.867333 
C 343.648164 651.332831 348.349047 653.28 353.25 653.28 
z
" style="opacity:0.75;stroke:#000000;stroke-linejoin:miter;"/>
   </g>
   <g id="patch_23">
    <path clip-path="url(#p745283736f)" d="M 385.59 745.68 
C 390.490953 745.68 395.191836 743.732831 398.657333 740.267333 
C 402.122831 736.801836 404.07 732.100953 404.07 727.2 
C 404.07 722.299047 402.122831 717.598164 398.657333 714.132667 
C 395.191836 710.667169 390.490953 708.72 385.59 708.72 
C 380.689047 708.72 375.988164 710.667169 372.522667 714.132667 
C 369.057169 717.598164 367.11 722.299047 367.11 727.2 
C 367.11 732.100953 369.057169 736.801836 372.522667 740.267333 
C 375.988164 743.732831 380.689047 745.68 385.59 745.68 
z
" style="fill:#ff00ff;opacity:0.5;stroke:#ff00ff;stroke-linejoin:miter;"/>
   </g>
   <g id="patch_24">
    <path clip-path="url(#p745283736f)" d="M 413.31 907.38 
C 424.337145 907.38 434.914131 902.998869 442.7115 895.2015 
C 450.508869 887.404131 454.89 876.827145 454.89 865.8 
C 454.89 854.772855 450.508869 844.195869 442.7115 836.3985 
C 434.914131 828.601131 424.337145 824.22 413.31 824.22 
C 402.282855 824.22 391.705869 828.601131 383.9085 836.3985 
C 376.111131 844.195869 371.73 854.772855 371.73 865.8 
C 371.73 876.827145 376.111131 887.404131 383.9085 895.2015 
C 391.705869 902.998869 402.282855 907.38 413.31 907.38 
z
" style="opacity:0.75;stroke:#000000;stroke-linejoin:miter;"/>
   </g>
   <g id="patch_25">
    <path clip-path="url(#p745283736f)" d="M 514.95 801.12 
C 522.30143 801.12 529.352754 798.199246 534.551 793.001 
C 539.749246 787.802754 542.67 780.75143 542.67 773.4 
C 542.67 766.04857 539.749246 758.997246 534.551 753.799 
C 529.352754 748.600754 522.30143 745.68 514.95 745.68 
C 507.59857 745.68 500.547246 748.600754 495.349 753.799 
C 490.150754 758.997246 487.23 766.04857 487.23 773.4 
C 487.23 780.75143 490.150754 787.802754 495.349 793.001 
C 500.547246 798.199246 507.59857 801.12 514.95 801.12 
z
" style="opacity:0.75;stroke:#000000;stroke-linejoin:miter;"/>
   </g>
   <g id="patch_26">
    <path clip-path="url(#p745283736f)" d="M 390.21 662.52 
C 397.56143 662.52 404.612754 659.599246 409.811 654.401 
C 415.009246 649.202754 417.93 642.15143 417.93 634.8 
C 417.93 627.44857 415.009246 620.397246 409.811 615.199 
C 404.612754 610.000754 397.56143 607.08 390.21 607.08 
C 382.85857 607.08 375.807246 610.000754 370.609 615.199 
C 365.410754 620.397246 362.49 627.44857 362.49 634.8 
C 362.49 642.15143 365.410754 649.202754 370.609 654.401 
C 375.807246 659.599246 382.85857 662.52 390.21 662.52 
z
" style="opacity:0.75;stroke:#000000;stroke-linejoin:miter;"/>
   </g>
   <g id="patch_27">
    <path clip-path="url(#p745283736f)" d="M 293.19 810.36 
C 298.090953 810.36 302.791836 808.412831 306.257333 804.947333 
C 309.722831 801.481836 311.67 796.780953 311.67 791.88 
C 311.67 786.979047 309.722831 782.278164 306.257333 778.812667 
C 302.791836 775.347169 298.090953 773.4 293.19 773.4 
C 288.289047 773.4 283.588164 775.347169 280.122667 778.812667 
C 276.657169 782.278164 274.71 786.979047 274.71 791.88 
C 274.71 796.780953 276.657169 801.481836 280.122667 804.947333 
C 283.588164 808.412831 288.289047 810.36 293.19 810.36 
z
" style="opacity:0.75;stroke:#000000;stroke-linejoin:miter;"/>
   </g>
   <g id="patch_28">
    <path clip-path="url(#p745283736f)" d="M 283.95 708.72 
C 288.850953 708.72 293.551836 706.772831 297.017333 703.307333 
C 300.482831 699.841836 302.43 695.140953 302.43 690.24 
C 302.43 685.339047 300.482831 680.638164 297.017333 677.172667 
C 293.551836 673.707169 288.850953 671.76 283.95 671.76 
C 279.049047 671.76 274.348164 673.707169 270.882667 677.172667 
C 267.417169 680.638164 265.47 685.339047 265.47 690.24 
C 265.47 695.140953 267.417169 699.841836 270.882667 703.307333 
C 274.348164 706.772831 279.049047 708.72 283.95 708.72 
z
" style="opacity:0.75;stroke:#000000;stroke-linejoin:miter;"/>
   </g>
   <g id="patch_29">
    <path clip-path="url(#p745283736f)" d="M 353.25 653.28 
C 358.150953 653.28 362.851836 651.332831 366.317333 647.867333 
C 369.782831 644.401836 371.73 639.700953 371.73 634.8 
C 371.73 629.899047 369.782831 625.198164 366.317333 621.732667 
C 362.851836 618.267169 358.150953 616.32 353.25 616.32 
C 348.349047 616.32 343.648164 618.267169 340.182667 621.732667 
C 336.717169 625.198164 334.77 629.899047 334.77 634.8 
C 334.77 639.700953 336.717169 644.401836 340.182667 647.867333 
C 343.648164 651.332831 348.349047 653.28 353.25 653.28 
z
" style="opacity:0.75;stroke:#000000;stroke-linejoin:miter;"/>
   </g>
   <g id="line2d_1">
    <path clip-path="url(#p745283736f)" d="M 531.0215 660.139132 
L 527.779949 667.567042 
L 524.541596 674.991191 
L 521.282827 682.402382 
L 517.969409 689.786047 
L 514.567028 697.126435 
L 511.043518 704.407172 
L 507.368271 711.610583 
L 503.511056 718.716641 
L 499.441012 725.701759 
L 495.125943 732.537395 
L 490.531812 739.188276 
L 485.62217 745.609808 
L 480.357643 751.744233 
L 474.697213 757.516236 
L 468.615135 762.840286 
L 462.144677 767.676069 
L 455.351483 772.034492 
L 448.249144 775.85787 
L 440.829817 779.013335 
L 433.107301 781.321966 
L 425.147825 782.586915 
L 417.087769 782.62692 
L 409.132023 781.315721 
L 401.527235 778.619475 
L 394.519228 774.604013 
L 388.319831 769.41035 
L 383.09685 763.220164 
L 378.976308 756.23403 
L 376.044167 748.662123 
L 374.352802 740.716864 
" style="fill:none;stroke:#0000ff;stroke-linecap:square;stroke-opacity:0.4;stroke-width:2;"/>
   </g>
   <g id="line2d_2">
    <path clip-path="url(#p745283736f)" d="M 270.022758 954.196928 
L 270.118636 950.468769 
L 270.215114 946.743308 
L 270.312894 943.020152 
L 270.41273 939.298978 
L 270.515438 935.579521 
L 270.621876 931.86157 
L 270.7329 928.144952 
L 270.849321 924.429532 
L 270.971851 920.715198 
L 271.101045 917.001858 
L 271.237252 913.289433 
L 271.380559 909.577846 
L 271.530734 905.867017 
L 271.687179 902.156854 
L 271.848877 898.447244 
L 272.014343 894.738053 
L 272.181581 891.029113 
L 272.348045 887.320226 
L 272.510606 883.611162 
L 272.665527 879.901665 
L 272.808457 876.191469 
L 272.934427 872.480312 
L 273.037878 868.767968 
L 273.112695 865.05428 
L 273.152274 861.339201 
L 273.14961 857.622846 
L 273.09741 853.90554 
L 272.988238 850.187868 
L 272.814679 846.470716 
L 272.569528 842.755305 
L 272.246003 839.04319 
L 271.837965 835.33625 
L 271.340164 831.636628 
L 270.748487 827.946638 
L 270.060211 824.268627 
L 269.274247 820.604795 
L 268.391341 816.956976 
L 267.414208 813.326415 
L 266.347545 809.71355 
L 265.197897 806.117872 
L 263.97331 802.537877 
L 262.685634 798.964524 
L 261.372419 795.363368 
L 260.12566 791.683459 
L 259.053948 787.892542 
L 258.247105 783.985533 
L 257.767614 779.972986 
L 257.687824 775.880519 
L 258.03516 771.75715 
L 258.791095 767.649062 
L 259.914995 763.590081 
L 261.360619 759.60121 
L 263.084988 755.69398 
L 265.052254 751.874375 
L 267.234824 748.146096 
L 269.613061 744.51291 
L 272.174309 740.980167 
L 274.911583 737.555679 
L 277.822144 734.250127 
L 280.906057 731.077122 
L 284.1648 728.053006 
L 287.599977 725.196436 
L 291.212162 722.52766 
L 294.999796 720.067476 
L 298.958669 717.836648 
L 303.081639 715.855233 
L 307.358502 714.141819 
L 311.776122 712.712837 
L 316.318775 711.582108 
L 320.968625 710.760699 
L 325.706188 710.257023 
L 330.51068 710.077037 
L 335.360228 710.224322 
L 340.231985 710.699904 
L 345.102274 711.501787 
L 349.946801 712.624363 
L 354.740903 714.058029 
L 359.459632 715.789274 
L 364.077435 717.801295 
L 368.567308 720.074896 
" style="fill:none;stroke:#0000ff;stroke-linecap:square;stroke-opacity:0.4;stroke-width:2;"/>
   </g>
   <g id="line2d_3">
    <path clip-path="url(#p745283736f)" d="M 162.274018 937.508634 
L 168.536807 934.933794 
L 174.793388 932.349254 
L 181.041766 929.750128 
L 187.281876 927.13626 
L 193.514892 924.510472 
L 199.742805 921.877515 
L 205.96817 919.243455 
L 212.193927 916.615297 
L 218.423259 914.000709 
L 224.659441 911.407735 
L 230.905653 908.844454 
L 237.164776 906.318529 
L 243.439137 903.83664 
L 249.730254 901.403788 
L 256.038566 899.022485 
L 262.363186 896.691869 
L 268.701679 894.406775 
L 275.049852 892.156848 
L 281.401545 889.925746 
L 287.748367 887.690546 
L 294.079308 885.421422 
L 300.380175 883.081701 
L 306.632787 880.628386 
L 312.81394 878.013278 
L 318.89421 875.184776 
L 324.836784 872.090452 
L 330.596619 868.680387 
L 336.120317 864.911137 
L 341.347181 860.750034 
L 346.211906 856.179367 
L 350.649199 851.199767 
L 354.600166 845.831856 
L 358.019331 840.115068 
L 360.880191 834.103172 
L 363.176707 827.857167 
L 364.920281 821.437894 
L 366.186553 814.917496 
L 367.230307 808.372889 
L 368.21783 801.830514 
L 369.216074 795.297147 
L 370.346672 788.779089 
L 372.136133 782.41651 
L 375.222756 776.620664 
L 379.690089 771.858088 
L 385.082584 768.140082 
L 391.006527 765.233926 
L 397.211493 762.908804 
L 403.547368 760.921714 
L 409.923204 759.055824 
L 416.276982 757.12993 
L 422.553493 754.990269 
L 428.690312 752.504004 
L 434.608877 749.558177 
L 440.210117 746.064181 
L 445.375192 741.965718 
L 449.97096 737.246327 
L 453.859497 731.934172 
L 456.910035 726.102525 
L 459.011381 719.865568 
L 460.08115 713.369684 
L 460.070973 706.782844 
L 458.968031 700.284294 
L 456.793978 694.055892 
L 453.602808 688.27533 
L 449.478954 683.11047 
L 444.534744 678.714743 
L 438.9079 675.223062 
L 432.759035 672.747608 
L 426.268656 671.372608 
L 419.632423 671.147066 
L 413.052479 672.077783 
L 406.724968 674.126053 
L 400.826401 677.210862 
L 395.50314 681.219282 
L 390.818224 685.966732 
L 386.625019 691.159576 
L 382.813564 696.648275 
L 379.349361 702.374193 
L 376.233725 708.307276 
L 373.48001 714.421208 
" style="fill:none;stroke:#0000ff;stroke-linecap:square;stroke-opacity:0.4;stroke-width:2;"/>
   </g>
   <g id="line2d_4">
    <path clip-path="url(#p745283736f)" d="M 175.664318 619.101711 
L 180.099414 625.389376 
L 184.538513 631.672864 
L 188.97812 637.954762 
L 193.409625 644.241216 
L 197.822881 650.539365 
L 202.208167 656.855896 
L 206.557528 663.196077 
L 210.865942 669.562974 
L 215.132524 675.956743 
L 219.361751 682.373957 
L 223.5647 688.806968 
L 227.760124 695.243282 
L 231.975234 701.6649 
L 236.245948 708.047592 
L 240.616348 714.360049 
L 245.137119 720.562954 
L 249.86274 726.60812 
L 254.847419 732.437975 
L 260.140037 737.985798 
L 265.778679 743.177088 
L 271.785542 747.932407 
L 278.162926 752.172004 
L 284.891058 755.822318 
L 291.928792 758.82343 
L 299.21806 761.134556 
L 306.690815 762.736034 
L 314.252407 763.77234 
L 321.743511 764.97468 
L 328.937852 767.177126 
L 335.615407 770.557319 
L 341.737151 774.81697 
L 347.454075 779.572804 
L 352.996964 784.501714 
L 358.592896 789.344223 
L 364.421985 793.879295 
L 370.597081 797.908473 
L 377.157399 801.254152 
L 384.073269 803.766725 
L 391.25935 805.334581 
L 398.593234 805.891098 
L 405.935206 805.415043 
L 413.14514 803.925893 
L 420.094767 801.4758 
L 426.674619 798.139476 
L 432.796236 794.004545 
L 438.391301 789.164084 
L 443.409 783.711325 
L 447.8123 777.736071 
L 451.574519 771.323192 
L 454.675892 764.552109 
L 457.100987 757.497408 
L 458.836302 750.229911 
L 459.868195 742.818278 
L 460.181675 735.331148 
L 459.760033 727.839609 
L 458.585449 720.419822 
L 456.640652 713.155607 
L 453.911386 706.140839 
L 450.390295 699.481247 
L 446.082215 693.294974 
L 441.010412 687.711252 
L 435.222961 682.866696 
L 428.798095 678.899249 
L 421.847536 675.940197 
L 414.517103 674.105115 
L 406.984398 673.485335 
L 399.454606 674.142812 
L 392.158158 676.109984 
L 385.353587 679.389753 
L 379.281303 683.826884 
L 373.858863 688.917053 
L 368.888943 694.324069 
L 364.420473 700.058564 
L 360.731785 706.254453 
L 358.253522 712.976475 
L 357.476422 720.063981 
L 358.765414 727.055094 
L 362.15137 733.297483 
L 367.301601 738.191142 
L 373.68169 741.331348 
" style="fill:none;stroke:#0000ff;stroke-linecap:square;stroke-opacity:0.4;stroke-width:2;"/>
   </g>
   <g id="text_1">
    <!-- Iteration: None -->
    <g transform="translate(539.217188 166.8)scale(0.12 -0.12)">
     <defs>
      <path d="M 9.8125 72.90625 
L 19.671875 72.90625 
L 19.671875 0 
L 9.8125 0 
z
" id="DejaVuSans-73"/>
      <path d="M 18.3125 70.21875 
L 18.3125 54.6875 
L 36.8125 54.6875 
L 36.8125 47.703125 
L 18.3125 47.703125 
L 18.3125 18.015625 
Q 18.3125 11.328125 20.140625 9.421875 
Q 21.96875 7.515625 27.59375 7.515625 
L 36.8125 7.515625 
L 36.8125 0 
L 27.59375 0 
Q 17.1875 0 13.234375 3.875 
Q 9.28125 7.765625 9.28125 18.015625 
L 9.28125 47.703125 
L 2.6875 47.703125 
L 2.6875 54.6875 
L 9.28125 54.6875 
L 9.28125 70.21875 
z
" id="DejaVuSans-116"/>
      <path d="M 56.203125 29.59375 
L 56.203125 25.203125 
L 14.890625 25.203125 
Q 15.484375 15.921875 20.484375 11.0625 
Q 25.484375 6.203125 34.421875 6.203125 
Q 39.59375 6.203125 44.453125 7.46875 
Q 49.3125 8.734375 54.109375 11.28125 
L 54.109375 2.78125 
Q 49.265625 0.734375 44.1875 -0.34375 
Q 39.109375 -1.421875 33.890625 -1.421875 
Q 20.796875 -1.421875 13.15625 6.1875 
Q 5.515625 13.8125 5.515625 26.8125 
Q 5.515625 40.234375 12.765625 48.109375 
Q 20.015625 56 32.328125 56 
Q 43.359375 56 49.78125 48.890625 
Q 56.203125 41.796875 56.203125 29.59375 
z
M 47.21875 32.234375 
Q 47.125 39.59375 43.09375 43.984375 
Q 39.0625 48.390625 32.421875 48.390625 
Q 24.90625 48.390625 20.390625 44.140625 
Q 15.875 39.890625 15.1875 32.171875 
z
" id="DejaVuSans-101"/>
      <path d="M 41.109375 46.296875 
Q 39.59375 47.171875 37.8125 47.578125 
Q 36.03125 48 33.890625 48 
Q 26.265625 48 22.1875 43.046875 
Q 18.109375 38.09375 18.109375 28.8125 
L 18.109375 0 
L 9.078125 0 
L 9.078125 54.6875 
L 18.109375 54.6875 
L 18.109375 46.1875 
Q 20.953125 51.171875 25.484375 53.578125 
Q 30.03125 56 36.53125 56 
Q 37.453125 56 38.578125 55.875 
Q 39.703125 55.765625 41.0625 55.515625 
z
" id="DejaVuSans-114"/>
      <path d="M 34.28125 27.484375 
Q 23.390625 27.484375 19.1875 25 
Q 14.984375 22.515625 14.984375 16.5 
Q 14.984375 11.71875 18.140625 8.90625 
Q 21.296875 6.109375 26.703125 6.109375 
Q 34.1875 6.109375 38.703125 11.40625 
Q 43.21875 16.703125 43.21875 25.484375 
L 43.21875 27.484375 
z
M 52.203125 31.203125 
L 52.203125 0 
L 43.21875 0 
L 43.21875 8.296875 
Q 40.140625 3.328125 35.546875 0.953125 
Q 30.953125 -1.421875 24.3125 -1.421875 
Q 15.921875 -1.421875 10.953125 3.296875 
Q 6 8.015625 6 15.921875 
Q 6 25.140625 12.171875 29.828125 
Q 18.359375 34.515625 30.609375 34.515625 
L 43.21875 34.515625 
L 43.21875 35.40625 
Q 43.21875 41.609375 39.140625 45 
Q 35.0625 48.390625 27.6875 48.390625 
Q 23 48.390625 18.546875 47.265625 
Q 14.109375 46.140625 10.015625 43.890625 
L 10.015625 52.203125 
Q 14.9375 54.109375 19.578125 55.046875 
Q 24.21875 56 28.609375 56 
Q 40.484375 56 46.34375 49.84375 
Q 52.203125 43.703125 52.203125 31.203125 
z
" id="DejaVuSans-97"/>
      <path d="M 9.421875 54.6875 
L 18.40625 54.6875 
L 18.40625 0 
L 9.421875 0 
z
M 9.421875 75.984375 
L 18.40625 75.984375 
L 18.40625 64.59375 
L 9.421875 64.59375 
z
" id="DejaVuSans-105"/>
      <path d="M 30.609375 48.390625 
Q 23.390625 48.390625 19.1875 42.75 
Q 14.984375 37.109375 14.984375 27.296875 
Q 14.984375 17.484375 19.15625 11.84375 
Q 23.34375 6.203125 30.609375 6.203125 
Q 37.796875 6.203125 41.984375 11.859375 
Q 46.1875 17.53125 46.1875 27.296875 
Q 46.1875 37.015625 41.984375 42.703125 
Q 37.796875 48.390625 30.609375 48.390625 
z
M 30.609375 56 
Q 42.328125 56 49.015625 48.375 
Q 55.71875 40.765625 55.71875 27.296875 
Q 55.71875 13.875 49.015625 6.21875 
Q 42.328125 -1.421875 30.609375 -1.421875 
Q 18.84375 -1.421875 12.171875 6.21875 
Q 5.515625 13.875 5.515625 27.296875 
Q 5.515625 40.765625 12.171875 48.375 
Q 18.84375 56 30.609375 56 
z
" id="DejaVuSans-111"/>
      <path d="M 54.890625 33.015625 
L 54.890625 0 
L 45.90625 0 
L 45.90625 32.71875 
Q 45.90625 40.484375 42.875 44.328125 
Q 39.84375 48.1875 33.796875 48.1875 
Q 26.515625 48.1875 22.3125 43.546875 
Q 18.109375 38.921875 18.109375 30.90625 
L 18.109375 0 
L 9.078125 0 
L 9.078125 54.6875 
L 18.109375 54.6875 
L 18.109375 46.1875 
Q 21.34375 51.125 25.703125 53.5625 
Q 30.078125 56 35.796875 56 
Q 45.21875 56 50.046875 50.171875 
Q 54.890625 44.34375 54.890625 33.015625 
z
" id="DejaVuSans-110"/>
      <path d="M 11.71875 12.40625 
L 22.015625 12.40625 
L 22.015625 0 
L 11.71875 0 
z
M 11.71875 51.703125 
L 22.015625 51.703125 
L 22.015625 39.3125 
L 11.71875 39.3125 
z
" id="DejaVuSans-58"/>
      <path id="DejaVuSans-32"/>
      <path d="M 9.8125 72.90625 
L 23.09375 72.90625 
L 55.421875 11.921875 
L 55.421875 72.90625 
L 64.984375 72.90625 
L 64.984375 0 
L 51.703125 0 
L 19.390625 60.984375 
L 19.390625 0 
L 9.8125 0 
z
" id="DejaVuSans-78"/>
     </defs>
     <use xlink:href="#DejaVuSans-73"/>
     <use x="29.492188" xlink:href="#DejaVuSans-116"/>
     <use x="68.701172" xlink:href="#DejaVuSans-101"/>
     <use x="130.224609" xlink:href="#DejaVuSans-114"/>
     <use x="171.337891" xlink:href="#DejaVuSans-97"/>
     <use x="232.617188" xlink:href="#DejaVuSans-116"/>
     <use x="271.826172" xlink:href="#DejaVuSans-105"/>
     <use x="299.609375" xlink:href="#DejaVuSans-111"/>
     <use x="360.791016" xlink:href="#DejaVuSans-110"/>
     <use x="424.169922" xlink:href="#DejaVuSans-58"/>
     <use x="457.861328" xlink:href="#DejaVuSans-32"/>
     <use x="489.648438" xlink:href="#DejaVuSans-78"/>
     <use x="564.453125" xlink:href="#DejaVuSans-111"/>
     <use x="625.634766" xlink:href="#DejaVuSans-110"/>
     <use x="689.013672" xlink:href="#DejaVuSans-101"/>
    </g>
   </g>
   <g id="PathCollection_1">
    <defs>
     <path d="M 0 3 
C 0.795609 3 1.55874 2.683901 2.12132 2.12132 
C 2.683901 1.55874 3 0.795609 3 0 
C 3 -0.795609 2.683901 -1.55874 2.12132 -2.12132 
C 1.55874 -2.683901 0.795609 -3 0 -3 
C -0.795609 -3 -1.55874 -2.683901 -2.12132 -2.12132 
C -2.683901 -1.55874 -3 -0.795609 -3 0 
C -3 0.795609 -2.683901 1.55874 -2.12132 2.12132 
C -1.55874 2.683901 -0.795609 3 0 3 
z
" id="me09b872e00" style="stroke:#b22222;"/>
    </defs>
    <g clip-path="url(#p745283736f)">
     <use style="fill:#b22222;stroke:#b22222;" x="531.0215" xlink:href="#me09b872e00" y="660.139132"/>
    </g>
   </g>
   <g id="PathCollection_2">
    <defs>
     <path d="M 0 3 
C 0.795609 3 1.55874 2.683901 2.12132 2.12132 
C 2.683901 1.55874 3 0.795609 3 0 
C 3 -0.795609 2.683901 -1.55874 2.12132 -2.12132 
C 1.55874 -2.683901 0.795609 -3 0 -3 
C -0.795609 -3 -1.55874 -2.683901 -2.12132 -2.12132 
C -2.683901 -1.55874 -3 -0.795609 -3 0 
C -3 0.795609 -2.683901 1.55874 -2.12132 2.12132 
C -1.55874 2.683901 -0.795609 3 0 3 
z
" id="m9e8a666fd8" style="stroke:#00ffff;stroke-opacity:0.4;"/>
    </defs>
    <g clip-path="url(#p745283736f)">
     <use style="fill:#00ffff;fill-opacity:0.4;stroke:#00ffff;stroke-opacity:0.4;" x="374.352802" xlink:href="#m9e8a666fd8" y="740.716864"/>
    </g>
   </g>
   <g id="PathCollection_3">
    <g clip-path="url(#p745283736f)">
     <use style="fill:#b22222;stroke:#b22222;" x="270.022758" xlink:href="#me09b872e00" y="954.196928"/>
    </g>
   </g>
   <g id="PathCollection_4">
    <g clip-path="url(#p745283736f)">
     <use style="fill:#00ffff;fill-opacity:0.4;stroke:#00ffff;stroke-opacity:0.4;" x="368.567308" xlink:href="#m9e8a666fd8" y="720.074896"/>
    </g>
   </g>
   <g id="PathCollection_5">
    <g clip-path="url(#p745283736f)">
     <use style="fill:#b22222;stroke:#b22222;" x="162.274018" xlink:href="#me09b872e00" y="937.508634"/>
    </g>
   </g>
   <g id="PathCollection_6">
    <g clip-path="url(#p745283736f)">
     <use style="fill:#00ffff;fill-opacity:0.4;stroke:#00ffff;stroke-opacity:0.4;" x="373.48001" xlink:href="#m9e8a666fd8" y="714.421208"/>
    </g>
   </g>
   <g id="PathCollection_7">
    <g clip-path="url(#p745283736f)">
     <use style="fill:#b22222;stroke:#b22222;" x="175.664318" xlink:href="#me09b872e00" y="619.101711"/>
    </g>
   </g>
   <g id="PathCollection_8">
    <g clip-path="url(#p745283736f)">
     <use style="fill:#00ffff;fill-opacity:0.4;stroke:#00ffff;stroke-opacity:0.4;" x="373.68169" xlink:href="#m9e8a666fd8" y="741.331348"/>
    </g>
   </g>
  </g>
 </g>
 <defs>
  <clipPath id="p745283736f">
   <rect height="1108.8" width="877.8" x="145.35" y="172.8"/>
  </clipPath>
 </defs>
</svg>
