<?xml version="1.0" encoding="utf-8" standalone="no"?>
<!DOCTYPE svg PUBLIC "-//W3C//DTD SVG 1.1//EN"
  "http://www.w3.org/Graphics/SVG/1.1/DTD/svg11.dtd">
<!-- Created with matplotlib (https://matplotlib.org/) -->
<svg height="1440pt" version="1.1" viewBox="0 0 1140 1440" width="1140pt" xmlns="http://www.w3.org/2000/svg" xmlns:xlink="http://www.w3.org/1999/xlink">
 <metadata>
  <rdf:RDF xmlns:cc="http://creativecommons.org/ns#" xmlns:dc="http://purl.org/dc/elements/1.1/" xmlns:rdf="http://www.w3.org/1999/02/22-rdf-syntax-ns#">
   <cc:Work>
    <dc:type rdf:resource="http://purl.org/dc/dcmitype/StillImage"/>
    <dc:date>2022-02-17T18:47:17.431086</dc:date>
    <dc:format>image/svg+xml</dc:format>
    <dc:creator>
     <cc:Agent>
      <dc:title>Matplotlib v3.3.2, https://matplotlib.org/</dc:title>
     </cc:Agent>
    </dc:creator>
   </cc:Work>
  </rdf:RDF>
 </metadata>
 <defs>
  <style type="text/css">*{stroke-linecap:butt;stroke-linejoin:round;}</style>
 </defs>
 <g id="figure_1">
  <g id="patch_1">
   <path d="M 0 1440 
L 1140 1440 
L 1140 0 
L 0 0 
z
" style="fill:#ffffff;"/>
  </g>
  <g id="axes_1">
   <g id="patch_2">
    <path clip-path="url(#p6d58024bd7)" d="M 385.59 745.68 
C 390.490953 745.68 395.191836 743.732831 398.657333 740.267333 
C 402.122831 736.801836 404.07 732.100953 404.07 727.2 
C 404.07 722.299047 402.122831 717.598164 398.657333 714.132667 
C 395.191836 710.667169 390.490953 708.72 385.59 708.72 
C 380.689047 708.72 375.988164 710.667169 372.522667 714.132667 
C 369.057169 717.598164 367.11 722.299047 367.11 727.2 
C 367.11 732.100953 369.057169 736.801836 372.522667 740.267333 
C 375.988164 743.732831 380.689047 745.68 385.59 745.68 
z
" style="fill:#ff00ff;opacity:0.5;stroke:#ff00ff;stroke-linejoin:miter;"/>
   </g>
   <g id="patch_3">
    <path clip-path="url(#p6d58024bd7)" d="M 413.31 907.38 
C 424.337145 907.38 434.914131 902.998869 442.7115 895.2015 
C 450.508869 887.404131 454.89 876.827145 454.89 865.8 
C 454.89 854.772855 450.508869 844.195869 442.7115 836.3985 
C 434.914131 828.601131 424.337145 824.22 413.31 824.22 
C 402.282855 824.22 391.705869 828.601131 383.9085 836.3985 
C 376.111131 844.195869 371.73 854.772855 371.73 865.8 
C 371.73 876.827145 376.111131 887.404131 383.9085 895.2015 
C 391.705869 902.998869 402.282855 907.38 413.31 907.38 
z
" style="opacity:0.75;stroke:#000000;stroke-linejoin:miter;"/>
   </g>
   <g id="patch_4">
    <path clip-path="url(#p6d58024bd7)" d="M 514.95 801.12 
C 522.30143 801.12 529.352754 798.199246 534.551 793.001 
C 539.749246 787.802754 542.67 780.75143 542.67 773.4 
C 542.67 766.04857 539.749246 758.997246 534.551 753.799 
C 529.352754 748.600754 522.30143 745.68 514.95 745.68 
C 507.59857 745.68 500.547246 748.600754 495.349 753.799 
C 490.150754 758.997246 487.23 766.04857 487.23 773.4 
C 487.23 780.75143 490.150754 787.802754 495.349 793.001 
C 500.547246 798.199246 507.59857 801.12 514.95 801.12 
z
" style="opacity:0.75;stroke:#000000;stroke-linejoin:miter;"/>
   </g>
   <g id="patch_5">
    <path clip-path="url(#p6d58024bd7)" d="M 390.21 662.52 
C 397.56143 662.52 404.612754 659.599246 409.811 654.401 
C 415.009246 649.202754 417.93 642.15143 417.93 634.8 
C 417.93 627.44857 415.009246 620.397246 409.811 615.199 
C 404.612754 610.000754 397.56143 607.08 390.21 607.08 
C 382.85857 607.08 375.807246 610.000754 370.609 615.199 
C 365.410754 620.397246 362.49 627.44857 362.49 634.8 
C 362.49 642.15143 365.410754 649.202754 370.609 654.401 
C 375.807246 659.599246 382.85857 662.52 390.21 662.52 
z
" style="opacity:0.75;stroke:#000000;stroke-linejoin:miter;"/>
   </g>
   <g id="patch_6">
    <path clip-path="url(#p6d58024bd7)" d="M 293.19 810.36 
C 298.090953 810.36 302.791836 808.412831 306.257333 804.947333 
C 309.722831 801.481836 311.67 796.780953 311.67 791.88 
C 311.67 786.979047 309.722831 782.278164 306.257333 778.812667 
C 302.791836 775.347169 298.090953 773.4 293.19 773.4 
C 288.289047 773.4 283.588164 775.347169 280.122667 778.812667 
C 276.657169 782.278164 274.71 786.979047 274.71 791.88 
C 274.71 796.780953 276.657169 801.481836 280.122667 804.947333 
C 283.588164 808.412831 288.289047 810.36 293.19 810.36 
z
" style="opacity:0.75;stroke:#000000;stroke-linejoin:miter;"/>
   </g>
   <g id="patch_7">
    <path clip-path="url(#p6d58024bd7)" d="M 283.95 708.72 
C 288.850953 708.72 293.551836 706.772831 297.017333 703.307333 
C 300.482831 699.841836 302.43 695.140953 302.43 690.24 
C 302.43 685.339047 300.482831 680.638164 297.017333 677.172667 
C 293.551836 673.707169 288.850953 671.76 283.95 671.76 
C 279.049047 671.76 274.348164 673.707169 270.882667 677.172667 
C 267.417169 680.638164 265.47 685.339047 265.47 690.24 
C 265.47 695.140953 267.417169 699.841836 270.882667 703.307333 
C 274.348164 706.772831 279.049047 708.72 283.95 708.72 
z
" style="opacity:0.75;stroke:#000000;stroke-linejoin:miter;"/>
   </g>
   <g id="patch_8">
    <path clip-path="url(#p6d58024bd7)" d="M 353.25 653.28 
C 358.150953 653.28 362.851836 651.332831 366.317333 647.867333 
C 369.782831 644.401836 371.73 639.700953 371.73 634.8 
C 371.73 629.899047 369.782831 625.198164 366.317333 621.732667 
C 362.851836 618.267169 358.150953 616.32 353.25 616.32 
C 348.349047 616.32 343.648164 618.267169 340.182667 621.732667 
C 336.717169 625.198164 334.77 629.899047 334.77 634.8 
C 334.77 639.700953 336.717169 644.401836 340.182667 647.867333 
C 343.648164 651.332831 348.349047 653.28 353.25 653.28 
z
" style="opacity:0.75;stroke:#000000;stroke-linejoin:miter;"/>
   </g>
   <g id="patch_9">
    <path clip-path="url(#p6d58024bd7)" d="M 385.59 745.68 
C 390.490953 745.68 395.191836 743.732831 398.657333 740.267333 
C 402.122831 736.801836 404.07 732.100953 404.07 727.2 
C 404.07 722.299047 402.122831 717.598164 398.657333 714.132667 
C 395.191836 710.667169 390.490953 708.72 385.59 708.72 
C 380.689047 708.72 375.988164 710.667169 372.522667 714.132667 
C 369.057169 717.598164 367.11 722.299047 367.11 727.2 
C 367.11 732.100953 369.057169 736.801836 372.522667 740.267333 
C 375.988164 743.732831 380.689047 745.68 385.59 745.68 
z
" style="fill:#ff00ff;opacity:0.5;stroke:#ff00ff;stroke-linejoin:miter;"/>
   </g>
   <g id="patch_10">
    <path clip-path="url(#p6d58024bd7)" d="M 413.31 907.38 
C 424.337145 907.38 434.914131 902.998869 442.7115 895.2015 
C 450.508869 887.404131 454.89 876.827145 454.89 865.8 
C 454.89 854.772855 450.508869 844.195869 442.7115 836.3985 
C 434.914131 828.601131 424.337145 824.22 413.31 824.22 
C 402.282855 824.22 391.705869 828.601131 383.9085 836.3985 
C 376.111131 844.195869 371.73 854.772855 371.73 865.8 
C 371.73 876.827145 376.111131 887.404131 383.9085 895.2015 
C 391.705869 902.998869 402.282855 907.38 413.31 907.38 
z
" style="opacity:0.75;stroke:#000000;stroke-linejoin:miter;"/>
   </g>
   <g id="patch_11">
    <path clip-path="url(#p6d58024bd7)" d="M 514.95 801.12 
C 522.30143 801.12 529.352754 798.199246 534.551 793.001 
C 539.749246 787.802754 542.67 780.75143 542.67 773.4 
C 542.67 766.04857 539.749246 758.997246 534.551 753.799 
C 529.352754 748.600754 522.30143 745.68 514.95 745.68 
C 507.59857 745.68 500.547246 748.600754 495.349 753.799 
C 490.150754 758.997246 487.23 766.04857 487.23 773.4 
C 487.23 780.75143 490.150754 787.802754 495.349 793.001 
C 500.547246 798.199246 507.59857 801.12 514.95 801.12 
z
" style="opacity:0.75;stroke:#000000;stroke-linejoin:miter;"/>
   </g>
   <g id="patch_12">
    <path clip-path="url(#p6d58024bd7)" d="M 390.21 662.52 
C 397.56143 662.52 404.612754 659.599246 409.811 654.401 
C 415.009246 649.202754 417.93 642.15143 417.93 634.8 
C 417.93 627.44857 415.009246 620.397246 409.811 615.199 
C 404.612754 610.000754 397.56143 607.08 390.21 607.08 
C 382.85857 607.08 375.807246 610.000754 370.609 615.199 
C 365.410754 620.397246 362.49 627.44857 362.49 634.8 
C 362.49 642.15143 365.410754 649.202754 370.609 654.401 
C 375.807246 659.599246 382.85857 662.52 390.21 662.52 
z
" style="opacity:0.75;stroke:#000000;stroke-linejoin:miter;"/>
   </g>
   <g id="patch_13">
    <path clip-path="url(#p6d58024bd7)" d="M 293.19 810.36 
C 298.090953 810.36 302.791836 808.412831 306.257333 804.947333 
C 309.722831 801.481836 311.67 796.780953 311.67 791.88 
C 311.67 786.979047 309.722831 782.278164 306.257333 778.812667 
C 302.791836 775.347169 298.090953 773.4 293.19 773.4 
C 288.289047 773.4 283.588164 775.347169 280.122667 778.812667 
C 276.657169 782.278164 274.71 786.979047 274.71 791.88 
C 274.71 796.780953 276.657169 801.481836 280.122667 804.947333 
C 283.588164 808.412831 288.289047 810.36 293.19 810.36 
z
" style="opacity:0.75;stroke:#000000;stroke-linejoin:miter;"/>
   </g>
   <g id="patch_14">
    <path clip-path="url(#p6d58024bd7)" d="M 283.95 708.72 
C 288.850953 708.72 293.551836 706.772831 297.017333 703.307333 
C 300.482831 699.841836 302.43 695.140953 302.43 690.24 
C 302.43 685.339047 300.482831 680.638164 297.017333 677.172667 
C 293.551836 673.707169 288.850953 671.76 283.95 671.76 
C 279.049047 671.76 274.348164 673.707169 270.882667 677.172667 
C 267.417169 680.638164 265.47 685.339047 265.47 690.24 
C 265.47 695.140953 267.417169 699.841836 270.882667 703.307333 
C 274.348164 706.772831 279.049047 708.72 283.95 708.72 
z
" style="opacity:0.75;stroke:#000000;stroke-linejoin:miter;"/>
   </g>
   <g id="patch_15">
    <path clip-path="url(#p6d58024bd7)" d="M 353.25 653.28 
C 358.150953 653.28 362.851836 651.332831 366.317333 647.867333 
C 369.782831 644.401836 371.73 639.700953 371.73 634.8 
C 371.73 629.899047 369.782831 625.198164 366.317333 621.732667 
C 362.851836 618.267169 358.150953 616.32 353.25 616.32 
C 348.349047 616.32 343.648164 618.267169 340.182667 621.732667 
C 336.717169 625.198164 334.77 629.899047 334.77 634.8 
C 334.77 639.700953 336.717169 644.401836 340.182667 647.867333 
C 343.648164 651.332831 348.349047 653.28 353.25 653.28 
z
" style="opacity:0.75;stroke:#000000;stroke-linejoin:miter;"/>
   </g>
   <g id="patch_16">
    <path clip-path="url(#p6d58024bd7)" d="M 385.59 745.68 
C 390.490953 745.68 395.191836 743.732831 398.657333 740.267333 
C 402.122831 736.801836 404.07 732.100953 404.07 727.2 
C 404.07 722.299047 402.122831 717.598164 398.657333 714.132667 
C 395.191836 710.667169 390.490953 708.72 385.59 708.72 
C 380.689047 708.72 375.988164 710.667169 372.522667 714.132667 
C 369.057169 717.598164 367.11 722.299047 367.11 727.2 
C 367.11 732.100953 369.057169 736.801836 372.522667 740.267333 
C 375.988164 743.732831 380.689047 745.68 385.59 745.68 
z
" style="fill:#ff00ff;opacity:0.5;stroke:#ff00ff;stroke-linejoin:miter;"/>
   </g>
   <g id="patch_17">
    <path clip-path="url(#p6d58024bd7)" d="M 413.31 907.38 
C 424.337145 907.38 434.914131 902.998869 442.7115 895.2015 
C 450.508869 887.404131 454.89 876.827145 454.89 865.8 
C 454.89 854.772855 450.508869 844.195869 442.7115 836.3985 
C 434.914131 828.601131 424.337145 824.22 413.31 824.22 
C 402.282855 824.22 391.705869 828.601131 383.9085 836.3985 
C 376.111131 844.195869 371.73 854.772855 371.73 865.8 
C 371.73 876.827145 376.111131 887.404131 383.9085 895.2015 
C 391.705869 902.998869 402.282855 907.38 413.31 907.38 
z
" style="opacity:0.75;stroke:#000000;stroke-linejoin:miter;"/>
   </g>
   <g id="patch_18">
    <path clip-path="url(#p6d58024bd7)" d="M 514.95 801.12 
C 522.30143 801.12 529.352754 798.199246 534.551 793.001 
C 539.749246 787.802754 542.67 780.75143 542.67 773.4 
C 542.67 766.04857 539.749246 758.997246 534.551 753.799 
C 529.352754 748.600754 522.30143 745.68 514.95 745.68 
C 507.59857 745.68 500.547246 748.600754 495.349 753.799 
C 490.150754 758.997246 487.23 766.04857 487.23 773.4 
C 487.23 780.75143 490.150754 787.802754 495.349 793.001 
C 500.547246 798.199246 507.59857 801.12 514.95 801.12 
z
" style="opacity:0.75;stroke:#000000;stroke-linejoin:miter;"/>
   </g>
   <g id="patch_19">
    <path clip-path="url(#p6d58024bd7)" d="M 390.21 662.52 
C 397.56143 662.52 404.612754 659.599246 409.811 654.401 
C 415.009246 649.202754 417.93 642.15143 417.93 634.8 
C 417.93 627.44857 415.009246 620.397246 409.811 615.199 
C 404.612754 610.000754 397.56143 607.08 390.21 607.08 
C 382.85857 607.08 375.807246 610.000754 370.609 615.199 
C 365.410754 620.397246 362.49 627.44857 362.49 634.8 
C 362.49 642.15143 365.410754 649.202754 370.609 654.401 
C 375.807246 659.599246 382.85857 662.52 390.21 662.52 
z
" style="opacity:0.75;stroke:#000000;stroke-linejoin:miter;"/>
   </g>
   <g id="patch_20">
    <path clip-path="url(#p6d58024bd7)" d="M 293.19 810.36 
C 298.090953 810.36 302.791836 808.412831 306.257333 804.947333 
C 309.722831 801.481836 311.67 796.780953 311.67 791.88 
C 311.67 786.979047 309.722831 782.278164 306.257333 778.812667 
C 302.791836 775.347169 298.090953 773.4 293.19 773.4 
C 288.289047 773.4 283.588164 775.347169 280.122667 778.812667 
C 276.657169 782.278164 274.71 786.979047 274.71 791.88 
C 274.71 796.780953 276.657169 801.481836 280.122667 804.947333 
C 283.588164 808.412831 288.289047 810.36 293.19 810.36 
z
" style="opacity:0.75;stroke:#000000;stroke-linejoin:miter;"/>
   </g>
   <g id="patch_21">
    <path clip-path="url(#p6d58024bd7)" d="M 283.95 708.72 
C 288.850953 708.72 293.551836 706.772831 297.017333 703.307333 
C 300.482831 699.841836 302.43 695.140953 302.43 690.24 
C 302.43 685.339047 300.482831 680.638164 297.017333 677.172667 
C 293.551836 673.707169 288.850953 671.76 283.95 671.76 
C 279.049047 671.76 274.348164 673.707169 270.882667 677.172667 
C 267.417169 680.638164 265.47 685.339047 265.47 690.24 
C 265.47 695.140953 267.417169 699.841836 270.882667 703.307333 
C 274.348164 706.772831 279.049047 708.72 283.95 708.72 
z
" style="opacity:0.75;stroke:#000000;stroke-linejoin:miter;"/>
   </g>
   <g id="patch_22">
    <path clip-path="url(#p6d58024bd7)" d="M 353.25 653.28 
C 358.150953 653.28 362.851836 651.332831 366.317333 647.867333 
C 369.782831 644.401836 371.73 639.700953 371.73 634.8 
C 371.73 629.899047 369.782831 625.198164 366.317333 621.732667 
C 362.851836 618.267169 358.150953 616.32 353.25 616.32 
C 348.349047 616.32 343.648164 618.267169 340.182667 621.732667 
C 336.717169 625.198164 334.77 629.899047 334.77 634.8 
C 334.77 639.700953 336.717169 644.401836 340.182667 647.867333 
C 343.648164 651.332831 348.349047 653.28 353.25 653.28 
z
" style="opacity:0.75;stroke:#000000;stroke-linejoin:miter;"/>
   </g>
   <g id="patch_23">
    <path clip-path="url(#p6d58024bd7)" d="M 385.59 745.68 
C 390.490953 745.68 395.191836 743.732831 398.657333 740.267333 
C 402.122831 736.801836 404.07 732.100953 404.07 727.2 
C 404.07 722.299047 402.122831 717.598164 398.657333 714.132667 
C 395.191836 710.667169 390.490953 708.72 385.59 708.72 
C 380.689047 708.72 375.988164 710.667169 372.522667 714.132667 
C 369.057169 717.598164 367.11 722.299047 367.11 727.2 
C 367.11 732.100953 369.057169 736.801836 372.522667 740.267333 
C 375.988164 743.732831 380.689047 745.68 385.59 745.68 
z
" style="fill:#ff00ff;opacity:0.5;stroke:#ff00ff;stroke-linejoin:miter;"/>
   </g>
   <g id="patch_24">
    <path clip-path="url(#p6d58024bd7)" d="M 413.31 907.38 
C 424.337145 907.38 434.914131 902.998869 442.7115 895.2015 
C 450.508869 887.404131 454.89 876.827145 454.89 865.8 
C 454.89 854.772855 450.508869 844.195869 442.7115 836.3985 
C 434.914131 828.601131 424.337145 824.22 413.31 824.22 
C 402.282855 824.22 391.705869 828.601131 383.9085 836.3985 
C 376.111131 844.195869 371.73 854.772855 371.73 865.8 
C 371.73 876.827145 376.111131 887.404131 383.9085 895.2015 
C 391.705869 902.998869 402.282855 907.38 413.31 907.38 
z
" style="opacity:0.75;stroke:#000000;stroke-linejoin:miter;"/>
   </g>
   <g id="patch_25">
    <path clip-path="url(#p6d58024bd7)" d="M 514.95 801.12 
C 522.30143 801.12 529.352754 798.199246 534.551 793.001 
C 539.749246 787.802754 542.67 780.75143 542.67 773.4 
C 542.67 766.04857 539.749246 758.997246 534.551 753.799 
C 529.352754 748.600754 522.30143 745.68 514.95 745.68 
C 507.59857 745.68 500.547246 748.600754 495.349 753.799 
C 490.150754 758.997246 487.23 766.04857 487.23 773.4 
C 487.23 780.75143 490.150754 787.802754 495.349 793.001 
C 500.547246 798.199246 507.59857 801.12 514.95 801.12 
z
" style="opacity:0.75;stroke:#000000;stroke-linejoin:miter;"/>
   </g>
   <g id="patch_26">
    <path clip-path="url(#p6d58024bd7)" d="M 390.21 662.52 
C 397.56143 662.52 404.612754 659.599246 409.811 654.401 
C 415.009246 649.202754 417.93 642.15143 417.93 634.8 
C 417.93 627.44857 415.009246 620.397246 409.811 615.199 
C 404.612754 610.000754 397.56143 607.08 390.21 607.08 
C 382.85857 607.08 375.807246 610.000754 370.609 615.199 
C 365.410754 620.397246 362.49 627.44857 362.49 634.8 
C 362.49 642.15143 365.410754 649.202754 370.609 654.401 
C 375.807246 659.599246 382.85857 662.52 390.21 662.52 
z
" style="opacity:0.75;stroke:#000000;stroke-linejoin:miter;"/>
   </g>
   <g id="patch_27">
    <path clip-path="url(#p6d58024bd7)" d="M 293.19 810.36 
C 298.090953 810.36 302.791836 808.412831 306.257333 804.947333 
C 309.722831 801.481836 311.67 796.780953 311.67 791.88 
C 311.67 786.979047 309.722831 782.278164 306.257333 778.812667 
C 302.791836 775.347169 298.090953 773.4 293.19 773.4 
C 288.289047 773.4 283.588164 775.347169 280.122667 778.812667 
C 276.657169 782.278164 274.71 786.979047 274.71 791.88 
C 274.71 796.780953 276.657169 801.481836 280.122667 804.947333 
C 283.588164 808.412831 288.289047 810.36 293.19 810.36 
z
" style="opacity:0.75;stroke:#000000;stroke-linejoin:miter;"/>
   </g>
   <g id="patch_28">
    <path clip-path="url(#p6d58024bd7)" d="M 283.95 708.72 
C 288.850953 708.72 293.551836 706.772831 297.017333 703.307333 
C 300.482831 699.841836 302.43 695.140953 302.43 690.24 
C 302.43 685.339047 300.482831 680.638164 297.017333 677.172667 
C 293.551836 673.707169 288.850953 671.76 283.95 671.76 
C 279.049047 671.76 274.348164 673.707169 270.882667 677.172667 
C 267.417169 680.638164 265.47 685.339047 265.47 690.24 
C 265.47 695.140953 267.417169 699.841836 270.882667 703.307333 
C 274.348164 706.772831 279.049047 708.72 283.95 708.72 
z
" style="opacity:0.75;stroke:#000000;stroke-linejoin:miter;"/>
   </g>
   <g id="patch_29">
    <path clip-path="url(#p6d58024bd7)" d="M 353.25 653.28 
C 358.150953 653.28 362.851836 651.332831 366.317333 647.867333 
C 369.782831 644.401836 371.73 639.700953 371.73 634.8 
C 371.73 629.899047 369.782831 625.198164 366.317333 621.732667 
C 362.851836 618.267169 358.150953 616.32 353.25 616.32 
C 348.349047 616.32 343.648164 618.267169 340.182667 621.732667 
C 336.717169 625.198164 334.77 629.899047 334.77 634.8 
C 334.77 639.700953 336.717169 644.401836 340.182667 647.867333 
C 343.648164 651.332831 348.349047 653.28 353.25 653.28 
z
" style="opacity:0.75;stroke:#000000;stroke-linejoin:miter;"/>
   </g>
   <g id="patch_30">
    <path clip-path="url(#p6d58024bd7)" d="M 385.59 745.68 
C 390.490953 745.68 395.191836 743.732831 398.657333 740.267333 
C 402.122831 736.801836 404.07 732.100953 404.07 727.2 
C 404.07 722.299047 402.122831 717.598164 398.657333 714.132667 
C 395.191836 710.667169 390.490953 708.72 385.59 708.72 
C 380.689047 708.72 375.988164 710.667169 372.522667 714.132667 
C 369.057169 717.598164 367.11 722.299047 367.11 727.2 
C 367.11 732.100953 369.057169 736.801836 372.522667 740.267333 
C 375.988164 743.732831 380.689047 745.68 385.59 745.68 
z
" style="fill:#ff00ff;opacity:0.5;stroke:#ff00ff;stroke-linejoin:miter;"/>
   </g>
   <g id="patch_31">
    <path clip-path="url(#p6d58024bd7)" d="M 413.31 907.38 
C 424.337145 907.38 434.914131 902.998869 442.7115 895.2015 
C 450.508869 887.404131 454.89 876.827145 454.89 865.8 
C 454.89 854.772855 450.508869 844.195869 442.7115 836.3985 
C 434.914131 828.601131 424.337145 824.22 413.31 824.22 
C 402.282855 824.22 391.705869 828.601131 383.9085 836.3985 
C 376.111131 844.195869 371.73 854.772855 371.73 865.8 
C 371.73 876.827145 376.111131 887.404131 383.9085 895.2015 
C 391.705869 902.998869 402.282855 907.38 413.31 907.38 
z
" style="opacity:0.75;stroke:#000000;stroke-linejoin:miter;"/>
   </g>
   <g id="patch_32">
    <path clip-path="url(#p6d58024bd7)" d="M 514.95 801.12 
C 522.30143 801.12 529.352754 798.199246 534.551 793.001 
C 539.749246 787.802754 542.67 780.75143 542.67 773.4 
C 542.67 766.04857 539.749246 758.997246 534.551 753.799 
C 529.352754 748.600754 522.30143 745.68 514.95 745.68 
C 507.59857 745.68 500.547246 748.600754 495.349 753.799 
C 490.150754 758.997246 487.23 766.04857 487.23 773.4 
C 487.23 780.75143 490.150754 787.802754 495.349 793.001 
C 500.547246 798.199246 507.59857 801.12 514.95 801.12 
z
" style="opacity:0.75;stroke:#000000;stroke-linejoin:miter;"/>
   </g>
   <g id="patch_33">
    <path clip-path="url(#p6d58024bd7)" d="M 390.21 662.52 
C 397.56143 662.52 404.612754 659.599246 409.811 654.401 
C 415.009246 649.202754 417.93 642.15143 417.93 634.8 
C 417.93 627.44857 415.009246 620.397246 409.811 615.199 
C 404.612754 610.000754 397.56143 607.08 390.21 607.08 
C 382.85857 607.08 375.807246 610.000754 370.609 615.199 
C 365.410754 620.397246 362.49 627.44857 362.49 634.8 
C 362.49 642.15143 365.410754 649.202754 370.609 654.401 
C 375.807246 659.599246 382.85857 662.52 390.21 662.52 
z
" style="opacity:0.75;stroke:#000000;stroke-linejoin:miter;"/>
   </g>
   <g id="patch_34">
    <path clip-path="url(#p6d58024bd7)" d="M 293.19 810.36 
C 298.090953 810.36 302.791836 808.412831 306.257333 804.947333 
C 309.722831 801.481836 311.67 796.780953 311.67 791.88 
C 311.67 786.979047 309.722831 782.278164 306.257333 778.812667 
C 302.791836 775.347169 298.090953 773.4 293.19 773.4 
C 288.289047 773.4 283.588164 775.347169 280.122667 778.812667 
C 276.657169 782.278164 274.71 786.979047 274.71 791.88 
C 274.71 796.780953 276.657169 801.481836 280.122667 804.947333 
C 283.588164 808.412831 288.289047 810.36 293.19 810.36 
z
" style="opacity:0.75;stroke:#000000;stroke-linejoin:miter;"/>
   </g>
   <g id="patch_35">
    <path clip-path="url(#p6d58024bd7)" d="M 283.95 708.72 
C 288.850953 708.72 293.551836 706.772831 297.017333 703.307333 
C 300.482831 699.841836 302.43 695.140953 302.43 690.24 
C 302.43 685.339047 300.482831 680.638164 297.017333 677.172667 
C 293.551836 673.707169 288.850953 671.76 283.95 671.76 
C 279.049047 671.76 274.348164 673.707169 270.882667 677.172667 
C 267.417169 680.638164 265.47 685.339047 265.47 690.24 
C 265.47 695.140953 267.417169 699.841836 270.882667 703.307333 
C 274.348164 706.772831 279.049047 708.72 283.95 708.72 
z
" style="opacity:0.75;stroke:#000000;stroke-linejoin:miter;"/>
   </g>
   <g id="patch_36">
    <path clip-path="url(#p6d58024bd7)" d="M 353.25 653.28 
C 358.150953 653.28 362.851836 651.332831 366.317333 647.867333 
C 369.782831 644.401836 371.73 639.700953 371.73 634.8 
C 371.73 629.899047 369.782831 625.198164 366.317333 621.732667 
C 362.851836 618.267169 358.150953 616.32 353.25 616.32 
C 348.349047 616.32 343.648164 618.267169 340.182667 621.732667 
C 336.717169 625.198164 334.77 629.899047 334.77 634.8 
C 334.77 639.700953 336.717169 644.401836 340.182667 647.867333 
C 343.648164 651.332831 348.349047 653.28 353.25 653.28 
z
" style="opacity:0.75;stroke:#000000;stroke-linejoin:miter;"/>
   </g>
   <g id="patch_37">
    <path clip-path="url(#p6d58024bd7)" d="M 385.59 745.68 
C 390.490953 745.68 395.191836 743.732831 398.657333 740.267333 
C 402.122831 736.801836 404.07 732.100953 404.07 727.2 
C 404.07 722.299047 402.122831 717.598164 398.657333 714.132667 
C 395.191836 710.667169 390.490953 708.72 385.59 708.72 
C 380.689047 708.72 375.988164 710.667169 372.522667 714.132667 
C 369.057169 717.598164 367.11 722.299047 367.11 727.2 
C 367.11 732.100953 369.057169 736.801836 372.522667 740.267333 
C 375.988164 743.732831 380.689047 745.68 385.59 745.68 
z
" style="fill:#ff00ff;opacity:0.5;stroke:#ff00ff;stroke-linejoin:miter;"/>
   </g>
   <g id="patch_38">
    <path clip-path="url(#p6d58024bd7)" d="M 413.31 907.38 
C 424.337145 907.38 434.914131 902.998869 442.7115 895.2015 
C 450.508869 887.404131 454.89 876.827145 454.89 865.8 
C 454.89 854.772855 450.508869 844.195869 442.7115 836.3985 
C 434.914131 828.601131 424.337145 824.22 413.31 824.22 
C 402.282855 824.22 391.705869 828.601131 383.9085 836.3985 
C 376.111131 844.195869 371.73 854.772855 371.73 865.8 
C 371.73 876.827145 376.111131 887.404131 383.9085 895.2015 
C 391.705869 902.998869 402.282855 907.38 413.31 907.38 
z
" style="opacity:0.75;stroke:#000000;stroke-linejoin:miter;"/>
   </g>
   <g id="patch_39">
    <path clip-path="url(#p6d58024bd7)" d="M 514.95 801.12 
C 522.30143 801.12 529.352754 798.199246 534.551 793.001 
C 539.749246 787.802754 542.67 780.75143 542.67 773.4 
C 542.67 766.04857 539.749246 758.997246 534.551 753.799 
C 529.352754 748.600754 522.30143 745.68 514.95 745.68 
C 507.59857 745.68 500.547246 748.600754 495.349 753.799 
C 490.150754 758.997246 487.23 766.04857 487.23 773.4 
C 487.23 780.75143 490.150754 787.802754 495.349 793.001 
C 500.547246 798.199246 507.59857 801.12 514.95 801.12 
z
" style="opacity:0.75;stroke:#000000;stroke-linejoin:miter;"/>
   </g>
   <g id="patch_40">
    <path clip-path="url(#p6d58024bd7)" d="M 390.21 662.52 
C 397.56143 662.52 404.612754 659.599246 409.811 654.401 
C 415.009246 649.202754 417.93 642.15143 417.93 634.8 
C 417.93 627.44857 415.009246 620.397246 409.811 615.199 
C 404.612754 610.000754 397.56143 607.08 390.21 607.08 
C 382.85857 607.08 375.807246 610.000754 370.609 615.199 
C 365.410754 620.397246 362.49 627.44857 362.49 634.8 
C 362.49 642.15143 365.410754 649.202754 370.609 654.401 
C 375.807246 659.599246 382.85857 662.52 390.21 662.52 
z
" style="opacity:0.75;stroke:#000000;stroke-linejoin:miter;"/>
   </g>
   <g id="patch_41">
    <path clip-path="url(#p6d58024bd7)" d="M 293.19 810.36 
C 298.090953 810.36 302.791836 808.412831 306.257333 804.947333 
C 309.722831 801.481836 311.67 796.780953 311.67 791.88 
C 311.67 786.979047 309.722831 782.278164 306.257333 778.812667 
C 302.791836 775.347169 298.090953 773.4 293.19 773.4 
C 288.289047 773.4 283.588164 775.347169 280.122667 778.812667 
C 276.657169 782.278164 274.71 786.979047 274.71 791.88 
C 274.71 796.780953 276.657169 801.481836 280.122667 804.947333 
C 283.588164 808.412831 288.289047 810.36 293.19 810.36 
z
" style="opacity:0.75;stroke:#000000;stroke-linejoin:miter;"/>
   </g>
   <g id="patch_42">
    <path clip-path="url(#p6d58024bd7)" d="M 283.95 708.72 
C 288.850953 708.72 293.551836 706.772831 297.017333 703.307333 
C 300.482831 699.841836 302.43 695.140953 302.43 690.24 
C 302.43 685.339047 300.482831 680.638164 297.017333 677.172667 
C 293.551836 673.707169 288.850953 671.76 283.95 671.76 
C 279.049047 671.76 274.348164 673.707169 270.882667 677.172667 
C 267.417169 680.638164 265.47 685.339047 265.47 690.24 
C 265.47 695.140953 267.417169 699.841836 270.882667 703.307333 
C 274.348164 706.772831 279.049047 708.72 283.95 708.72 
z
" style="opacity:0.75;stroke:#000000;stroke-linejoin:miter;"/>
   </g>
   <g id="patch_43">
    <path clip-path="url(#p6d58024bd7)" d="M 353.25 653.28 
C 358.150953 653.28 362.851836 651.332831 366.317333 647.867333 
C 369.782831 644.401836 371.73 639.700953 371.73 634.8 
C 371.73 629.899047 369.782831 625.198164 366.317333 621.732667 
C 362.851836 618.267169 358.150953 616.32 353.25 616.32 
C 348.349047 616.32 343.648164 618.267169 340.182667 621.732667 
C 336.717169 625.198164 334.77 629.899047 334.77 634.8 
C 334.77 639.700953 336.717169 644.401836 340.182667 647.867333 
C 343.648164 651.332831 348.349047 653.28 353.25 653.28 
z
" style="opacity:0.75;stroke:#000000;stroke-linejoin:miter;"/>
   </g>
   <g id="patch_44">
    <path clip-path="url(#p6d58024bd7)" d="M 385.59 745.68 
C 390.490953 745.68 395.191836 743.732831 398.657333 740.267333 
C 402.122831 736.801836 404.07 732.100953 404.07 727.2 
C 404.07 722.299047 402.122831 717.598164 398.657333 714.132667 
C 395.191836 710.667169 390.490953 708.72 385.59 708.72 
C 380.689047 708.72 375.988164 710.667169 372.522667 714.132667 
C 369.057169 717.598164 367.11 722.299047 367.11 727.2 
C 367.11 732.100953 369.057169 736.801836 372.522667 740.267333 
C 375.988164 743.732831 380.689047 745.68 385.59 745.68 
z
" style="fill:#ff00ff;opacity:0.5;stroke:#ff00ff;stroke-linejoin:miter;"/>
   </g>
   <g id="patch_45">
    <path clip-path="url(#p6d58024bd7)" d="M 413.31 907.38 
C 424.337145 907.38 434.914131 902.998869 442.7115 895.2015 
C 450.508869 887.404131 454.89 876.827145 454.89 865.8 
C 454.89 854.772855 450.508869 844.195869 442.7115 836.3985 
C 434.914131 828.601131 424.337145 824.22 413.31 824.22 
C 402.282855 824.22 391.705869 828.601131 383.9085 836.3985 
C 376.111131 844.195869 371.73 854.772855 371.73 865.8 
C 371.73 876.827145 376.111131 887.404131 383.9085 895.2015 
C 391.705869 902.998869 402.282855 907.38 413.31 907.38 
z
" style="opacity:0.75;stroke:#000000;stroke-linejoin:miter;"/>
   </g>
   <g id="patch_46">
    <path clip-path="url(#p6d58024bd7)" d="M 514.95 801.12 
C 522.30143 801.12 529.352754 798.199246 534.551 793.001 
C 539.749246 787.802754 542.67 780.75143 542.67 773.4 
C 542.67 766.04857 539.749246 758.997246 534.551 753.799 
C 529.352754 748.600754 522.30143 745.68 514.95 745.68 
C 507.59857 745.68 500.547246 748.600754 495.349 753.799 
C 490.150754 758.997246 487.23 766.04857 487.23 773.4 
C 487.23 780.75143 490.150754 787.802754 495.349 793.001 
C 500.547246 798.199246 507.59857 801.12 514.95 801.12 
z
" style="opacity:0.75;stroke:#000000;stroke-linejoin:miter;"/>
   </g>
   <g id="patch_47">
    <path clip-path="url(#p6d58024bd7)" d="M 390.21 662.52 
C 397.56143 662.52 404.612754 659.599246 409.811 654.401 
C 415.009246 649.202754 417.93 642.15143 417.93 634.8 
C 417.93 627.44857 415.009246 620.397246 409.811 615.199 
C 404.612754 610.000754 397.56143 607.08 390.21 607.08 
C 382.85857 607.08 375.807246 610.000754 370.609 615.199 
C 365.410754 620.397246 362.49 627.44857 362.49 634.8 
C 362.49 642.15143 365.410754 649.202754 370.609 654.401 
C 375.807246 659.599246 382.85857 662.52 390.21 662.52 
z
" style="opacity:0.75;stroke:#000000;stroke-linejoin:miter;"/>
   </g>
   <g id="patch_48">
    <path clip-path="url(#p6d58024bd7)" d="M 293.19 810.36 
C 298.090953 810.36 302.791836 808.412831 306.257333 804.947333 
C 309.722831 801.481836 311.67 796.780953 311.67 791.88 
C 311.67 786.979047 309.722831 782.278164 306.257333 778.812667 
C 302.791836 775.347169 298.090953 773.4 293.19 773.4 
C 288.289047 773.4 283.588164 775.347169 280.122667 778.812667 
C 276.657169 782.278164 274.71 786.979047 274.71 791.88 
C 274.71 796.780953 276.657169 801.481836 280.122667 804.947333 
C 283.588164 808.412831 288.289047 810.36 293.19 810.36 
z
" style="opacity:0.75;stroke:#000000;stroke-linejoin:miter;"/>
   </g>
   <g id="patch_49">
    <path clip-path="url(#p6d58024bd7)" d="M 283.95 708.72 
C 288.850953 708.72 293.551836 706.772831 297.017333 703.307333 
C 300.482831 699.841836 302.43 695.140953 302.43 690.24 
C 302.43 685.339047 300.482831 680.638164 297.017333 677.172667 
C 293.551836 673.707169 288.850953 671.76 283.95 671.76 
C 279.049047 671.76 274.348164 673.707169 270.882667 677.172667 
C 267.417169 680.638164 265.47 685.339047 265.47 690.24 
C 265.47 695.140953 267.417169 699.841836 270.882667 703.307333 
C 274.348164 706.772831 279.049047 708.72 283.95 708.72 
z
" style="opacity:0.75;stroke:#000000;stroke-linejoin:miter;"/>
   </g>
   <g id="patch_50">
    <path clip-path="url(#p6d58024bd7)" d="M 353.25 653.28 
C 358.150953 653.28 362.851836 651.332831 366.317333 647.867333 
C 369.782831 644.401836 371.73 639.700953 371.73 634.8 
C 371.73 629.899047 369.782831 625.198164 366.317333 621.732667 
C 362.851836 618.267169 358.150953 616.32 353.25 616.32 
C 348.349047 616.32 343.648164 618.267169 340.182667 621.732667 
C 336.717169 625.198164 334.77 629.899047 334.77 634.8 
C 334.77 639.700953 336.717169 644.401836 340.182667 647.867333 
C 343.648164 651.332831 348.349047 653.28 353.25 653.28 
z
" style="opacity:0.75;stroke:#000000;stroke-linejoin:miter;"/>
   </g>
   <g id="patch_51">
    <path clip-path="url(#p6d58024bd7)" d="M 385.59 745.68 
C 390.490953 745.68 395.191836 743.732831 398.657333 740.267333 
C 402.122831 736.801836 404.07 732.100953 404.07 727.2 
C 404.07 722.299047 402.122831 717.598164 398.657333 714.132667 
C 395.191836 710.667169 390.490953 708.72 385.59 708.72 
C 380.689047 708.72 375.988164 710.667169 372.522667 714.132667 
C 369.057169 717.598164 367.11 722.299047 367.11 727.2 
C 367.11 732.100953 369.057169 736.801836 372.522667 740.267333 
C 375.988164 743.732831 380.689047 745.68 385.59 745.68 
z
" style="fill:#ff00ff;opacity:0.5;stroke:#ff00ff;stroke-linejoin:miter;"/>
   </g>
   <g id="patch_52">
    <path clip-path="url(#p6d58024bd7)" d="M 413.31 907.38 
C 424.337145 907.38 434.914131 902.998869 442.7115 895.2015 
C 450.508869 887.404131 454.89 876.827145 454.89 865.8 
C 454.89 854.772855 450.508869 844.195869 442.7115 836.3985 
C 434.914131 828.601131 424.337145 824.22 413.31 824.22 
C 402.282855 824.22 391.705869 828.601131 383.9085 836.3985 
C 376.111131 844.195869 371.73 854.772855 371.73 865.8 
C 371.73 876.827145 376.111131 887.404131 383.9085 895.2015 
C 391.705869 902.998869 402.282855 907.38 413.31 907.38 
z
" style="opacity:0.75;stroke:#000000;stroke-linejoin:miter;"/>
   </g>
   <g id="patch_53">
    <path clip-path="url(#p6d58024bd7)" d="M 514.95 801.12 
C 522.30143 801.12 529.352754 798.199246 534.551 793.001 
C 539.749246 787.802754 542.67 780.75143 542.67 773.4 
C 542.67 766.04857 539.749246 758.997246 534.551 753.799 
C 529.352754 748.600754 522.30143 745.68 514.95 745.68 
C 507.59857 745.68 500.547246 748.600754 495.349 753.799 
C 490.150754 758.997246 487.23 766.04857 487.23 773.4 
C 487.23 780.75143 490.150754 787.802754 495.349 793.001 
C 500.547246 798.199246 507.59857 801.12 514.95 801.12 
z
" style="opacity:0.75;stroke:#000000;stroke-linejoin:miter;"/>
   </g>
   <g id="patch_54">
    <path clip-path="url(#p6d58024bd7)" d="M 390.21 662.52 
C 397.56143 662.52 404.612754 659.599246 409.811 654.401 
C 415.009246 649.202754 417.93 642.15143 417.93 634.8 
C 417.93 627.44857 415.009246 620.397246 409.811 615.199 
C 404.612754 610.000754 397.56143 607.08 390.21 607.08 
C 382.85857 607.08 375.807246 610.000754 370.609 615.199 
C 365.410754 620.397246 362.49 627.44857 362.49 634.8 
C 362.49 642.15143 365.410754 649.202754 370.609 654.401 
C 375.807246 659.599246 382.85857 662.52 390.21 662.52 
z
" style="opacity:0.75;stroke:#000000;stroke-linejoin:miter;"/>
   </g>
   <g id="patch_55">
    <path clip-path="url(#p6d58024bd7)" d="M 293.19 810.36 
C 298.090953 810.36 302.791836 808.412831 306.257333 804.947333 
C 309.722831 801.481836 311.67 796.780953 311.67 791.88 
C 311.67 786.979047 309.722831 782.278164 306.257333 778.812667 
C 302.791836 775.347169 298.090953 773.4 293.19 773.4 
C 288.289047 773.4 283.588164 775.347169 280.122667 778.812667 
C 276.657169 782.278164 274.71 786.979047 274.71 791.88 
C 274.71 796.780953 276.657169 801.481836 280.122667 804.947333 
C 283.588164 808.412831 288.289047 810.36 293.19 810.36 
z
" style="opacity:0.75;stroke:#000000;stroke-linejoin:miter;"/>
   </g>
   <g id="patch_56">
    <path clip-path="url(#p6d58024bd7)" d="M 283.95 708.72 
C 288.850953 708.72 293.551836 706.772831 297.017333 703.307333 
C 300.482831 699.841836 302.43 695.140953 302.43 690.24 
C 302.43 685.339047 300.482831 680.638164 297.017333 677.172667 
C 293.551836 673.707169 288.850953 671.76 283.95 671.76 
C 279.049047 671.76 274.348164 673.707169 270.882667 677.172667 
C 267.417169 680.638164 265.47 685.339047 265.47 690.24 
C 265.47 695.140953 267.417169 699.841836 270.882667 703.307333 
C 274.348164 706.772831 279.049047 708.72 283.95 708.72 
z
" style="opacity:0.75;stroke:#000000;stroke-linejoin:miter;"/>
   </g>
   <g id="patch_57">
    <path clip-path="url(#p6d58024bd7)" d="M 353.25 653.28 
C 358.150953 653.28 362.851836 651.332831 366.317333 647.867333 
C 369.782831 644.401836 371.73 639.700953 371.73 634.8 
C 371.73 629.899047 369.782831 625.198164 366.317333 621.732667 
C 362.851836 618.267169 358.150953 616.32 353.25 616.32 
C 348.349047 616.32 343.648164 618.267169 340.182667 621.732667 
C 336.717169 625.198164 334.77 629.899047 334.77 634.8 
C 334.77 639.700953 336.717169 644.401836 340.182667 647.867333 
C 343.648164 651.332831 348.349047 653.28 353.25 653.28 
z
" style="opacity:0.75;stroke:#000000;stroke-linejoin:miter;"/>
   </g>
   <g id="line2d_1">
    <path clip-path="url(#p6d58024bd7)" d="M 534.973754 582.233726 
L 533.735014 588.549996 
L 532.150475 595.209605 
L 530.243049 601.793312 
L 528.02123 608.281088 
L 525.493061 614.655735 
L 522.66694 620.899028 
L 519.550869 626.994528 
L 516.152495 632.927903 
L 512.479551 638.686357 
L 508.540405 644.258037 
L 504.344544 649.631841 
L 499.902951 654.79765 
L 495.228414 659.746889 
L 490.335794 664.473325 
L 485.242256 668.974052 
L 479.967415 673.250656 
L 474.533387 677.310512 
L 468.964716 681.168122 
L 463.288256 684.846389 
L 457.53312 688.377691 
L 451.730851 691.804628 
L 445.916006 695.180301 
L 440.127343 698.567939 
L 434.409689 702.039583 
L 428.816445 705.673419 
L 423.412285 709.549226 
L 418.275089 713.741411 
L 413.495232 718.309465 
L 409.169408 723.286585 
L 405.385625 728.66899 
L 402.197347 734.410737 
L 399.60472 740.435663 
L 397.587909 746.66991 
L 396.119379 753.048736 
L 395.165822 759.517322 
L 394.69015 766.030738 
L 394.65322 772.553425 
L 395.015247 779.058266 
L 395.736892 785.525426 
L 396.780007 791.941155 
L 398.108095 798.29669 
L 399.686561 804.587293 
L 401.482828 810.811464 
L 403.466357 816.970279 
L 405.608621 823.066858 
L 407.883025 829.10591 
L 410.264821 835.093352 
L 412.731 841.035964 
L 415.26018 846.941095 
L 417.832486 852.816394 
L 420.429436 858.669572 
L 423.03383 864.508199 
L 425.629648 870.339533 
L 428.201957 876.170376 
L 430.736836 882.006962 
L 433.221317 887.854871 
L 435.643333 893.718966 
L 437.991682 899.603349 
L 440.25601 905.511338 
L 442.426793 911.445457 
L 444.495334 917.407445 
L 446.453765 923.398274 
L 448.295059 929.418183 
L 450.013036 935.466725 
L 451.602384 941.542827 
L 453.058664 947.644853 
L 454.378324 953.770684 
L 455.558705 959.917799 
L 456.598038 966.083361 
L 457.495428 972.264305 
L 458.250842 978.457423 
L 458.865069 984.659449 
L 459.339684 990.867129 
L 459.676992 997.077298 
L 459.879966 1003.286934 
L 459.952171 1009.49321 
L 459.897682 1015.693535 
L 459.720985 1021.885581 
L 459.426873 1028.067304 
L 459.020347 1034.236944 
L 458.506529 1040.393032 
L 457.890629 1046.534375 
L 457.177986 1052.660062 
L 456.374214 1058.769476 
L 455.485474 1064.862332 
L 454.518752 1070.938744 
L 453.481842 1076.999235 
L 452.382669 1083.044642 
L 451.228032 1089.075869 
L 450.022401 1095.093712 
" style="fill:none;stroke:#0000ff;stroke-linecap:square;stroke-opacity:0.4;stroke-width:2;"/>
   </g>
   <g id="line2d_2">
    <path clip-path="url(#p6d58024bd7)" d="M 215.918597 700.541132 
L 222.652048 705.151256 
L 229.867842 709.539702 
L 237.368144 713.462877 
L 245.097589 716.901978 
L 253.018694 719.853856 
L 261.092158 722.321078 
L 269.280681 724.316257 
L 277.550934 725.864894 
L 285.873721 727.007064 
L 294.224341 727.799165 
L 302.583424 728.315867 
L 310.937428 728.651954 
L 319.277745 728.923572 
L 327.597399 729.268309 
L 335.884642 729.843023 
L 344.113575 730.81753 
L 352.233747 732.361367 
L 360.164117 734.620676 
L 367.801084 737.684253 
L 375.052321 741.543839 
L 381.881175 746.090132 
L 388.285369 751.203495 
L 394.281315 756.777513 
L 399.89935 762.719882 
L 405.179329 768.952057 
L 410.16702 775.408137 
L 414.911167 782.033301 
L 419.461186 788.782053 
L 423.865432 795.616469 
L 428.169958 802.504587 
L 432.417656 809.419042 
L 436.647682 816.335974 
L 440.895099 823.2342 
L 445.190676 830.094645 
L 449.5608 836.899972 
L 454.027488 843.634389 
L 458.608474 850.28358 
L 463.317375 856.834727 
L 468.163919 863.27658 
L 473.154236 869.599553 
L 478.291202 875.795815 
L 483.574828 881.859357 
L 489.002669 887.786024 
L 494.570255 893.573501 
L 500.271512 899.221246 
L 506.099176 904.730373 
L 512.045174 910.103488 
L 518.100969 915.344482 
L 524.257878 920.458287 
L 530.507346 925.450588 
L 536.84119 930.327527 
L 543.251767 935.095416 
L 549.732065 939.760543 
L 556.275649 944.329135 
L 562.876453 948.807574 
L 569.528428 953.202863 
L 576.225251 957.523077 
L 582.960588 961.776983 
L 589.729141 965.972398 
L 596.527792 970.114445 
" style="fill:none;stroke:#0000ff;stroke-linecap:square;stroke-opacity:0.4;stroke-width:2;"/>
   </g>
   <g id="line2d_3">
    <path clip-path="url(#p6d58024bd7)" d="M 427.243452 978.125572 
L 423.507078 972.929523 
L 418.25563 965.884568 
L 412.852943 958.92812 
L 407.349922 952.063018 
L 401.779092 945.255132 
L 396.188907 938.470173 
L 390.633408 931.65763 
L 385.181149 924.758962 
L 379.9211 917.711885 
L 374.962701 910.453434 
L 370.431861 902.928238 
L 366.460646 895.102431 
L 363.164655 886.978732 
L 360.602215 878.604253 
L 358.742722 870.056136 
L 357.522121 861.404991 
L 356.87076 852.705541 
L 356.722152 843.99758 
L 357.016903 835.3093 
L 357.703777 826.660567 
L 358.739375 818.065397 
L 360.087233 809.533782 
L 361.716592 801.073057 
L 363.60079 792.688854 
L 365.715115 784.385584 
L 368.033898 776.166441 
L 370.526554 768.03299 
L 373.15402 759.985396 
L 375.871105 752.027512 
L 378.634503 744.187969 
" style="fill:none;stroke:#0000ff;stroke-linecap:square;stroke-opacity:0.4;stroke-width:2;"/>
   </g>
   <g id="line2d_4">
    <path clip-path="url(#p6d58024bd7)" d="M 475.713504 1008.438574 
L 477.709203 1000.798075 
L 480.093565 991.505175 
L 482.526097 981.855293 
L 484.900547 972.155925 
L 487.157461 962.428515 
L 489.244318 952.643215 
L 491.105081 942.778268 
L 492.678166 932.825991 
L 493.897835 922.788589 
L 494.696998 912.675454 
L 495.010537 902.502942 
L 494.778764 892.29513 
L 493.950781 882.084175 
L 492.487511 871.909541 
L 490.364149 861.815962 
L 487.571697 851.850377 
L 484.117331 842.058328 
L 480.023496 832.480377 
L 475.325827 823.149141 
L 470.070185 814.087336 
L 464.309175 805.307122 
L 458.098428 796.810859 
L 451.492989 788.59321 
L 444.544359 780.644108 
L 437.299083 772.951525 
L 429.799973 765.5024 
L 422.091521 758.279425 
L 414.229574 751.253257 
L 406.285433 744.383903 
L 398.335055 737.653472 
" style="fill:none;stroke:#0000ff;stroke-linecap:square;stroke-opacity:0.4;stroke-width:2;"/>
   </g>
   <g id="line2d_5">
    <path clip-path="url(#p6d58024bd7)" d="M 480.607829 712.367092 
L 475.5887 712.598188 
L 470.569572 712.829283 
L 465.550443 713.060379 
L 460.531314 713.291474 
L 455.512185 713.52257 
L 450.493056 713.753666 
L 445.473927 713.984761 
L 440.454799 714.215857 
L 435.43567 714.446952 
L 430.416541 714.678048 
L 425.397412 714.909144 
L 420.378283 715.140239 
L 415.359155 715.371335 
L 410.340026 715.60243 
L 405.320897 715.833526 
L 400.301768 716.064622 
L 395.282639 716.295717 
L 390.26351 716.526813 
L 385.244382 716.757908 
L 380.225253 716.989004 
L 375.206124 717.2201 
L 370.186995 717.451195 
L 365.167866 717.682291 
L 360.148737 717.913386 
L 355.129609 718.144482 
L 350.11048 718.375578 
L 345.091351 718.606673 
L 340.072222 718.837769 
L 335.053093 719.068864 
L 330.033965 719.29996 
L 325.014836 719.531056 
L 319.995707 719.762151 
L 314.976578 719.993247 
L 309.957449 720.224342 
L 304.93832 720.455438 
L 299.919192 720.686534 
L 294.900063 720.917629 
L 289.880934 721.148725 
L 284.861805 721.37982 
L 279.842676 721.610916 
L 274.823548 721.842012 
L 269.804419 722.073107 
L 264.78529 722.304203 
L 259.766161 722.535298 
L 254.747032 722.766394 
L 249.727903 722.99749 
L 244.708775 723.228585 
L 239.689646 723.459681 
L 234.670517 723.690776 
L 229.651388 723.921872 
L 224.632259 724.152968 
L 219.613131 724.384063 
L 214.594002 724.615159 
L 209.574873 724.846254 
L 204.555744 725.07735 
L 199.536615 725.308446 
L 194.517486 725.539541 
L 189.498358 725.770637 
L 184.479229 726.001733 
L 179.4601 726.232828 
L 174.440971 726.463924 
L 169.421842 726.695019 
L 164.402714 726.926115 
L 159.383585 727.157211 
L 154.364456 727.388306 
L 149.345327 727.619402 
L 144.326198 727.850497 
L 139.307069 728.081593 
L 134.287941 728.312689 
L 129.268812 728.543784 
" style="fill:none;stroke:#0000ff;stroke-linecap:square;stroke-opacity:0.4;stroke-width:2;"/>
   </g>
   <g id="line2d_6">
    <path clip-path="url(#p6d58024bd7)" d="M 580.295248 1083.886759 
L 576.131225 1080.089319 
L 570.967863 1075.391268 
L 565.693118 1070.601988 
L 560.430252 1065.828379 
L 555.1674 1061.054264 
L 549.893377 1056.264204 
L 544.608663 1051.453517 
L 539.317905 1046.621623 
L 534.025469 1041.768323 
L 528.734343 1036.893198 
L 523.446152 1031.996048 
L 518.161187 1027.077332 
L 512.878306 1022.138438 
L 507.594819 1017.181886 
L 502.306458 1012.211513 
L 497.007462 1007.232647 
L 491.690724 1002.252208 
L 486.34801 997.278705 
L 480.970216 992.322075 
L 475.547724 987.393387 
L 470.070856 982.504382 
L 464.530447 977.666872 
L 458.918518 972.891985 
L 453.229024 968.189269 
L 447.458606 963.565654 
L 441.607304 959.024306 
L 435.679174 954.56341 
L 429.68279 950.174958 
L 423.631657 945.843617 
L 417.544606 941.545776 
L 411.446285 937.248864 
L 405.367902 932.91109 
L 399.348341 928.481758 
L 393.435732 923.902455 
L 387.689343 919.109489 
L 382.181406 914.038076 
L 376.997903 908.628749 
L 372.236599 902.836146 
L 367.999623 896.639465 
L 364.377181 890.052188 
L 361.419781 883.126397 
L 359.116783 875.940729 
L 357.431384 868.570642 
L 356.31769 861.080842 
L 355.7227 853.524054 
L 355.590188 845.940139 
L 355.865706 838.356873 
L 356.4991 830.792371 
L 357.444983 823.25786 
L 358.662718 815.75995 
L 360.11635 808.302384 
L 361.774258 800.88737 
L 363.608398 793.516216 
L 365.59309 786.189424 
L 367.703267 778.906454 
L 369.911963 771.66529 
L 372.18752 764.462137 
L 374.49335 757.292733 
L 376.793293 750.158062 
L 379.057918 743.08086 
" style="fill:none;stroke:#0000ff;stroke-linecap:square;stroke-opacity:0.4;stroke-width:2;"/>
   </g>
   <g id="line2d_7">
    <path clip-path="url(#p6d58024bd7)" d="M 579.098127 569.430613 
L 576.596655 571.921447 
L 574.095216 574.412249 
L 571.593753 576.902983 
L 569.092187 579.393589 
L 566.590434 581.883995 
L 564.088415 584.374136 
L 561.586059 586.863953 
L 559.08331 589.353396 
L 556.58012 591.84243 
L 554.07646 594.331032 
L 551.572315 596.819197 
L 549.067689 599.30694 
L 546.562609 601.794298 
L 544.057126 604.281333 
L 541.551318 606.768139 
L 539.045294 609.254836 
L 536.539191 611.741581 
L 534.033183 614.228564 
L 531.527471 616.716008 
L 529.02229 619.204169 
L 526.517901 621.693334 
L 524.01459 624.183813 
L 521.512657 626.675935 
L 519.01241 629.170036 
L 516.514155 631.666451 
L 514.018181 634.165502 
L 511.524744 636.667477 
L 509.034054 639.172618 
L 506.546248 641.6811 
L 504.061379 644.193013 
L 501.579384 646.708338 
L 499.100069 649.226925 
L 496.623085 651.748478 
L 494.147904 654.272527 
L 491.673802 656.798418 
L 489.199848 659.32529 
L 486.724887 661.852067 
L 484.24754 664.37745 
L 481.766205 666.899913 
L 479.279069 669.417707 
L 476.784132 671.928872 
L 474.279235 674.431254 
L 471.762106 676.922534 
L 469.230413 679.400268 
L 466.681828 681.861937 
L 464.114105 684.305008 
L 461.525156 686.727013 
L 458.913146 689.125637 
L 456.27658 691.49882 
L 453.61439 693.844872 
L 450.926027 696.162594 
L 448.211536 698.451411 
L 445.471622 700.711495 
L 442.70771 702.943892 
L 439.921981 705.150627 
L 437.117398 707.334794 
L 434.297719 709.5006 
L 431.467492 711.653381 
L 428.632035 713.799553 
L 425.797394 715.946503 
L 422.970289 718.102409 
L 420.158013 720.275974 
L 417.368295 722.476087 
L 414.609087 724.711398 
L 411.888266 726.989822 
L 409.213209 729.31798 
L 406.590211 731.700595 
L 404.023726 734.13986 
L 401.515404 736.634804 
L 399.06294 739.180668 
L 396.659282 741.769774 
L 394.296064 744.394604 
L 391.96603 747.04858 
L 389.663125 749.726202 
L 387.382146 752.422755 
L 385.118392 755.134027 
L 382.867444 757.856125 
L 380.625093 760.585406 
L 378.387356 763.318476 
L 376.150547 766.052226 
L 373.911344 768.783872 
L 371.666856 771.510983 
L 369.41465 774.231501 
L 367.152756 776.943732 
L 364.879649 779.646336 
L 362.594213 782.338296 
L 360.295694 785.018884 
L 357.983652 787.687632 
L 355.65792 790.344294 
L 353.318556 792.988821 
L 350.96582 795.621341 
L 348.600145 798.242142 
L 346.222113 800.851655 
L 343.832427 803.450435 
L 341.431872 806.039126 
L 339.021267 808.618417 
L 336.601412 811.188998 
L 334.173029 813.751498 
L 331.736713 816.306437 
L 329.292894 818.854188 
" style="fill:none;stroke:#0000ff;stroke-linecap:square;stroke-opacity:0.4;stroke-width:2;"/>
   </g>
   <g id="line2d_8">
    <path clip-path="url(#p6d58024bd7)" d="M 285.970308 897.089085 
L 285.894387 893.892762 
L 285.724704 890.249729 
L 285.448744 886.586745 
L 285.068551 882.933713 
L 284.585984 879.292225 
L 284.003657 875.664953 
L 283.32484 872.053967 
L 282.553502 868.460667 
L 281.694423 864.886141 
L 280.753254 861.331119 
L 279.736524 857.795813 
L 278.651667 854.279829 
L 277.507064 850.782131 
L 276.312079 847.300981 
L 275.077099 843.833883 
L 273.813561 840.377548 
L 272.53399 836.927916 
L 271.252039 833.480256 
L 269.982539 830.029326 
L 268.74153 826.569587 
L 267.546278 823.095478 
L 266.415245 819.601734 
L 265.368003 816.083768 
L 264.425054 812.538107 
L 263.607518 808.962866 
L 262.93663 805.358239 
L 262.432976 801.726929 
L 262.115384 798.074434 
L 261.99943 794.409036 
L 262.09552 790.74131 
L 262.407163 787.083019 
L 262.93207 783.445398 
L 263.666264 779.839631 
L 264.604426 776.277412 
L 265.739665 772.769442 
L 267.064191 769.324762 
L 268.569842 765.951144 
L 270.248297 762.655559 
L 272.09127 759.444373 
L 274.090717 756.3234 
L 276.238959 753.297988 
L 278.528676 750.373167 
L 280.952823 747.553761 
L 283.504537 744.844408 
L 286.177067 742.249504 
L 288.963717 739.773132 
L 291.857808 737.418983 
L 294.852649 735.190315 
L 297.941525 733.089915 
L 301.117706 731.120071 
L 304.374461 729.282556 
L 307.705077 727.578608 
L 311.102881 726.008912 
L 314.561255 724.573575 
L 318.073662 723.272091 
L 321.63367 722.103299 
L 325.234997 721.065336 
L 328.871545 720.155589 
L 332.537456 719.370645 
L 336.22715 718.706223 
L 339.935376 718.157089 
L 343.657252 717.716932 
L 347.388311 717.378222 
L 351.12454 717.132105 
L 354.862408 716.968438 
L 358.598819 716.87606 
L 362.330938 716.84332 
L 366.055751 716.8588 
L 369.76896 716.912245 
L 373.461142 716.996206 
" style="fill:none;stroke:#0000ff;stroke-linecap:square;stroke-opacity:0.4;stroke-width:2;"/>
   </g>
   <g id="text_1">
    <!-- Iteration: None -->
    <g transform="translate(539.217188 166.8)scale(0.12 -0.12)">
     <defs>
      <path d="M 9.8125 72.90625 
L 19.671875 72.90625 
L 19.671875 0 
L 9.8125 0 
z
" id="DejaVuSans-73"/>
      <path d="M 18.3125 70.21875 
L 18.3125 54.6875 
L 36.8125 54.6875 
L 36.8125 47.703125 
L 18.3125 47.703125 
L 18.3125 18.015625 
Q 18.3125 11.328125 20.140625 9.421875 
Q 21.96875 7.515625 27.59375 7.515625 
L 36.8125 7.515625 
L 36.8125 0 
L 27.59375 0 
Q 17.1875 0 13.234375 3.875 
Q 9.28125 7.765625 9.28125 18.015625 
L 9.28125 47.703125 
L 2.6875 47.703125 
L 2.6875 54.6875 
L 9.28125 54.6875 
L 9.28125 70.21875 
z
" id="DejaVuSans-116"/>
      <path d="M 56.203125 29.59375 
L 56.203125 25.203125 
L 14.890625 25.203125 
Q 15.484375 15.921875 20.484375 11.0625 
Q 25.484375 6.203125 34.421875 6.203125 
Q 39.59375 6.203125 44.453125 7.46875 
Q 49.3125 8.734375 54.109375 11.28125 
L 54.109375 2.78125 
Q 49.265625 0.734375 44.1875 -0.34375 
Q 39.109375 -1.421875 33.890625 -1.421875 
Q 20.796875 -1.421875 13.15625 6.1875 
Q 5.515625 13.8125 5.515625 26.8125 
Q 5.515625 40.234375 12.765625 48.109375 
Q 20.015625 56 32.328125 56 
Q 43.359375 56 49.78125 48.890625 
Q 56.203125 41.796875 56.203125 29.59375 
z
M 47.21875 32.234375 
Q 47.125 39.59375 43.09375 43.984375 
Q 39.0625 48.390625 32.421875 48.390625 
Q 24.90625 48.390625 20.390625 44.140625 
Q 15.875 39.890625 15.1875 32.171875 
z
" id="DejaVuSans-101"/>
      <path d="M 41.109375 46.296875 
Q 39.59375 47.171875 37.8125 47.578125 
Q 36.03125 48 33.890625 48 
Q 26.265625 48 22.1875 43.046875 
Q 18.109375 38.09375 18.109375 28.8125 
L 18.109375 0 
L 9.078125 0 
L 9.078125 54.6875 
L 18.109375 54.6875 
L 18.109375 46.1875 
Q 20.953125 51.171875 25.484375 53.578125 
Q 30.03125 56 36.53125 56 
Q 37.453125 56 38.578125 55.875 
Q 39.703125 55.765625 41.0625 55.515625 
z
" id="DejaVuSans-114"/>
      <path d="M 34.28125 27.484375 
Q 23.390625 27.484375 19.1875 25 
Q 14.984375 22.515625 14.984375 16.5 
Q 14.984375 11.71875 18.140625 8.90625 
Q 21.296875 6.109375 26.703125 6.109375 
Q 34.1875 6.109375 38.703125 11.40625 
Q 43.21875 16.703125 43.21875 25.484375 
L 43.21875 27.484375 
z
M 52.203125 31.203125 
L 52.203125 0 
L 43.21875 0 
L 43.21875 8.296875 
Q 40.140625 3.328125 35.546875 0.953125 
Q 30.953125 -1.421875 24.3125 -1.421875 
Q 15.921875 -1.421875 10.953125 3.296875 
Q 6 8.015625 6 15.921875 
Q 6 25.140625 12.171875 29.828125 
Q 18.359375 34.515625 30.609375 34.515625 
L 43.21875 34.515625 
L 43.21875 35.40625 
Q 43.21875 41.609375 39.140625 45 
Q 35.0625 48.390625 27.6875 48.390625 
Q 23 48.390625 18.546875 47.265625 
Q 14.109375 46.140625 10.015625 43.890625 
L 10.015625 52.203125 
Q 14.9375 54.109375 19.578125 55.046875 
Q 24.21875 56 28.609375 56 
Q 40.484375 56 46.34375 49.84375 
Q 52.203125 43.703125 52.203125 31.203125 
z
" id="DejaVuSans-97"/>
      <path d="M 9.421875 54.6875 
L 18.40625 54.6875 
L 18.40625 0 
L 9.421875 0 
z
M 9.421875 75.984375 
L 18.40625 75.984375 
L 18.40625 64.59375 
L 9.421875 64.59375 
z
" id="DejaVuSans-105"/>
      <path d="M 30.609375 48.390625 
Q 23.390625 48.390625 19.1875 42.75 
Q 14.984375 37.109375 14.984375 27.296875 
Q 14.984375 17.484375 19.15625 11.84375 
Q 23.34375 6.203125 30.609375 6.203125 
Q 37.796875 6.203125 41.984375 11.859375 
Q 46.1875 17.53125 46.1875 27.296875 
Q 46.1875 37.015625 41.984375 42.703125 
Q 37.796875 48.390625 30.609375 48.390625 
z
M 30.609375 56 
Q 42.328125 56 49.015625 48.375 
Q 55.71875 40.765625 55.71875 27.296875 
Q 55.71875 13.875 49.015625 6.21875 
Q 42.328125 -1.421875 30.609375 -1.421875 
Q 18.84375 -1.421875 12.171875 6.21875 
Q 5.515625 13.875 5.515625 27.296875 
Q 5.515625 40.765625 12.171875 48.375 
Q 18.84375 56 30.609375 56 
z
" id="DejaVuSans-111"/>
      <path d="M 54.890625 33.015625 
L 54.890625 0 
L 45.90625 0 
L 45.90625 32.71875 
Q 45.90625 40.484375 42.875 44.328125 
Q 39.84375 48.1875 33.796875 48.1875 
Q 26.515625 48.1875 22.3125 43.546875 
Q 18.109375 38.921875 18.109375 30.90625 
L 18.109375 0 
L 9.078125 0 
L 9.078125 54.6875 
L 18.109375 54.6875 
L 18.109375 46.1875 
Q 21.34375 51.125 25.703125 53.5625 
Q 30.078125 56 35.796875 56 
Q 45.21875 56 50.046875 50.171875 
Q 54.890625 44.34375 54.890625 33.015625 
z
" id="DejaVuSans-110"/>
      <path d="M 11.71875 12.40625 
L 22.015625 12.40625 
L 22.015625 0 
L 11.71875 0 
z
M 11.71875 51.703125 
L 22.015625 51.703125 
L 22.015625 39.3125 
L 11.71875 39.3125 
z
" id="DejaVuSans-58"/>
      <path id="DejaVuSans-32"/>
      <path d="M 9.8125 72.90625 
L 23.09375 72.90625 
L 55.421875 11.921875 
L 55.421875 72.90625 
L 64.984375 72.90625 
L 64.984375 0 
L 51.703125 0 
L 19.390625 60.984375 
L 19.390625 0 
L 9.8125 0 
z
" id="DejaVuSans-78"/>
     </defs>
     <use xlink:href="#DejaVuSans-73"/>
     <use x="29.492188" xlink:href="#DejaVuSans-116"/>
     <use x="68.701172" xlink:href="#DejaVuSans-101"/>
     <use x="130.224609" xlink:href="#DejaVuSans-114"/>
     <use x="171.337891" xlink:href="#DejaVuSans-97"/>
     <use x="232.617188" xlink:href="#DejaVuSans-116"/>
     <use x="271.826172" xlink:href="#DejaVuSans-105"/>
     <use x="299.609375" xlink:href="#DejaVuSans-111"/>
     <use x="360.791016" xlink:href="#DejaVuSans-110"/>
     <use x="424.169922" xlink:href="#DejaVuSans-58"/>
     <use x="457.861328" xlink:href="#DejaVuSans-32"/>
     <use x="489.648438" xlink:href="#DejaVuSans-78"/>
     <use x="564.453125" xlink:href="#DejaVuSans-111"/>
     <use x="625.634766" xlink:href="#DejaVuSans-110"/>
     <use x="689.013672" xlink:href="#DejaVuSans-101"/>
    </g>
   </g>
   <g id="PathCollection_1">
    <defs>
     <path d="M 0 3 
C 0.795609 3 1.55874 2.683901 2.12132 2.12132 
C 2.683901 1.55874 3 0.795609 3 0 
C 3 -0.795609 2.683901 -1.55874 2.12132 -2.12132 
C 1.55874 -2.683901 0.795609 -3 0 -3 
C -0.795609 -3 -1.55874 -2.683901 -2.12132 -2.12132 
C -2.683901 -1.55874 -3 -0.795609 -3 0 
C -3 0.795609 -2.683901 1.55874 -2.12132 2.12132 
C -1.55874 2.683901 -0.795609 3 0 3 
z
" id="mfd171eee68" style="stroke:#b22222;"/>
    </defs>
    <g clip-path="url(#p6d58024bd7)">
     <use style="fill:#b22222;stroke:#b22222;" x="534.973754" xlink:href="#mfd171eee68" y="582.233726"/>
    </g>
   </g>
   <g id="PathCollection_2">
    <defs>
     <path d="M 0 3 
C 0.795609 3 1.55874 2.683901 2.12132 2.12132 
C 2.683901 1.55874 3 0.795609 3 0 
C 3 -0.795609 2.683901 -1.55874 2.12132 -2.12132 
C 1.55874 -2.683901 0.795609 -3 0 -3 
C -0.795609 -3 -1.55874 -2.683901 -2.12132 -2.12132 
C -2.683901 -1.55874 -3 -0.795609 -3 0 
C -3 0.795609 -2.683901 1.55874 -2.12132 2.12132 
C -1.55874 2.683901 -0.795609 3 0 3 
z
" id="mc2cce52225" style="stroke:#00ffff;stroke-opacity:0.4;"/>
    </defs>
    <g clip-path="url(#p6d58024bd7)">
     <use style="fill:#00ffff;fill-opacity:0.4;stroke:#00ffff;stroke-opacity:0.4;" x="450.022401" xlink:href="#mc2cce52225" y="1095.093712"/>
    </g>
   </g>
   <g id="PathCollection_3">
    <g clip-path="url(#p6d58024bd7)">
     <use style="fill:#b22222;stroke:#b22222;" x="215.918597" xlink:href="#mfd171eee68" y="700.541132"/>
    </g>
   </g>
   <g id="PathCollection_4">
    <g clip-path="url(#p6d58024bd7)">
     <use style="fill:#00ffff;fill-opacity:0.4;stroke:#00ffff;stroke-opacity:0.4;" x="596.527792" xlink:href="#mc2cce52225" y="970.114445"/>
    </g>
   </g>
   <g id="PathCollection_5">
    <g clip-path="url(#p6d58024bd7)">
     <use style="fill:#b22222;stroke:#b22222;" x="427.243452" xlink:href="#mfd171eee68" y="978.125572"/>
    </g>
   </g>
   <g id="PathCollection_6">
    <g clip-path="url(#p6d58024bd7)">
     <use style="fill:#00ffff;fill-opacity:0.4;stroke:#00ffff;stroke-opacity:0.4;" x="378.634503" xlink:href="#mc2cce52225" y="744.187969"/>
    </g>
   </g>
   <g id="PathCollection_7">
    <g clip-path="url(#p6d58024bd7)">
     <use style="fill:#b22222;stroke:#b22222;" x="475.713504" xlink:href="#mfd171eee68" y="1008.438574"/>
    </g>
   </g>
   <g id="PathCollection_8">
    <g clip-path="url(#p6d58024bd7)">
     <use style="fill:#00ffff;fill-opacity:0.4;stroke:#00ffff;stroke-opacity:0.4;" x="398.335055" xlink:href="#mc2cce52225" y="737.653472"/>
    </g>
   </g>
   <g id="PathCollection_9">
    <g clip-path="url(#p6d58024bd7)">
     <use style="fill:#b22222;stroke:#b22222;" x="480.607829" xlink:href="#mfd171eee68" y="712.367092"/>
    </g>
   </g>
   <g id="PathCollection_10">
    <g clip-path="url(#p6d58024bd7)">
     <use style="fill:#00ffff;fill-opacity:0.4;stroke:#00ffff;stroke-opacity:0.4;" x="129.268812" xlink:href="#mc2cce52225" y="728.543784"/>
    </g>
   </g>
   <g id="PathCollection_11">
    <g clip-path="url(#p6d58024bd7)">
     <use style="fill:#b22222;stroke:#b22222;" x="580.295248" xlink:href="#mfd171eee68" y="1083.886759"/>
    </g>
   </g>
   <g id="PathCollection_12">
    <g clip-path="url(#p6d58024bd7)">
     <use style="fill:#00ffff;fill-opacity:0.4;stroke:#00ffff;stroke-opacity:0.4;" x="379.057918" xlink:href="#mc2cce52225" y="743.08086"/>
    </g>
   </g>
   <g id="PathCollection_13">
    <g clip-path="url(#p6d58024bd7)">
     <use style="fill:#b22222;stroke:#b22222;" x="579.098127" xlink:href="#mfd171eee68" y="569.430613"/>
    </g>
   </g>
   <g id="PathCollection_14">
    <g clip-path="url(#p6d58024bd7)">
     <use style="fill:#00ffff;fill-opacity:0.4;stroke:#00ffff;stroke-opacity:0.4;" x="329.292894" xlink:href="#mc2cce52225" y="818.854188"/>
    </g>
   </g>
   <g id="PathCollection_15">
    <g clip-path="url(#p6d58024bd7)">
     <use style="fill:#b22222;stroke:#b22222;" x="285.970308" xlink:href="#mfd171eee68" y="897.089085"/>
    </g>
   </g>
   <g id="PathCollection_16">
    <g clip-path="url(#p6d58024bd7)">
     <use style="fill:#00ffff;fill-opacity:0.4;stroke:#00ffff;stroke-opacity:0.4;" x="373.461142" xlink:href="#mc2cce52225" y="716.996206"/>
    </g>
   </g>
  </g>
 </g>
 <defs>
  <clipPath id="p6d58024bd7">
   <rect height="1108.8" width="877.8" x="145.35" y="172.8"/>
  </clipPath>
 </defs>
</svg>
