<?xml version="1.0" encoding="utf-8" standalone="no"?>
<!DOCTYPE svg PUBLIC "-//W3C//DTD SVG 1.1//EN"
  "http://www.w3.org/Graphics/SVG/1.1/DTD/svg11.dtd">
<!-- Created with matplotlib (https://matplotlib.org/) -->
<svg height="1440pt" version="1.1" viewBox="0 0 1140 1440" width="1140pt" xmlns="http://www.w3.org/2000/svg" xmlns:xlink="http://www.w3.org/1999/xlink">
 <metadata>
  <rdf:RDF xmlns:cc="http://creativecommons.org/ns#" xmlns:dc="http://purl.org/dc/elements/1.1/" xmlns:rdf="http://www.w3.org/1999/02/22-rdf-syntax-ns#">
   <cc:Work>
    <dc:type rdf:resource="http://purl.org/dc/dcmitype/StillImage"/>
    <dc:date>2022-02-17T18:47:00.233491</dc:date>
    <dc:format>image/svg+xml</dc:format>
    <dc:creator>
     <cc:Agent>
      <dc:title>Matplotlib v3.3.2, https://matplotlib.org/</dc:title>
     </cc:Agent>
    </dc:creator>
   </cc:Work>
  </rdf:RDF>
 </metadata>
 <defs>
  <style type="text/css">*{stroke-linecap:butt;stroke-linejoin:round;}</style>
 </defs>
 <g id="figure_1">
  <g id="patch_1">
   <path d="M 0 1440 
L 1140 1440 
L 1140 0 
L 0 0 
z
" style="fill:#ffffff;"/>
  </g>
  <g id="axes_1">
   <g id="patch_2">
    <path clip-path="url(#p4b38af9469)" d="M 385.59 745.68 
C 390.490953 745.68 395.191836 743.732831 398.657333 740.267333 
C 402.122831 736.801836 404.07 732.100953 404.07 727.2 
C 404.07 722.299047 402.122831 717.598164 398.657333 714.132667 
C 395.191836 710.667169 390.490953 708.72 385.59 708.72 
C 380.689047 708.72 375.988164 710.667169 372.522667 714.132667 
C 369.057169 717.598164 367.11 722.299047 367.11 727.2 
C 367.11 732.100953 369.057169 736.801836 372.522667 740.267333 
C 375.988164 743.732831 380.689047 745.68 385.59 745.68 
z
" style="fill:#ff00ff;opacity:0.5;stroke:#ff00ff;stroke-linejoin:miter;"/>
   </g>
   <g id="patch_3">
    <path clip-path="url(#p4b38af9469)" d="M 413.31 907.38 
C 424.337145 907.38 434.914131 902.998869 442.7115 895.2015 
C 450.508869 887.404131 454.89 876.827145 454.89 865.8 
C 454.89 854.772855 450.508869 844.195869 442.7115 836.3985 
C 434.914131 828.601131 424.337145 824.22 413.31 824.22 
C 402.282855 824.22 391.705869 828.601131 383.9085 836.3985 
C 376.111131 844.195869 371.73 854.772855 371.73 865.8 
C 371.73 876.827145 376.111131 887.404131 383.9085 895.2015 
C 391.705869 902.998869 402.282855 907.38 413.31 907.38 
z
" style="opacity:0.75;stroke:#000000;stroke-linejoin:miter;"/>
   </g>
   <g id="patch_4">
    <path clip-path="url(#p4b38af9469)" d="M 514.95 801.12 
C 522.30143 801.12 529.352754 798.199246 534.551 793.001 
C 539.749246 787.802754 542.67 780.75143 542.67 773.4 
C 542.67 766.04857 539.749246 758.997246 534.551 753.799 
C 529.352754 748.600754 522.30143 745.68 514.95 745.68 
C 507.59857 745.68 500.547246 748.600754 495.349 753.799 
C 490.150754 758.997246 487.23 766.04857 487.23 773.4 
C 487.23 780.75143 490.150754 787.802754 495.349 793.001 
C 500.547246 798.199246 507.59857 801.12 514.95 801.12 
z
" style="opacity:0.75;stroke:#000000;stroke-linejoin:miter;"/>
   </g>
   <g id="patch_5">
    <path clip-path="url(#p4b38af9469)" d="M 390.21 662.52 
C 397.56143 662.52 404.612754 659.599246 409.811 654.401 
C 415.009246 649.202754 417.93 642.15143 417.93 634.8 
C 417.93 627.44857 415.009246 620.397246 409.811 615.199 
C 404.612754 610.000754 397.56143 607.08 390.21 607.08 
C 382.85857 607.08 375.807246 610.000754 370.609 615.199 
C 365.410754 620.397246 362.49 627.44857 362.49 634.8 
C 362.49 642.15143 365.410754 649.202754 370.609 654.401 
C 375.807246 659.599246 382.85857 662.52 390.21 662.52 
z
" style="opacity:0.75;stroke:#000000;stroke-linejoin:miter;"/>
   </g>
   <g id="patch_6">
    <path clip-path="url(#p4b38af9469)" d="M 293.19 810.36 
C 298.090953 810.36 302.791836 808.412831 306.257333 804.947333 
C 309.722831 801.481836 311.67 796.780953 311.67 791.88 
C 311.67 786.979047 309.722831 782.278164 306.257333 778.812667 
C 302.791836 775.347169 298.090953 773.4 293.19 773.4 
C 288.289047 773.4 283.588164 775.347169 280.122667 778.812667 
C 276.657169 782.278164 274.71 786.979047 274.71 791.88 
C 274.71 796.780953 276.657169 801.481836 280.122667 804.947333 
C 283.588164 808.412831 288.289047 810.36 293.19 810.36 
z
" style="opacity:0.75;stroke:#000000;stroke-linejoin:miter;"/>
   </g>
   <g id="patch_7">
    <path clip-path="url(#p4b38af9469)" d="M 283.95 708.72 
C 288.850953 708.72 293.551836 706.772831 297.017333 703.307333 
C 300.482831 699.841836 302.43 695.140953 302.43 690.24 
C 302.43 685.339047 300.482831 680.638164 297.017333 677.172667 
C 293.551836 673.707169 288.850953 671.76 283.95 671.76 
C 279.049047 671.76 274.348164 673.707169 270.882667 677.172667 
C 267.417169 680.638164 265.47 685.339047 265.47 690.24 
C 265.47 695.140953 267.417169 699.841836 270.882667 703.307333 
C 274.348164 706.772831 279.049047 708.72 283.95 708.72 
z
" style="opacity:0.75;stroke:#000000;stroke-linejoin:miter;"/>
   </g>
   <g id="patch_8">
    <path clip-path="url(#p4b38af9469)" d="M 353.25 653.28 
C 358.150953 653.28 362.851836 651.332831 366.317333 647.867333 
C 369.782831 644.401836 371.73 639.700953 371.73 634.8 
C 371.73 629.899047 369.782831 625.198164 366.317333 621.732667 
C 362.851836 618.267169 358.150953 616.32 353.25 616.32 
C 348.349047 616.32 343.648164 618.267169 340.182667 621.732667 
C 336.717169 625.198164 334.77 629.899047 334.77 634.8 
C 334.77 639.700953 336.717169 644.401836 340.182667 647.867333 
C 343.648164 651.332831 348.349047 653.28 353.25 653.28 
z
" style="opacity:0.75;stroke:#000000;stroke-linejoin:miter;"/>
   </g>
   <g id="patch_9">
    <path clip-path="url(#p4b38af9469)" d="M 385.59 745.68 
C 390.490953 745.68 395.191836 743.732831 398.657333 740.267333 
C 402.122831 736.801836 404.07 732.100953 404.07 727.2 
C 404.07 722.299047 402.122831 717.598164 398.657333 714.132667 
C 395.191836 710.667169 390.490953 708.72 385.59 708.72 
C 380.689047 708.72 375.988164 710.667169 372.522667 714.132667 
C 369.057169 717.598164 367.11 722.299047 367.11 727.2 
C 367.11 732.100953 369.057169 736.801836 372.522667 740.267333 
C 375.988164 743.732831 380.689047 745.68 385.59 745.68 
z
" style="fill:#ff00ff;opacity:0.5;stroke:#ff00ff;stroke-linejoin:miter;"/>
   </g>
   <g id="patch_10">
    <path clip-path="url(#p4b38af9469)" d="M 413.31 907.38 
C 424.337145 907.38 434.914131 902.998869 442.7115 895.2015 
C 450.508869 887.404131 454.89 876.827145 454.89 865.8 
C 454.89 854.772855 450.508869 844.195869 442.7115 836.3985 
C 434.914131 828.601131 424.337145 824.22 413.31 824.22 
C 402.282855 824.22 391.705869 828.601131 383.9085 836.3985 
C 376.111131 844.195869 371.73 854.772855 371.73 865.8 
C 371.73 876.827145 376.111131 887.404131 383.9085 895.2015 
C 391.705869 902.998869 402.282855 907.38 413.31 907.38 
z
" style="opacity:0.75;stroke:#000000;stroke-linejoin:miter;"/>
   </g>
   <g id="patch_11">
    <path clip-path="url(#p4b38af9469)" d="M 514.95 801.12 
C 522.30143 801.12 529.352754 798.199246 534.551 793.001 
C 539.749246 787.802754 542.67 780.75143 542.67 773.4 
C 542.67 766.04857 539.749246 758.997246 534.551 753.799 
C 529.352754 748.600754 522.30143 745.68 514.95 745.68 
C 507.59857 745.68 500.547246 748.600754 495.349 753.799 
C 490.150754 758.997246 487.23 766.04857 487.23 773.4 
C 487.23 780.75143 490.150754 787.802754 495.349 793.001 
C 500.547246 798.199246 507.59857 801.12 514.95 801.12 
z
" style="opacity:0.75;stroke:#000000;stroke-linejoin:miter;"/>
   </g>
   <g id="patch_12">
    <path clip-path="url(#p4b38af9469)" d="M 390.21 662.52 
C 397.56143 662.52 404.612754 659.599246 409.811 654.401 
C 415.009246 649.202754 417.93 642.15143 417.93 634.8 
C 417.93 627.44857 415.009246 620.397246 409.811 615.199 
C 404.612754 610.000754 397.56143 607.08 390.21 607.08 
C 382.85857 607.08 375.807246 610.000754 370.609 615.199 
C 365.410754 620.397246 362.49 627.44857 362.49 634.8 
C 362.49 642.15143 365.410754 649.202754 370.609 654.401 
C 375.807246 659.599246 382.85857 662.52 390.21 662.52 
z
" style="opacity:0.75;stroke:#000000;stroke-linejoin:miter;"/>
   </g>
   <g id="patch_13">
    <path clip-path="url(#p4b38af9469)" d="M 293.19 810.36 
C 298.090953 810.36 302.791836 808.412831 306.257333 804.947333 
C 309.722831 801.481836 311.67 796.780953 311.67 791.88 
C 311.67 786.979047 309.722831 782.278164 306.257333 778.812667 
C 302.791836 775.347169 298.090953 773.4 293.19 773.4 
C 288.289047 773.4 283.588164 775.347169 280.122667 778.812667 
C 276.657169 782.278164 274.71 786.979047 274.71 791.88 
C 274.71 796.780953 276.657169 801.481836 280.122667 804.947333 
C 283.588164 808.412831 288.289047 810.36 293.19 810.36 
z
" style="opacity:0.75;stroke:#000000;stroke-linejoin:miter;"/>
   </g>
   <g id="patch_14">
    <path clip-path="url(#p4b38af9469)" d="M 283.95 708.72 
C 288.850953 708.72 293.551836 706.772831 297.017333 703.307333 
C 300.482831 699.841836 302.43 695.140953 302.43 690.24 
C 302.43 685.339047 300.482831 680.638164 297.017333 677.172667 
C 293.551836 673.707169 288.850953 671.76 283.95 671.76 
C 279.049047 671.76 274.348164 673.707169 270.882667 677.172667 
C 267.417169 680.638164 265.47 685.339047 265.47 690.24 
C 265.47 695.140953 267.417169 699.841836 270.882667 703.307333 
C 274.348164 706.772831 279.049047 708.72 283.95 708.72 
z
" style="opacity:0.75;stroke:#000000;stroke-linejoin:miter;"/>
   </g>
   <g id="patch_15">
    <path clip-path="url(#p4b38af9469)" d="M 353.25 653.28 
C 358.150953 653.28 362.851836 651.332831 366.317333 647.867333 
C 369.782831 644.401836 371.73 639.700953 371.73 634.8 
C 371.73 629.899047 369.782831 625.198164 366.317333 621.732667 
C 362.851836 618.267169 358.150953 616.32 353.25 616.32 
C 348.349047 616.32 343.648164 618.267169 340.182667 621.732667 
C 336.717169 625.198164 334.77 629.899047 334.77 634.8 
C 334.77 639.700953 336.717169 644.401836 340.182667 647.867333 
C 343.648164 651.332831 348.349047 653.28 353.25 653.28 
z
" style="opacity:0.75;stroke:#000000;stroke-linejoin:miter;"/>
   </g>
   <g id="patch_16">
    <path clip-path="url(#p4b38af9469)" d="M 385.59 745.68 
C 390.490953 745.68 395.191836 743.732831 398.657333 740.267333 
C 402.122831 736.801836 404.07 732.100953 404.07 727.2 
C 404.07 722.299047 402.122831 717.598164 398.657333 714.132667 
C 395.191836 710.667169 390.490953 708.72 385.59 708.72 
C 380.689047 708.72 375.988164 710.667169 372.522667 714.132667 
C 369.057169 717.598164 367.11 722.299047 367.11 727.2 
C 367.11 732.100953 369.057169 736.801836 372.522667 740.267333 
C 375.988164 743.732831 380.689047 745.68 385.59 745.68 
z
" style="fill:#ff00ff;opacity:0.5;stroke:#ff00ff;stroke-linejoin:miter;"/>
   </g>
   <g id="patch_17">
    <path clip-path="url(#p4b38af9469)" d="M 413.31 907.38 
C 424.337145 907.38 434.914131 902.998869 442.7115 895.2015 
C 450.508869 887.404131 454.89 876.827145 454.89 865.8 
C 454.89 854.772855 450.508869 844.195869 442.7115 836.3985 
C 434.914131 828.601131 424.337145 824.22 413.31 824.22 
C 402.282855 824.22 391.705869 828.601131 383.9085 836.3985 
C 376.111131 844.195869 371.73 854.772855 371.73 865.8 
C 371.73 876.827145 376.111131 887.404131 383.9085 895.2015 
C 391.705869 902.998869 402.282855 907.38 413.31 907.38 
z
" style="opacity:0.75;stroke:#000000;stroke-linejoin:miter;"/>
   </g>
   <g id="patch_18">
    <path clip-path="url(#p4b38af9469)" d="M 514.95 801.12 
C 522.30143 801.12 529.352754 798.199246 534.551 793.001 
C 539.749246 787.802754 542.67 780.75143 542.67 773.4 
C 542.67 766.04857 539.749246 758.997246 534.551 753.799 
C 529.352754 748.600754 522.30143 745.68 514.95 745.68 
C 507.59857 745.68 500.547246 748.600754 495.349 753.799 
C 490.150754 758.997246 487.23 766.04857 487.23 773.4 
C 487.23 780.75143 490.150754 787.802754 495.349 793.001 
C 500.547246 798.199246 507.59857 801.12 514.95 801.12 
z
" style="opacity:0.75;stroke:#000000;stroke-linejoin:miter;"/>
   </g>
   <g id="patch_19">
    <path clip-path="url(#p4b38af9469)" d="M 390.21 662.52 
C 397.56143 662.52 404.612754 659.599246 409.811 654.401 
C 415.009246 649.202754 417.93 642.15143 417.93 634.8 
C 417.93 627.44857 415.009246 620.397246 409.811 615.199 
C 404.612754 610.000754 397.56143 607.08 390.21 607.08 
C 382.85857 607.08 375.807246 610.000754 370.609 615.199 
C 365.410754 620.397246 362.49 627.44857 362.49 634.8 
C 362.49 642.15143 365.410754 649.202754 370.609 654.401 
C 375.807246 659.599246 382.85857 662.52 390.21 662.52 
z
" style="opacity:0.75;stroke:#000000;stroke-linejoin:miter;"/>
   </g>
   <g id="patch_20">
    <path clip-path="url(#p4b38af9469)" d="M 293.19 810.36 
C 298.090953 810.36 302.791836 808.412831 306.257333 804.947333 
C 309.722831 801.481836 311.67 796.780953 311.67 791.88 
C 311.67 786.979047 309.722831 782.278164 306.257333 778.812667 
C 302.791836 775.347169 298.090953 773.4 293.19 773.4 
C 288.289047 773.4 283.588164 775.347169 280.122667 778.812667 
C 276.657169 782.278164 274.71 786.979047 274.71 791.88 
C 274.71 796.780953 276.657169 801.481836 280.122667 804.947333 
C 283.588164 808.412831 288.289047 810.36 293.19 810.36 
z
" style="opacity:0.75;stroke:#000000;stroke-linejoin:miter;"/>
   </g>
   <g id="patch_21">
    <path clip-path="url(#p4b38af9469)" d="M 283.95 708.72 
C 288.850953 708.72 293.551836 706.772831 297.017333 703.307333 
C 300.482831 699.841836 302.43 695.140953 302.43 690.24 
C 302.43 685.339047 300.482831 680.638164 297.017333 677.172667 
C 293.551836 673.707169 288.850953 671.76 283.95 671.76 
C 279.049047 671.76 274.348164 673.707169 270.882667 677.172667 
C 267.417169 680.638164 265.47 685.339047 265.47 690.24 
C 265.47 695.140953 267.417169 699.841836 270.882667 703.307333 
C 274.348164 706.772831 279.049047 708.72 283.95 708.72 
z
" style="opacity:0.75;stroke:#000000;stroke-linejoin:miter;"/>
   </g>
   <g id="patch_22">
    <path clip-path="url(#p4b38af9469)" d="M 353.25 653.28 
C 358.150953 653.28 362.851836 651.332831 366.317333 647.867333 
C 369.782831 644.401836 371.73 639.700953 371.73 634.8 
C 371.73 629.899047 369.782831 625.198164 366.317333 621.732667 
C 362.851836 618.267169 358.150953 616.32 353.25 616.32 
C 348.349047 616.32 343.648164 618.267169 340.182667 621.732667 
C 336.717169 625.198164 334.77 629.899047 334.77 634.8 
C 334.77 639.700953 336.717169 644.401836 340.182667 647.867333 
C 343.648164 651.332831 348.349047 653.28 353.25 653.28 
z
" style="opacity:0.75;stroke:#000000;stroke-linejoin:miter;"/>
   </g>
   <g id="patch_23">
    <path clip-path="url(#p4b38af9469)" d="M 385.59 745.68 
C 390.490953 745.68 395.191836 743.732831 398.657333 740.267333 
C 402.122831 736.801836 404.07 732.100953 404.07 727.2 
C 404.07 722.299047 402.122831 717.598164 398.657333 714.132667 
C 395.191836 710.667169 390.490953 708.72 385.59 708.72 
C 380.689047 708.72 375.988164 710.667169 372.522667 714.132667 
C 369.057169 717.598164 367.11 722.299047 367.11 727.2 
C 367.11 732.100953 369.057169 736.801836 372.522667 740.267333 
C 375.988164 743.732831 380.689047 745.68 385.59 745.68 
z
" style="fill:#ff00ff;opacity:0.5;stroke:#ff00ff;stroke-linejoin:miter;"/>
   </g>
   <g id="patch_24">
    <path clip-path="url(#p4b38af9469)" d="M 413.31 907.38 
C 424.337145 907.38 434.914131 902.998869 442.7115 895.2015 
C 450.508869 887.404131 454.89 876.827145 454.89 865.8 
C 454.89 854.772855 450.508869 844.195869 442.7115 836.3985 
C 434.914131 828.601131 424.337145 824.22 413.31 824.22 
C 402.282855 824.22 391.705869 828.601131 383.9085 836.3985 
C 376.111131 844.195869 371.73 854.772855 371.73 865.8 
C 371.73 876.827145 376.111131 887.404131 383.9085 895.2015 
C 391.705869 902.998869 402.282855 907.38 413.31 907.38 
z
" style="opacity:0.75;stroke:#000000;stroke-linejoin:miter;"/>
   </g>
   <g id="patch_25">
    <path clip-path="url(#p4b38af9469)" d="M 514.95 801.12 
C 522.30143 801.12 529.352754 798.199246 534.551 793.001 
C 539.749246 787.802754 542.67 780.75143 542.67 773.4 
C 542.67 766.04857 539.749246 758.997246 534.551 753.799 
C 529.352754 748.600754 522.30143 745.68 514.95 745.68 
C 507.59857 745.68 500.547246 748.600754 495.349 753.799 
C 490.150754 758.997246 487.23 766.04857 487.23 773.4 
C 487.23 780.75143 490.150754 787.802754 495.349 793.001 
C 500.547246 798.199246 507.59857 801.12 514.95 801.12 
z
" style="opacity:0.75;stroke:#000000;stroke-linejoin:miter;"/>
   </g>
   <g id="patch_26">
    <path clip-path="url(#p4b38af9469)" d="M 390.21 662.52 
C 397.56143 662.52 404.612754 659.599246 409.811 654.401 
C 415.009246 649.202754 417.93 642.15143 417.93 634.8 
C 417.93 627.44857 415.009246 620.397246 409.811 615.199 
C 404.612754 610.000754 397.56143 607.08 390.21 607.08 
C 382.85857 607.08 375.807246 610.000754 370.609 615.199 
C 365.410754 620.397246 362.49 627.44857 362.49 634.8 
C 362.49 642.15143 365.410754 649.202754 370.609 654.401 
C 375.807246 659.599246 382.85857 662.52 390.21 662.52 
z
" style="opacity:0.75;stroke:#000000;stroke-linejoin:miter;"/>
   </g>
   <g id="patch_27">
    <path clip-path="url(#p4b38af9469)" d="M 293.19 810.36 
C 298.090953 810.36 302.791836 808.412831 306.257333 804.947333 
C 309.722831 801.481836 311.67 796.780953 311.67 791.88 
C 311.67 786.979047 309.722831 782.278164 306.257333 778.812667 
C 302.791836 775.347169 298.090953 773.4 293.19 773.4 
C 288.289047 773.4 283.588164 775.347169 280.122667 778.812667 
C 276.657169 782.278164 274.71 786.979047 274.71 791.88 
C 274.71 796.780953 276.657169 801.481836 280.122667 804.947333 
C 283.588164 808.412831 288.289047 810.36 293.19 810.36 
z
" style="opacity:0.75;stroke:#000000;stroke-linejoin:miter;"/>
   </g>
   <g id="patch_28">
    <path clip-path="url(#p4b38af9469)" d="M 283.95 708.72 
C 288.850953 708.72 293.551836 706.772831 297.017333 703.307333 
C 300.482831 699.841836 302.43 695.140953 302.43 690.24 
C 302.43 685.339047 300.482831 680.638164 297.017333 677.172667 
C 293.551836 673.707169 288.850953 671.76 283.95 671.76 
C 279.049047 671.76 274.348164 673.707169 270.882667 677.172667 
C 267.417169 680.638164 265.47 685.339047 265.47 690.24 
C 265.47 695.140953 267.417169 699.841836 270.882667 703.307333 
C 274.348164 706.772831 279.049047 708.72 283.95 708.72 
z
" style="opacity:0.75;stroke:#000000;stroke-linejoin:miter;"/>
   </g>
   <g id="patch_29">
    <path clip-path="url(#p4b38af9469)" d="M 353.25 653.28 
C 358.150953 653.28 362.851836 651.332831 366.317333 647.867333 
C 369.782831 644.401836 371.73 639.700953 371.73 634.8 
C 371.73 629.899047 369.782831 625.198164 366.317333 621.732667 
C 362.851836 618.267169 358.150953 616.32 353.25 616.32 
C 348.349047 616.32 343.648164 618.267169 340.182667 621.732667 
C 336.717169 625.198164 334.77 629.899047 334.77 634.8 
C 334.77 639.700953 336.717169 644.401836 340.182667 647.867333 
C 343.648164 651.332831 348.349047 653.28 353.25 653.28 
z
" style="opacity:0.75;stroke:#000000;stroke-linejoin:miter;"/>
   </g>
   <g id="patch_30">
    <path clip-path="url(#p4b38af9469)" d="M 385.59 745.68 
C 390.490953 745.68 395.191836 743.732831 398.657333 740.267333 
C 402.122831 736.801836 404.07 732.100953 404.07 727.2 
C 404.07 722.299047 402.122831 717.598164 398.657333 714.132667 
C 395.191836 710.667169 390.490953 708.72 385.59 708.72 
C 380.689047 708.72 375.988164 710.667169 372.522667 714.132667 
C 369.057169 717.598164 367.11 722.299047 367.11 727.2 
C 367.11 732.100953 369.057169 736.801836 372.522667 740.267333 
C 375.988164 743.732831 380.689047 745.68 385.59 745.68 
z
" style="fill:#ff00ff;opacity:0.5;stroke:#ff00ff;stroke-linejoin:miter;"/>
   </g>
   <g id="patch_31">
    <path clip-path="url(#p4b38af9469)" d="M 413.31 907.38 
C 424.337145 907.38 434.914131 902.998869 442.7115 895.2015 
C 450.508869 887.404131 454.89 876.827145 454.89 865.8 
C 454.89 854.772855 450.508869 844.195869 442.7115 836.3985 
C 434.914131 828.601131 424.337145 824.22 413.31 824.22 
C 402.282855 824.22 391.705869 828.601131 383.9085 836.3985 
C 376.111131 844.195869 371.73 854.772855 371.73 865.8 
C 371.73 876.827145 376.111131 887.404131 383.9085 895.2015 
C 391.705869 902.998869 402.282855 907.38 413.31 907.38 
z
" style="opacity:0.75;stroke:#000000;stroke-linejoin:miter;"/>
   </g>
   <g id="patch_32">
    <path clip-path="url(#p4b38af9469)" d="M 514.95 801.12 
C 522.30143 801.12 529.352754 798.199246 534.551 793.001 
C 539.749246 787.802754 542.67 780.75143 542.67 773.4 
C 542.67 766.04857 539.749246 758.997246 534.551 753.799 
C 529.352754 748.600754 522.30143 745.68 514.95 745.68 
C 507.59857 745.68 500.547246 748.600754 495.349 753.799 
C 490.150754 758.997246 487.23 766.04857 487.23 773.4 
C 487.23 780.75143 490.150754 787.802754 495.349 793.001 
C 500.547246 798.199246 507.59857 801.12 514.95 801.12 
z
" style="opacity:0.75;stroke:#000000;stroke-linejoin:miter;"/>
   </g>
   <g id="patch_33">
    <path clip-path="url(#p4b38af9469)" d="M 390.21 662.52 
C 397.56143 662.52 404.612754 659.599246 409.811 654.401 
C 415.009246 649.202754 417.93 642.15143 417.93 634.8 
C 417.93 627.44857 415.009246 620.397246 409.811 615.199 
C 404.612754 610.000754 397.56143 607.08 390.21 607.08 
C 382.85857 607.08 375.807246 610.000754 370.609 615.199 
C 365.410754 620.397246 362.49 627.44857 362.49 634.8 
C 362.49 642.15143 365.410754 649.202754 370.609 654.401 
C 375.807246 659.599246 382.85857 662.52 390.21 662.52 
z
" style="opacity:0.75;stroke:#000000;stroke-linejoin:miter;"/>
   </g>
   <g id="patch_34">
    <path clip-path="url(#p4b38af9469)" d="M 293.19 810.36 
C 298.090953 810.36 302.791836 808.412831 306.257333 804.947333 
C 309.722831 801.481836 311.67 796.780953 311.67 791.88 
C 311.67 786.979047 309.722831 782.278164 306.257333 778.812667 
C 302.791836 775.347169 298.090953 773.4 293.19 773.4 
C 288.289047 773.4 283.588164 775.347169 280.122667 778.812667 
C 276.657169 782.278164 274.71 786.979047 274.71 791.88 
C 274.71 796.780953 276.657169 801.481836 280.122667 804.947333 
C 283.588164 808.412831 288.289047 810.36 293.19 810.36 
z
" style="opacity:0.75;stroke:#000000;stroke-linejoin:miter;"/>
   </g>
   <g id="patch_35">
    <path clip-path="url(#p4b38af9469)" d="M 283.95 708.72 
C 288.850953 708.72 293.551836 706.772831 297.017333 703.307333 
C 300.482831 699.841836 302.43 695.140953 302.43 690.24 
C 302.43 685.339047 300.482831 680.638164 297.017333 677.172667 
C 293.551836 673.707169 288.850953 671.76 283.95 671.76 
C 279.049047 671.76 274.348164 673.707169 270.882667 677.172667 
C 267.417169 680.638164 265.47 685.339047 265.47 690.24 
C 265.47 695.140953 267.417169 699.841836 270.882667 703.307333 
C 274.348164 706.772831 279.049047 708.72 283.95 708.72 
z
" style="opacity:0.75;stroke:#000000;stroke-linejoin:miter;"/>
   </g>
   <g id="patch_36">
    <path clip-path="url(#p4b38af9469)" d="M 353.25 653.28 
C 358.150953 653.28 362.851836 651.332831 366.317333 647.867333 
C 369.782831 644.401836 371.73 639.700953 371.73 634.8 
C 371.73 629.899047 369.782831 625.198164 366.317333 621.732667 
C 362.851836 618.267169 358.150953 616.32 353.25 616.32 
C 348.349047 616.32 343.648164 618.267169 340.182667 621.732667 
C 336.717169 625.198164 334.77 629.899047 334.77 634.8 
C 334.77 639.700953 336.717169 644.401836 340.182667 647.867333 
C 343.648164 651.332831 348.349047 653.28 353.25 653.28 
z
" style="opacity:0.75;stroke:#000000;stroke-linejoin:miter;"/>
   </g>
   <g id="patch_37">
    <path clip-path="url(#p4b38af9469)" d="M 385.59 745.68 
C 390.490953 745.68 395.191836 743.732831 398.657333 740.267333 
C 402.122831 736.801836 404.07 732.100953 404.07 727.2 
C 404.07 722.299047 402.122831 717.598164 398.657333 714.132667 
C 395.191836 710.667169 390.490953 708.72 385.59 708.72 
C 380.689047 708.72 375.988164 710.667169 372.522667 714.132667 
C 369.057169 717.598164 367.11 722.299047 367.11 727.2 
C 367.11 732.100953 369.057169 736.801836 372.522667 740.267333 
C 375.988164 743.732831 380.689047 745.68 385.59 745.68 
z
" style="fill:#ff00ff;opacity:0.5;stroke:#ff00ff;stroke-linejoin:miter;"/>
   </g>
   <g id="patch_38">
    <path clip-path="url(#p4b38af9469)" d="M 413.31 907.38 
C 424.337145 907.38 434.914131 902.998869 442.7115 895.2015 
C 450.508869 887.404131 454.89 876.827145 454.89 865.8 
C 454.89 854.772855 450.508869 844.195869 442.7115 836.3985 
C 434.914131 828.601131 424.337145 824.22 413.31 824.22 
C 402.282855 824.22 391.705869 828.601131 383.9085 836.3985 
C 376.111131 844.195869 371.73 854.772855 371.73 865.8 
C 371.73 876.827145 376.111131 887.404131 383.9085 895.2015 
C 391.705869 902.998869 402.282855 907.38 413.31 907.38 
z
" style="opacity:0.75;stroke:#000000;stroke-linejoin:miter;"/>
   </g>
   <g id="patch_39">
    <path clip-path="url(#p4b38af9469)" d="M 514.95 801.12 
C 522.30143 801.12 529.352754 798.199246 534.551 793.001 
C 539.749246 787.802754 542.67 780.75143 542.67 773.4 
C 542.67 766.04857 539.749246 758.997246 534.551 753.799 
C 529.352754 748.600754 522.30143 745.68 514.95 745.68 
C 507.59857 745.68 500.547246 748.600754 495.349 753.799 
C 490.150754 758.997246 487.23 766.04857 487.23 773.4 
C 487.23 780.75143 490.150754 787.802754 495.349 793.001 
C 500.547246 798.199246 507.59857 801.12 514.95 801.12 
z
" style="opacity:0.75;stroke:#000000;stroke-linejoin:miter;"/>
   </g>
   <g id="patch_40">
    <path clip-path="url(#p4b38af9469)" d="M 390.21 662.52 
C 397.56143 662.52 404.612754 659.599246 409.811 654.401 
C 415.009246 649.202754 417.93 642.15143 417.93 634.8 
C 417.93 627.44857 415.009246 620.397246 409.811 615.199 
C 404.612754 610.000754 397.56143 607.08 390.21 607.08 
C 382.85857 607.08 375.807246 610.000754 370.609 615.199 
C 365.410754 620.397246 362.49 627.44857 362.49 634.8 
C 362.49 642.15143 365.410754 649.202754 370.609 654.401 
C 375.807246 659.599246 382.85857 662.52 390.21 662.52 
z
" style="opacity:0.75;stroke:#000000;stroke-linejoin:miter;"/>
   </g>
   <g id="patch_41">
    <path clip-path="url(#p4b38af9469)" d="M 293.19 810.36 
C 298.090953 810.36 302.791836 808.412831 306.257333 804.947333 
C 309.722831 801.481836 311.67 796.780953 311.67 791.88 
C 311.67 786.979047 309.722831 782.278164 306.257333 778.812667 
C 302.791836 775.347169 298.090953 773.4 293.19 773.4 
C 288.289047 773.4 283.588164 775.347169 280.122667 778.812667 
C 276.657169 782.278164 274.71 786.979047 274.71 791.88 
C 274.71 796.780953 276.657169 801.481836 280.122667 804.947333 
C 283.588164 808.412831 288.289047 810.36 293.19 810.36 
z
" style="opacity:0.75;stroke:#000000;stroke-linejoin:miter;"/>
   </g>
   <g id="patch_42">
    <path clip-path="url(#p4b38af9469)" d="M 283.95 708.72 
C 288.850953 708.72 293.551836 706.772831 297.017333 703.307333 
C 300.482831 699.841836 302.43 695.140953 302.43 690.24 
C 302.43 685.339047 300.482831 680.638164 297.017333 677.172667 
C 293.551836 673.707169 288.850953 671.76 283.95 671.76 
C 279.049047 671.76 274.348164 673.707169 270.882667 677.172667 
C 267.417169 680.638164 265.47 685.339047 265.47 690.24 
C 265.47 695.140953 267.417169 699.841836 270.882667 703.307333 
C 274.348164 706.772831 279.049047 708.72 283.95 708.72 
z
" style="opacity:0.75;stroke:#000000;stroke-linejoin:miter;"/>
   </g>
   <g id="patch_43">
    <path clip-path="url(#p4b38af9469)" d="M 353.25 653.28 
C 358.150953 653.28 362.851836 651.332831 366.317333 647.867333 
C 369.782831 644.401836 371.73 639.700953 371.73 634.8 
C 371.73 629.899047 369.782831 625.198164 366.317333 621.732667 
C 362.851836 618.267169 358.150953 616.32 353.25 616.32 
C 348.349047 616.32 343.648164 618.267169 340.182667 621.732667 
C 336.717169 625.198164 334.77 629.899047 334.77 634.8 
C 334.77 639.700953 336.717169 644.401836 340.182667 647.867333 
C 343.648164 651.332831 348.349047 653.28 353.25 653.28 
z
" style="opacity:0.75;stroke:#000000;stroke-linejoin:miter;"/>
   </g>
   <g id="line2d_1">
    <path clip-path="url(#p4b38af9469)" d="M 534.973754 582.233726 
L 533.860079 588.157455 
L 532.748529 594.06934 
L 531.64503 599.972999 
L 530.558692 605.871651 
L 529.498911 611.767831 
L 528.474022 617.663317 
L 527.490305 623.559077 
L 526.551107 629.455247 
L 525.655964 635.351125 
L 524.799715 641.24518 
L 523.971658 647.135044 
L 523.154813 653.017472 
L 522.325407 658.88817 
L 521.452669 664.741455 
L 520.499052 670.569631 
L 519.420963 676.362085 
L 518.170126 682.104098 
L 516.695687 687.775549 
L 514.947185 693.34978 
L 512.878427 698.793112 
L 510.452118 704.065613 
L 507.644777 709.123752 
L 504.451099 713.92535 
L 500.886659 718.436662 
L 496.987916 722.640493 
L 492.809027 726.543285 
L 488.416224 730.178806 
L 483.881727 733.607173 
L 479.279149 736.909284 
L 474.682211 740.179169 
L 470.169085 743.518938 
L 465.867279 747.033876 
L 461.989754 750.90492 
L 458.68962 755.230219 
L 455.836444 759.856723 
L 453.203384 764.62026 
L 450.566707 769.389901 
L 447.748914 774.057324 
L 444.639865 778.532866 
L 441.189053 782.744506 
L 437.385164 786.634618 
L 433.23882 790.154685 
L 428.774465 793.262402 
L 424.028465 795.923711 
L 419.047826 798.118431 
L 413.886127 799.844918 
L 408.597251 801.119958 
L 403.229763 801.973987 
L 397.823951 802.44515 
L 392.411509 802.576748 
L 387.016181 802.412427 
L 381.704111 802.024812 
L 376.485973 801.533801 
L 371.313093 800.844329 
L 366.187415 799.810364 
L 361.141397 798.343817 
L 356.212619 796.427327 
L 351.426781 794.08916 
L 346.797702 791.370189 
L 342.33689 788.302989 
L 338.062815 784.90549 
L 334.005438 781.18397 
L 330.206181 777.139791 
L 326.715093 772.776157 
L 323.586916 768.103024 
L 320.877298 763.139953 
L 318.639896 757.917188 
L 316.9238 752.475669 
L 315.771553 746.866229 
L 315.218009 741.148302 
L 315.289878 735.388455 
L 316.005686 729.659336 
L 317.376367 724.039338 
L 319.404807 718.6126 
L 322.084523 713.468954 
L 325.397698 708.703507 
L 329.312642 704.415531 
L 333.780931 700.705953 
L 338.734477 697.673291 
L 344.084091 695.409447 
L 349.718765 693.992479 
L 355.507917 693.476284 
L 361.309183 693.879223 
L 366.982736 695.175156 
L 372.410351 697.291047 
L 377.51239 700.117219 
L 382.251456 703.531147 
L 386.629889 707.410212 
L 390.679547 711.643257 
L 394.44047 716.143469 
" style="fill:none;stroke:#0000ff;stroke-linecap:square;stroke-opacity:0.4;stroke-width:2;"/>
   </g>
   <g id="line2d_2">
    <path clip-path="url(#p4b38af9469)" d="M 427.243452 978.125572 
L 423.836614 973.348216 
L 419.213118 966.849279 
L 414.37327 960.139823 
L 409.437377 953.47442 
L 404.375678 946.853428 
L 399.169199 940.260369 
L 393.829769 933.683183 
L 388.394429 927.099117 
L 382.921624 920.4652 
L 377.490976 913.718375 
L 372.204365 906.782089 
L 367.186626 899.576562 
L 362.584211 892.031463 
L 358.558953 884.100298 
L 355.274361 875.775274 
L 352.872601 867.095867 
L 351.44898 858.110593 
L 351.033903 848.920942 
L 351.394264 839.66381 
L 352.35565 830.424257 
L 353.824158 821.267562 
L 355.772801 812.235162 
L 358.147038 803.344797 
L 360.857186 794.587763 
L 363.807302 785.941447 
L 366.91386 777.382001 
L 370.105879 768.889831 
L 373.319181 760.451944 
L 376.498942 752.069604 
L 379.604066 743.776628 
" style="fill:none;stroke:#0000ff;stroke-linecap:square;stroke-opacity:0.4;stroke-width:2;"/>
   </g>
   <g id="line2d_3">
    <path clip-path="url(#p4b38af9469)" d="M 475.713504 1008.438574 
L 477.709203 1000.798075 
L 480.093565 991.505175 
L 482.526097 981.855293 
L 484.900547 972.155925 
L 487.157461 962.428515 
L 489.244318 952.643215 
L 491.105081 942.778268 
L 492.678166 932.825991 
L 493.897835 922.788589 
L 494.696998 912.675454 
L 495.010537 902.502942 
L 494.778764 892.29513 
L 493.950781 882.084175 
L 492.487511 871.909541 
L 490.364149 861.815962 
L 487.571697 851.850377 
L 484.117331 842.058328 
L 480.023496 832.480377 
L 475.325827 823.149141 
L 470.070185 814.087336 
L 464.309175 805.307122 
L 458.098428 796.810859 
L 451.492989 788.59321 
L 444.544359 780.644108 
L 437.299083 772.951525 
L 429.799973 765.5024 
L 422.091521 758.279425 
L 414.229574 751.253257 
L 406.285433 744.383903 
L 398.335055 737.653472 
" style="fill:none;stroke:#0000ff;stroke-linecap:square;stroke-opacity:0.4;stroke-width:2;"/>
   </g>
   <g id="line2d_4">
    <path clip-path="url(#p4b38af9469)" d="M 580.295248 1083.886759 
L 576.617049 1080.53112 
L 572.426827 1076.711386 
L 568.088597 1072.766125 
L 563.710479 1068.800531 
L 559.309725 1064.836126 
L 554.879471 1060.871668 
L 550.411307 1056.903534 
L 545.900309 1052.929982 
L 541.344617 1048.950334 
L 536.744196 1044.963386 
L 532.100128 1040.966317 
L 527.414496 1036.954202 
L 522.690578 1032.919932 
L 517.933101 1028.854325 
L 513.148385 1024.746346 
L 508.344325 1020.583419 
L 503.530161 1016.351873 
L 498.716055 1012.037548 
L 493.912434 1007.626614 
L 489.129106 1003.106556 
L 484.374117 998.467304 
L 479.652375 993.702404 
L 474.964099 988.810139 
L 470.303223 983.794495 
L 465.65596 978.665917 
L 460.999774 973.441819 
L 456.303046 968.146895 
L 451.525714 962.813219 
L 446.621115 957.480056 
L 441.539214 952.193132 
L 436.231219 947.0028 
L 430.655288 941.960413 
L 424.782528 937.112211 
L 418.60206 932.490607 
L 412.123822 928.103747 
L 405.378672 923.925242 
L 398.416791 919.886508 
L 391.306652 915.874094 
L 384.137066 911.733835 
L 377.023687 907.282636 
L 370.118671 902.32801 
L 363.620537 896.694257 
L 357.779677 890.251094 
L 352.878074 882.928253 
L 349.252295 874.725151 
L 347.212685 865.834033 
L 346.642827 856.620091 
L 347.234349 847.317501 
L 348.698291 838.054382 
L 350.786576 828.903142 
L 353.341302 819.893646 
L 356.226725 811.027413 
L 359.327136 802.279295 
L 362.538848 793.612078 
L 365.784264 784.990892 
L 369.010612 776.390926 
L 372.173128 767.796021 
L 375.222438 759.197274 
L 378.109825 750.600563 
L 380.800419 742.046164 
" style="fill:none;stroke:#0000ff;stroke-linecap:square;stroke-opacity:0.4;stroke-width:2;"/>
   </g>
   <g id="line2d_5">
    <path clip-path="url(#p4b38af9469)" d="M 285.970308 897.089085 
L 285.919326 894.326199 
L 285.881153 891.57958 
L 285.858548 888.839744 
L 285.84864 886.101795 
L 285.846359 883.36333 
L 285.84572 880.623245 
L 285.840341 877.881082 
L 285.823631 875.136688 
L 285.788851 872.390061 
L 285.729111 869.641301 
L 285.637361 866.890619 
L 285.5064 864.138378 
L 285.328906 861.385152 
L 285.097506 858.631776 
L 284.804869 855.879396 
L 284.443836 853.129503 
L 284.007566 850.383938 
L 283.489707 847.644877 
L 282.884572 844.914771 
L 282.187333 842.196256 
L 281.394201 839.492014 
L 280.502608 836.804582 
L 279.511364 834.136134 
L 278.420804 831.488204 
L 277.232905 828.861393 
L 275.951372 826.255045 
L 274.581698 823.666934 
L 273.131191 821.092966 
L 271.608988 818.526922 
L 270.026061 815.960273 
L 268.395262 813.382053 
L 266.731402 810.778826 
L 265.051397 808.134756 
L 263.374406 805.431816 
L 261.722239 802.650211 
L 260.12083 799.768684 
L 258.598835 796.74894 
L 257.215021 793.500031 
L 256.140966 789.948085 
L 255.499283 786.132394 
L 255.301565 782.073145 
L 255.543069 777.788968 
L 256.167057 773.291226 
L 257.326177 768.704178 
L 259.102743 764.243476 
L 261.505862 760.056011 
L 264.476289 756.246679 
L 267.912386 752.863746 
L 271.699805 749.900207 
L 275.736017 747.30825 
L 279.943367 745.021344 
L 284.270035 742.97319 
L 288.684643 741.10883 
L 293.169679 739.388702 
L 297.716107 737.788178 
L 302.319631 736.294892 
L 306.978286 734.905356 
L 311.690891 733.621595 
L 316.456079 732.448202 
L 321.271722 731.390051 
L 326.134679 730.450879 
L 331.040778 729.632744 
L 335.984896 728.936182 
L 340.960999 728.360563 
L 345.962077 727.903873 
L 350.979943 727.561813 
L 356.004865 727.32677 
L 361.024735 727.187661 
L 366.022933 727.131329 
L 370.973128 727.146166 
" style="fill:none;stroke:#0000ff;stroke-linecap:square;stroke-opacity:0.4;stroke-width:2;"/>
   </g>
   <g id="line2d_6">
    <path clip-path="url(#p4b38af9469)" d="M 371.472887 1045.131811 
L 375.715732 1040.229473 
L 379.952873 1035.335662 
L 384.204831 1030.427951 
L 388.476126 1025.501654 
L 392.765885 1020.558059 
L 397.072291 1015.599427 
L 401.394079 1010.627224 
L 405.730773 1005.641785 
L 410.082495 1000.642496 
L 414.449677 995.628086 
L 418.832827 990.596866 
L 423.232372 985.546889 
L 427.648578 980.476033 
L 432.081522 975.382037 
L 436.531096 970.262512 
L 440.997031 965.114946 
L 445.478935 959.936711 
L 449.976336 954.725077 
L 454.488719 949.477241 
L 459.015573 944.19035 
L 463.556429 938.861546 
L 468.110886 933.487985 
L 472.678633 928.066868 
L 477.259444 922.595439 
L 481.853151 917.070977 
L 486.459578 911.490739 
L 491.078424 905.851883 
L 495.709094 900.151339 
L 500.350454 894.385629 
L 505.000511 888.550644 
L 509.656002 882.641367 
L 514.311881 876.651549 
L 518.960723 870.573367 
L 523.592008 864.397071 
L 528.191323 858.110675 
L 532.739468 851.699741 
L 537.211475 845.147324 
L 541.575583 838.434183 
L 545.792168 831.539352 
L 549.812712 824.441185 
L 553.578889 817.118993 
L 557.021908 809.555363 
L 560.06232 801.739198 
L 562.610563 793.669448 
L 564.568571 785.359349 
L 565.832787 776.840816 
L 566.298849 768.168462 
L 565.86801 759.422444 
L 564.455052 750.709253 
L 561.996988 742.159585 
L 558.461364 733.922733 
L 553.852677 726.157514 
L 548.215394 719.020565 
L 541.632484 712.653569 
L 534.219247 707.1715 
L 526.113266 702.653933 
L 517.462236 699.140824 
L 508.411822 696.633104 
L 499.095472 695.097404 
L 489.62739 694.473597 
L 480.099106 694.68383 
L 470.579442 695.641883 
L 461.117296 697.261695 
L 451.746106 699.463641 
L 442.488455 702.17699 
L 433.35912 705.337113 
L 424.364808 708.876352 
L 415.502316 712.714123 
L 406.766317 716.765317 
L 398.172958 720.96332 
" style="fill:none;stroke:#0000ff;stroke-linecap:square;stroke-opacity:0.4;stroke-width:2;"/>
   </g>
   <g id="text_1">
    <!-- Iteration: None -->
    <g transform="translate(539.217188 166.8)scale(0.12 -0.12)">
     <defs>
      <path d="M 9.8125 72.90625 
L 19.671875 72.90625 
L 19.671875 0 
L 9.8125 0 
z
" id="DejaVuSans-73"/>
      <path d="M 18.3125 70.21875 
L 18.3125 54.6875 
L 36.8125 54.6875 
L 36.8125 47.703125 
L 18.3125 47.703125 
L 18.3125 18.015625 
Q 18.3125 11.328125 20.140625 9.421875 
Q 21.96875 7.515625 27.59375 7.515625 
L 36.8125 7.515625 
L 36.8125 0 
L 27.59375 0 
Q 17.1875 0 13.234375 3.875 
Q 9.28125 7.765625 9.28125 18.015625 
L 9.28125 47.703125 
L 2.6875 47.703125 
L 2.6875 54.6875 
L 9.28125 54.6875 
L 9.28125 70.21875 
z
" id="DejaVuSans-116"/>
      <path d="M 56.203125 29.59375 
L 56.203125 25.203125 
L 14.890625 25.203125 
Q 15.484375 15.921875 20.484375 11.0625 
Q 25.484375 6.203125 34.421875 6.203125 
Q 39.59375 6.203125 44.453125 7.46875 
Q 49.3125 8.734375 54.109375 11.28125 
L 54.109375 2.78125 
Q 49.265625 0.734375 44.1875 -0.34375 
Q 39.109375 -1.421875 33.890625 -1.421875 
Q 20.796875 -1.421875 13.15625 6.1875 
Q 5.515625 13.8125 5.515625 26.8125 
Q 5.515625 40.234375 12.765625 48.109375 
Q 20.015625 56 32.328125 56 
Q 43.359375 56 49.78125 48.890625 
Q 56.203125 41.796875 56.203125 29.59375 
z
M 47.21875 32.234375 
Q 47.125 39.59375 43.09375 43.984375 
Q 39.0625 48.390625 32.421875 48.390625 
Q 24.90625 48.390625 20.390625 44.140625 
Q 15.875 39.890625 15.1875 32.171875 
z
" id="DejaVuSans-101"/>
      <path d="M 41.109375 46.296875 
Q 39.59375 47.171875 37.8125 47.578125 
Q 36.03125 48 33.890625 48 
Q 26.265625 48 22.1875 43.046875 
Q 18.109375 38.09375 18.109375 28.8125 
L 18.109375 0 
L 9.078125 0 
L 9.078125 54.6875 
L 18.109375 54.6875 
L 18.109375 46.1875 
Q 20.953125 51.171875 25.484375 53.578125 
Q 30.03125 56 36.53125 56 
Q 37.453125 56 38.578125 55.875 
Q 39.703125 55.765625 41.0625 55.515625 
z
" id="DejaVuSans-114"/>
      <path d="M 34.28125 27.484375 
Q 23.390625 27.484375 19.1875 25 
Q 14.984375 22.515625 14.984375 16.5 
Q 14.984375 11.71875 18.140625 8.90625 
Q 21.296875 6.109375 26.703125 6.109375 
Q 34.1875 6.109375 38.703125 11.40625 
Q 43.21875 16.703125 43.21875 25.484375 
L 43.21875 27.484375 
z
M 52.203125 31.203125 
L 52.203125 0 
L 43.21875 0 
L 43.21875 8.296875 
Q 40.140625 3.328125 35.546875 0.953125 
Q 30.953125 -1.421875 24.3125 -1.421875 
Q 15.921875 -1.421875 10.953125 3.296875 
Q 6 8.015625 6 15.921875 
Q 6 25.140625 12.171875 29.828125 
Q 18.359375 34.515625 30.609375 34.515625 
L 43.21875 34.515625 
L 43.21875 35.40625 
Q 43.21875 41.609375 39.140625 45 
Q 35.0625 48.390625 27.6875 48.390625 
Q 23 48.390625 18.546875 47.265625 
Q 14.109375 46.140625 10.015625 43.890625 
L 10.015625 52.203125 
Q 14.9375 54.109375 19.578125 55.046875 
Q 24.21875 56 28.609375 56 
Q 40.484375 56 46.34375 49.84375 
Q 52.203125 43.703125 52.203125 31.203125 
z
" id="DejaVuSans-97"/>
      <path d="M 9.421875 54.6875 
L 18.40625 54.6875 
L 18.40625 0 
L 9.421875 0 
z
M 9.421875 75.984375 
L 18.40625 75.984375 
L 18.40625 64.59375 
L 9.421875 64.59375 
z
" id="DejaVuSans-105"/>
      <path d="M 30.609375 48.390625 
Q 23.390625 48.390625 19.1875 42.75 
Q 14.984375 37.109375 14.984375 27.296875 
Q 14.984375 17.484375 19.15625 11.84375 
Q 23.34375 6.203125 30.609375 6.203125 
Q 37.796875 6.203125 41.984375 11.859375 
Q 46.1875 17.53125 46.1875 27.296875 
Q 46.1875 37.015625 41.984375 42.703125 
Q 37.796875 48.390625 30.609375 48.390625 
z
M 30.609375 56 
Q 42.328125 56 49.015625 48.375 
Q 55.71875 40.765625 55.71875 27.296875 
Q 55.71875 13.875 49.015625 6.21875 
Q 42.328125 -1.421875 30.609375 -1.421875 
Q 18.84375 -1.421875 12.171875 6.21875 
Q 5.515625 13.875 5.515625 27.296875 
Q 5.515625 40.765625 12.171875 48.375 
Q 18.84375 56 30.609375 56 
z
" id="DejaVuSans-111"/>
      <path d="M 54.890625 33.015625 
L 54.890625 0 
L 45.90625 0 
L 45.90625 32.71875 
Q 45.90625 40.484375 42.875 44.328125 
Q 39.84375 48.1875 33.796875 48.1875 
Q 26.515625 48.1875 22.3125 43.546875 
Q 18.109375 38.921875 18.109375 30.90625 
L 18.109375 0 
L 9.078125 0 
L 9.078125 54.6875 
L 18.109375 54.6875 
L 18.109375 46.1875 
Q 21.34375 51.125 25.703125 53.5625 
Q 30.078125 56 35.796875 56 
Q 45.21875 56 50.046875 50.171875 
Q 54.890625 44.34375 54.890625 33.015625 
z
" id="DejaVuSans-110"/>
      <path d="M 11.71875 12.40625 
L 22.015625 12.40625 
L 22.015625 0 
L 11.71875 0 
z
M 11.71875 51.703125 
L 22.015625 51.703125 
L 22.015625 39.3125 
L 11.71875 39.3125 
z
" id="DejaVuSans-58"/>
      <path id="DejaVuSans-32"/>
      <path d="M 9.8125 72.90625 
L 23.09375 72.90625 
L 55.421875 11.921875 
L 55.421875 72.90625 
L 64.984375 72.90625 
L 64.984375 0 
L 51.703125 0 
L 19.390625 60.984375 
L 19.390625 0 
L 9.8125 0 
z
" id="DejaVuSans-78"/>
     </defs>
     <use xlink:href="#DejaVuSans-73"/>
     <use x="29.492188" xlink:href="#DejaVuSans-116"/>
     <use x="68.701172" xlink:href="#DejaVuSans-101"/>
     <use x="130.224609" xlink:href="#DejaVuSans-114"/>
     <use x="171.337891" xlink:href="#DejaVuSans-97"/>
     <use x="232.617188" xlink:href="#DejaVuSans-116"/>
     <use x="271.826172" xlink:href="#DejaVuSans-105"/>
     <use x="299.609375" xlink:href="#DejaVuSans-111"/>
     <use x="360.791016" xlink:href="#DejaVuSans-110"/>
     <use x="424.169922" xlink:href="#DejaVuSans-58"/>
     <use x="457.861328" xlink:href="#DejaVuSans-32"/>
     <use x="489.648438" xlink:href="#DejaVuSans-78"/>
     <use x="564.453125" xlink:href="#DejaVuSans-111"/>
     <use x="625.634766" xlink:href="#DejaVuSans-110"/>
     <use x="689.013672" xlink:href="#DejaVuSans-101"/>
    </g>
   </g>
   <g id="PathCollection_1">
    <defs>
     <path d="M 0 3 
C 0.795609 3 1.55874 2.683901 2.12132 2.12132 
C 2.683901 1.55874 3 0.795609 3 0 
C 3 -0.795609 2.683901 -1.55874 2.12132 -2.12132 
C 1.55874 -2.683901 0.795609 -3 0 -3 
C -0.795609 -3 -1.55874 -2.683901 -2.12132 -2.12132 
C -2.683901 -1.55874 -3 -0.795609 -3 0 
C -3 0.795609 -2.683901 1.55874 -2.12132 2.12132 
C -1.55874 2.683901 -0.795609 3 0 3 
z
" id="m3a5c72dae9" style="stroke:#b22222;"/>
    </defs>
    <g clip-path="url(#p4b38af9469)">
     <use style="fill:#b22222;stroke:#b22222;" x="534.973754" xlink:href="#m3a5c72dae9" y="582.233726"/>
    </g>
   </g>
   <g id="PathCollection_2">
    <defs>
     <path d="M 0 3 
C 0.795609 3 1.55874 2.683901 2.12132 2.12132 
C 2.683901 1.55874 3 0.795609 3 0 
C 3 -0.795609 2.683901 -1.55874 2.12132 -2.12132 
C 1.55874 -2.683901 0.795609 -3 0 -3 
C -0.795609 -3 -1.55874 -2.683901 -2.12132 -2.12132 
C -2.683901 -1.55874 -3 -0.795609 -3 0 
C -3 0.795609 -2.683901 1.55874 -2.12132 2.12132 
C -1.55874 2.683901 -0.795609 3 0 3 
z
" id="mc33393d100" style="stroke:#00ffff;stroke-opacity:0.4;"/>
    </defs>
    <g clip-path="url(#p4b38af9469)">
     <use style="fill:#00ffff;fill-opacity:0.4;stroke:#00ffff;stroke-opacity:0.4;" x="394.44047" xlink:href="#mc33393d100" y="716.143469"/>
    </g>
   </g>
   <g id="PathCollection_3">
    <g clip-path="url(#p4b38af9469)">
     <use style="fill:#b22222;stroke:#b22222;" x="427.243452" xlink:href="#m3a5c72dae9" y="978.125572"/>
    </g>
   </g>
   <g id="PathCollection_4">
    <g clip-path="url(#p4b38af9469)">
     <use style="fill:#00ffff;fill-opacity:0.4;stroke:#00ffff;stroke-opacity:0.4;" x="379.604066" xlink:href="#mc33393d100" y="743.776628"/>
    </g>
   </g>
   <g id="PathCollection_5">
    <g clip-path="url(#p4b38af9469)">
     <use style="fill:#b22222;stroke:#b22222;" x="475.713504" xlink:href="#m3a5c72dae9" y="1008.438574"/>
    </g>
   </g>
   <g id="PathCollection_6">
    <g clip-path="url(#p4b38af9469)">
     <use style="fill:#00ffff;fill-opacity:0.4;stroke:#00ffff;stroke-opacity:0.4;" x="398.335055" xlink:href="#mc33393d100" y="737.653472"/>
    </g>
   </g>
   <g id="PathCollection_7">
    <g clip-path="url(#p4b38af9469)">
     <use style="fill:#b22222;stroke:#b22222;" x="580.295248" xlink:href="#m3a5c72dae9" y="1083.886759"/>
    </g>
   </g>
   <g id="PathCollection_8">
    <g clip-path="url(#p4b38af9469)">
     <use style="fill:#00ffff;fill-opacity:0.4;stroke:#00ffff;stroke-opacity:0.4;" x="380.800419" xlink:href="#mc33393d100" y="742.046164"/>
    </g>
   </g>
   <g id="PathCollection_9">
    <g clip-path="url(#p4b38af9469)">
     <use style="fill:#b22222;stroke:#b22222;" x="285.970308" xlink:href="#m3a5c72dae9" y="897.089085"/>
    </g>
   </g>
   <g id="PathCollection_10">
    <g clip-path="url(#p4b38af9469)">
     <use style="fill:#00ffff;fill-opacity:0.4;stroke:#00ffff;stroke-opacity:0.4;" x="370.973128" xlink:href="#mc33393d100" y="727.146166"/>
    </g>
   </g>
   <g id="PathCollection_11">
    <g clip-path="url(#p4b38af9469)">
     <use style="fill:#b22222;stroke:#b22222;" x="371.472887" xlink:href="#m3a5c72dae9" y="1045.131811"/>
    </g>
   </g>
   <g id="PathCollection_12">
    <g clip-path="url(#p4b38af9469)">
     <use style="fill:#00ffff;fill-opacity:0.4;stroke:#00ffff;stroke-opacity:0.4;" x="398.172958" xlink:href="#mc33393d100" y="720.96332"/>
    </g>
   </g>
  </g>
 </g>
 <defs>
  <clipPath id="p4b38af9469">
   <rect height="1108.8" width="877.8" x="145.35" y="172.8"/>
  </clipPath>
 </defs>
</svg>
